<svg id="Informal_Horizontal" data-name="Informal Horizontal" xmlns="http://www.w3.org/2000/svg" viewBox="0 0 506.93 125.1"><defs><style>.cls-1{fill:#fff;}.cls-2{fill:#e86100;}</style></defs><g id="AU_PMS" data-name="AU PMS"><path class="cls-1" d="M46.93,41.68H72.75L59.84,18.78Zm5.72-3.35,7.19-12.74L67,38.33Z"/><path class="cls-1" d="M119.68,30.07V13.74H83v7.11L71.19,0H48.49L36.73,20.85V13.74H0V30.07H7.4V63.22h-7V79.77H7.64C9,88.16,17.13,104.5,59.84,104.5S110.69,88.16,112,79.77h7.29V63.22h-7V30.07ZM3.35,26.72V17.08h30v9.64H25.09V41.49L12.84,63.22h-2.1V26.72Zm28.18,3.35-3.09,5.49V30.07Zm28.31,71.08C26.71,101.15,13,90.87,11,79.77H27.55C33.32,87,48.13,89,59.84,89S86.35,87,92.12,79.77h16.54c-2,11.1-15.69,21.38-48.82,21.38M38.62,63.22l4.45-7.88H76.61l4.45,7.88H71.27V79.77H87.34c-7.11,5.32-22,5.85-27.5,5.85s-20.39-.53-27.5-5.85H48.41V63.22ZM116,66.56v9.87H74.62V66.56H86.78L78.57,52H41.11L32.9,66.56H45.06v9.87H3.7V66.56H14.8L50.44,3.34h18.8l35.64,63.22ZM88.15,30.07h3.09v5.49Zm20.79-3.35v36.5h-2.1L94.59,41.49V26.72h-8.3V17.08h30v9.64Z"/><path class="cls-2" d="M59.84,89C48.13,89,33.32,87,27.55,79.77H11c2,11.1,15.69,21.38,48.82,21.38s46.8-10.28,48.82-21.38H92.12C86.35,87,71.54,89,59.84,89"/><polygon class="cls-2" points="10.74 63.22 12.84 63.22 25.09 41.49 25.09 26.72 33.38 26.72 33.38 17.08 3.35 17.08 3.35 26.72 10.74 26.72 10.74 63.22"/><polygon class="cls-2" points="86.29 17.08 86.29 26.72 94.59 26.72 94.59 41.49 106.84 63.22 108.94 63.22 108.94 26.72 116.33 26.72 116.33 17.08 86.29 17.08"/><path class="cls-2" d="M45.06,66.56H32.9L41.11,52H78.57l8.21,14.57H74.62v9.87H116V66.56h-11.1L69.24,3.34H50.44L14.8,66.56H3.7v9.87H45.06ZM59.84,18.78l12.91,22.9H46.93Z"/><path class="cls-2" d="M113.44,88.88a2.83,2.83,0,1,0,2.83,2.83,2.83,2.83,0,0,0-2.83-2.83m0,5.05a2.22,2.22,0,1,1,2.22-2.22,2.22,2.22,0,0,1-2.22,2.22"/><path class="cls-2" d="M114.6,91.06a1,1,0,0,0-1-1h-1.36v3.23h.6V92h.44l.61,1.31h.67L114,92a1,1,0,0,0,.64-.9m-1,.35h-.76V90.7h.76a.36.36,0,0,1,0,.71"/></g><path class="cls-1" d="M374.45,34.82h6.34V61.69c0,4.49,0,10.64-6.84,15.07-3.92,2.57-9.3,3.87-16,3.87-7,0-12.39-1.42-16.55-4.32-6.52-4.5-6.52-10.43-6.52-15.19V34.82h6.34V61.37c.05,4.81.38,8.16,4.45,10.77,3.15,2.06,7.19,3.06,12.34,3.06a26.5,26.5,0,0,0,10.63-2c5.79-2.61,5.79-7.27,5.79-11Z"/><path class="cls-1" d="M252.55,34.82h6.34V61.69c0,4.49,0,10.64-6.85,15.07-3.91,2.57-9.29,3.87-16,3.87-7,0-12.39-1.42-16.55-4.32C213,71.81,213,65.88,213,61.12V34.82h6.34V61.37c0,4.81.38,8.16,4.45,10.77C227,74.2,231,75.2,236.13,75.2a26.5,26.5,0,0,0,10.63-2c5.79-2.61,5.79-7.27,5.79-11Z"/><path class="cls-1" d="M402.29,56.55V39.91h24.88c2.82.06,6,.33,8,3.53a8.67,8.67,0,0,1,1.34,4.79A7.51,7.51,0,0,1,435,53c-2.59,3.44-7.16,3.54-10.5,3.54ZM431,60.63c3.38-.56,12.11-2.06,12.11-12.67a12.26,12.26,0,0,0-4-9.55c-3.85-3.45-8.61-3.54-12.5-3.59H396.11V79.54h6.26V61.64h21.71l15.17,17.9h8.2Z"/><path class="cls-1" d="M506.93,34.82V79.54h-6.16L469.05,46c-.87-.92-2.85-3.28-3.58-4.23.28,2.55.31,6.29.31,7.87V79.54h-6V34.82h6.47s29.19,31,30.21,32a72.44,72.44,0,0,1,4.86,5.58c-.33-3-.39-5.6-.39-6.27,0-1.73,0-31.35,0-31.35Z"/><path class="cls-1" d="M313,72.25c-2.38,2-5.34,2.2-8.16,2.2H280.48V58.89h24.35c2.33,0,5.51,0,7.91,1.82l.09.06A7.84,7.84,0,0,1,313,72.25M280.48,39.91h22.39c2.3,0,5.15,0,7.37,1.41a6.5,6.5,0,0,1,3,5.57A6.63,6.63,0,0,1,310,52.78c-1.78,1-4.05,1-6,1H280.48ZM314,55.33c5.31-1.66,5.75-7.15,5.75-8.88a11.08,11.08,0,0,0-2.22-6.91c-3.45-4.36-9.09-4.72-14.56-4.72H274.21V79.54h28.72c4.88,0,11,0,15-3.41a11.67,11.67,0,0,0,4-9,12.2,12.2,0,0,0-8-11.75"/><path class="cls-1" d="M167.78,63.47,179.1,40.58l11,22.89ZM182.5,34.82h-6.68L152.73,79.54h7l5.42-11h27.62l5.43,11h7.2Z"/><path class="cls-1" d="M163.34,115.44h-7.92v6.84h13.83v2.31H152.81V105h15.75v2.31H155.42v5.82h7.92Z"/><path class="cls-1" d="M191,105v19.59h-2.37l-12.44-15h0v15h-2.61V105h2.36l12.45,15h0V105Z"/><path class="cls-1" d="M213.49,109.41a10.74,10.74,0,0,0-7-2.61,8,8,0,1,0,.24,16,10.78,10.78,0,0,0,6.33-1.92v-4.65h-6.36v-2.31h8.73v8.22a15.08,15.08,0,0,1-8.85,3c-6.14,0-10.85-4.61-10.85-10.31a10.46,10.46,0,0,1,10.73-10.29,13.8,13.8,0,0,1,8.79,3.3Z"/><path class="cls-1" d="M221.14,124.59V105h2.61v19.59Z"/><path class="cls-1" d="M247.72,105v19.59h-2.37l-12.45-15h0v15h-2.61V105h2.37l12.45,15h0V105Z"/><path class="cls-1" d="M264.76,115.44h-7.92v6.84h13.83v2.31H254.23V105H270v2.31H256.84v5.82h7.92Z"/><path class="cls-1" d="M285.52,115.44H277.6v6.84h13.83v2.31H275V105h15.75v2.31H277.6v5.82h7.92Z"/><path class="cls-1" d="M295.75,124.59V105h10.8a7.12,7.12,0,0,1,5.49,2,5.5,5.5,0,0,1,1.5,3.84,5.69,5.69,0,0,1-4.56,5.46l4.83,8.31h-3l-4.5-8h-8v8Zm2.61-17.28v7h8.85a3.59,3.59,0,0,0,3.75-3.51,3.33,3.33,0,0,0-.93-2.28,4.56,4.56,0,0,0-3.48-1.2Z"/><path class="cls-1" d="M318.67,124.59V105h2.61v19.59Z"/><path class="cls-1" d="M345.25,105v19.59h-2.37l-12.45-15h0v15h-2.61V105h2.37l12.45,15h0V105Z"/><path class="cls-1" d="M367.72,109.41a10.74,10.74,0,0,0-7-2.61,8,8,0,1,0,.24,16,10.78,10.78,0,0,0,6.33-1.92v-4.65H361v-2.31h8.73v8.22a15.08,15.08,0,0,1-8.85,3c-6.15,0-10.86-4.61-10.86-10.31a10.47,10.47,0,0,1,10.74-10.29,13.8,13.8,0,0,1,8.79,3.3Z"/></svg>