<svg id="Formal_Wide" data-name="Formal Wide" xmlns="http://www.w3.org/2000/svg" viewBox="0 0 842.38 259.51"><defs><style>.cls-1{fill:#fff;}</style></defs><path class="cls-1" d="M389.26,93.89c8.27,6.18,25.52,6.78,31.93,6.78s23.67-.6,31.93-6.78H434.46V74.67h11.36l-5.16-9.15H401.72l-5.16,9.15h11.36V93.89Zm9.5-20.5,3.71-6.58h37.44l3.71,6.58H433.18V95.18h15c-9.12,3.92-23.12,4.21-27,4.21s-17.85-.29-27-4.21h15V73.39Z"/><path class="cls-1" d="M412.85,45.79h16.68L421.19,31Zm2.2-1.29,6.14-10.89,6.14,10.89Z"/><path class="cls-1" d="M453,35.55,458.29,45V35.55ZM457,40.12l-1.85-3.29H457Z"/><path class="cls-1" d="M491.94,37.48V16H446.73v4.64L435.12,0H407.26L395.65,20.59V16H350.44V37.48H359V73.39h-8.18V95.18h8.68c2.15,10.39,12.88,28.7,61.66,28.7s59.51-18.31,61.66-28.7h8.68V73.39h-8.18V37.48Zm-1.7,37.19V93.89h-8.46c-1.56,9.74-11,28.7-60.59,28.7s-59-19-60.59-28.7h-8.46V74.67h8.18V36.19h-8.59V17.24h42.64v8.25L408,1.29h26.36L448,25.49V17.24h42.63v19h-8.58V74.67Z"/><path class="cls-1" d="M389.43,35.55h-5.34V45Zm-4.05,1.28h1.85l-1.85,3.29Z"/><polygon class="cls-1" points="486.77 21.12 451.9 21.12 451.9 32.31 461.53 32.31 461.53 49.45 475.75 74.67 478.18 74.67 478.18 32.31 486.77 32.31 486.77 21.12"/><path class="cls-1" d="M421.19,104.56c-13.59,0-30.78-2.23-37.48-10.67H364.52c2.34,12.89,18.21,24.82,56.67,24.82s54.33-11.93,56.67-24.82H458.67C452,102.33,434.78,104.56,421.19,104.56Z"/><polygon class="cls-1" points="364.2 74.67 366.64 74.67 380.85 49.46 380.85 32.31 390.48 32.31 390.48 21.12 355.61 21.12 355.61 32.31 364.2 32.31 364.2 74.67"/><path class="cls-1" d="M483.41,104.47a3.28,3.28,0,1,0,3.28,3.28A3.28,3.28,0,0,0,483.41,104.47Zm0,5.86a2.58,2.58,0,1,1,2.58-2.58A2.59,2.59,0,0,1,483.41,110.33Z"/><path class="cls-1" d="M484.76,107a1.12,1.12,0,0,0-1.12-1.12h-1.58v3.76h.7V108.1h.51l.71,1.53h.78L484,108A1.13,1.13,0,0,0,484.76,107Zm-1.12.41h-.88v-.82h.88a.41.41,0,0,1,.41.41A.41.41,0,0,1,483.64,107.4Z"/><path class="cls-1" d="M432.1,5.17H410.28L368.9,78.56H356V90h48V78.56H389.91l9.54-16.92h43.48l9.54,16.92H438.35V90h48V78.56H473.48Zm-25.9,44.5,15-26.59,15,26.59Z"/><rect class="cls-1" x="484.73" y="165.29" width="6.43" height="41.3"/><path class="cls-1" d="M541.94,165.29,527.7,196.13a15.12,15.12,0,0,0-1.22,3.17,24.46,24.46,0,0,0-1.58-3.8l-14.24-30.21h-7.17l19.83,41.3h6.26l19.48-41.3Z"/><polygon class="cls-1" points="567.36 187.91 598.27 187.91 598.27 182.42 567.36 182.42 567.36 171.01 599.13 171.01 599.13 165.29 560.93 165.29 560.93 206.59 600.57 206.59 600.57 200.87 567.36 200.87 567.36 187.91"/><polygon class="cls-1" points="751.02 170.84 767.6 170.84 767.6 206.59 774.02 206.59 774.02 170.84 790.66 170.84 790.66 165.29 751.02 165.29 751.02 170.84"/><path class="cls-1" d="M834,165.29l-14.54,18.13a9.63,9.63,0,0,0-1.26,1.84,10.74,10.74,0,0,0-1.39-2.13l-14.19-17.84h-8.29L815,190.55v16h6.43V190.67l21-25.38Z"/><path class="cls-1" d="M92.2,190.52c0,3.5.13,7.48-5,9.78a23.57,23.57,0,0,1-9.56,1.78c-4.65,0-8.28-.89-11.1-2.74-3.58-2.31-3.76-5.16-3.82-9.58V165.29H56.29v24.24c0,4.4,0,9.89,6.05,14.06,3.83,2.68,8.81,4,15.24,4,6.15,0,11.09-1.2,14.69-3.56,6.36-4.12,6.36-9.81,6.36-14V165.29H92.2Z"/><path class="cls-1" d="M271.31,177.56a11.43,11.43,0,0,0-3.71-8.92c-3.58-3.22-8-3.3-11.57-3.35H228v41.3h6.43V190.28h19.21l13.83,16.31h8.19l-15.11-17.32C263.83,188.69,271.31,187,271.31,177.56Zm-6.48.22a6.68,6.68,0,0,1-1.34,4.2c-2.28,3-6.38,3-9.35,3H234.41V170.66h22.14c2.64.05,5.35.12,7.12,2.92A7.74,7.74,0,0,1,264.83,177.78Z"/><path class="cls-1" d="M325.26,165.29v28.82c.06,2,.07,2.75.28,4.86a53.32,53.32,0,0,0-3.88-4.39l-27.6-29.29h-6.29v41.3h6V179.05c0-3.06,0-4-.21-6.3.9,1.11,1.43,1.74,2.73,3.17l29,30.67h6v-41.3Z"/><path class="cls-1" d="M151,184.27c4.37-1.79,4.74-6.55,4.74-8.11a10.24,10.24,0,0,0-2.08-6.45c-3.22-4.08-8.42-4.42-13.48-4.42H113.74v41.3h26.44c4.5,0,10.09,0,13.87-3.17a10.93,10.93,0,0,0,3.72-8.46A11.32,11.32,0,0,0,151,184.27Zm.28,10.23a6.27,6.27,0,0,1-2.11,5c-2.09,1.77-4.73,1.92-7.26,1.92H120.16V187.74h21.75c2.09,0,4.94,0,7.12,1.68A6.27,6.27,0,0,1,151.28,194.5Zm-31.12-11.92V170.49h20c2.06,0,4.62,0,6.57,1.23a5.59,5.59,0,0,1,2.58,4.85,5.8,5.8,0,0,1-2.78,5.13c-1.57.88-3.59.88-5.38.88Z"/><path class="cls-1" d="M21.32,165.29,0,206.59H7l5-10H36.75l5,10h7.17l-21.15-41.3ZM34,191.37H14.61l9.86-19.94Z"/><path class="cls-1" d="M460.71,165.29v28.82c.06,2,.07,2.75.28,4.86a53.32,53.32,0,0,0-3.88-4.39l-27.6-29.29h-6.29v41.3h6V179.05c0-3.06,0-4-.22-6.3.9,1.11,1.44,1.74,2.73,3.17l29,30.67h6v-41.3Z"/><path class="cls-1" d="M659.91,177.56a11.46,11.46,0,0,0-3.7-8.92c-3.58-3.22-8-3.3-11.57-3.35h-28v41.3H623V190.28h19.21l13.83,16.31h8.19l-15.11-17.32C652.44,188.69,659.91,187,659.91,177.56Zm-6.47.22a6.68,6.68,0,0,1-1.34,4.2c-2.28,3-6.38,3-9.36,3H623V170.66h22.13c2.64.05,5.36.12,7.13,2.92A7.74,7.74,0,0,1,653.44,177.78Z"/><path class="cls-1" d="M206.45,190.52c0,3.5.12,7.48-5,9.78a23.57,23.57,0,0,1-9.56,1.78c-4.65,0-8.28-.89-11.1-2.74-3.59-2.31-3.76-5.16-3.82-9.58V165.29h-6.42v24.24c0,4.4,0,9.89,6.05,14.06,3.83,2.68,8.81,4,15.23,4,6.16,0,11.1-1.2,14.7-3.56,6.36-4.12,6.36-9.81,6.36-14V165.29h-6.43Z"/><path class="cls-1" d="M401.69,190.52c0,3.5.12,7.48-5,9.78a23.52,23.52,0,0,1-9.55,1.78c-4.65,0-8.28-.89-11.1-2.74-3.59-2.31-3.76-5.16-3.82-9.58V165.29h-6.43v24.24c0,4.4,0,9.89,6.06,14.06,3.82,2.68,8.81,4,15.23,4,6.15,0,11.1-1.2,14.69-3.56,6.36-4.12,6.36-9.81,6.36-14V165.29h-6.42Z"/><rect class="cls-1" x="732.41" y="165.29" width="6.43" height="41.3"/><path class="cls-1" d="M695,181.82c-5-.47-8.37-.65-10.66-1.45a4.46,4.46,0,0,1-3-4.17c0-4.54,5.56-6.43,13-6.43s12.17,2.41,14.8,5.58l5.87-2.38c-3.92-6.26-12.09-8.69-20.79-8.69-12.75,0-19.38,4.82-19.38,12.2a9.16,9.16,0,0,0,3,7.06c3.18,2.88,7.42,3.29,16.9,4,9,.72,14.19,1.59,14.19,6.49s-5.1,7.87-13.43,7.87-14.13-2.19-17.89-6.51l-5.93,2.46c2.92,4.6,9.29,9.71,23.42,9.71s20.25-5.94,20.25-13.58c0-5.21-2.88-8.72-8.2-10.48C704.19,182.55,699.87,182.27,695,181.82Z"/><path class="cls-1" d="M135.07,233.54a12.79,12.79,0,0,0-8.47-2.84c-2.94,0-5.95,1.05-5.95,3.92s3.78,3.08,7.49,3.29c4,.28,10.43.67,10.43,6.79,0,5.33-4.72,7.46-10.22,7.46a16.94,16.94,0,0,1-12-4.69l1.85-2.1a14.43,14.43,0,0,0,10.22,4.2c3.89,0,7.11-1.4,7.11-4.48,0-3.43-3.5-4-7.39-4.23-4.93-.32-10.53-.67-10.53-6s5-6.79,9.1-6.79a16.68,16.68,0,0,1,10.18,3.33Z"/><path class="cls-1" d="M143.47,236.76a14.87,14.87,0,0,1,7.56-2.14c3.61,0,7.39,1.23,7.39,4.87v9.1a7,7,0,0,0,.52,3h-2.83a6,6,0,0,1-.49-2.31,9.88,9.88,0,0,1-6.83,2.66c-4,0-6.55-2.35-6.55-5.64,0-3,2.7-5.39,7.57-5.39,2,0,4.51.49,5.81,1.72v-2.35c0-2.31-2.21-3.26-4.69-3.26a12,12,0,0,0-6.44,2Zm12.15,10.15v-2.06c-1-1.06-3.12-1.75-5.36-1.75-3.71,0-5.18,1.39-5.18,3.18s1.51,3.29,4.27,3.29A9.16,9.16,0,0,0,155.62,246.91Z"/><path class="cls-1" d="M164.78,251.57V239.31a19.46,19.46,0,0,0-.45-4.16h2.56a10.11,10.11,0,0,1,.38,2.48c1.26-1.5,2.87-3,5.53-3a5.85,5.85,0,0,1,5.43,3.33,6.93,6.93,0,0,1,5.7-3.33,5.68,5.68,0,0,1,5.88,5.81v11.14H187V240.43a3.36,3.36,0,0,0-3.5-3.36c-2.1,0-3.71,1.47-4.8,2.8v11.7h-2.8V240a3.34,3.34,0,0,0-3.5-2.91c-2.13,0-3.74,1.47-4.79,2.8v11.7Z"/><path class="cls-1" d="M210.71,235.15v12.22a21.75,21.75,0,0,0,.28,4.2h-2.56a12.65,12.65,0,0,1-.24-2.52,7.79,7.79,0,0,1-6,3c-3.61,0-6.38-2.42-6.38-5.78V235.15h2.84v11.13c0,1.86,1.64,3.33,4,3.33a7.24,7.24,0,0,0,5.32-2.77V235.15Z"/><path class="cls-1" d="M232.44,249a11.77,11.77,0,0,1-8,3.08c-5.33,0-8.44-3.85-8.44-8.54a8.6,8.6,0,0,1,8.68-8.9c3.88,0,8.23,2.42,8.26,8.27a8.24,8.24,0,0,1,0,.84H218.79a5.65,5.65,0,0,0,5.91,5.84,8.34,8.34,0,0,0,5.89-2.41ZM219,241.52h10.85c-.07-3.08-2.84-4.55-5.32-4.55A5.61,5.61,0,0,0,219,241.52Z"/><path class="cls-1" d="M238.28,251.57V227.06h2.8v24.51Z"/><path class="cls-1" d="M275.31,233.85a12.52,12.52,0,0,0-8.12-3,9.33,9.33,0,1,0,.28,18.66,12.58,12.58,0,0,0,7.39-2.24V241.8h-7.42v-2.7h10.19v9.6a17.66,17.66,0,0,1-10.33,3.46c-7.18,0-12.67-5.39-12.67-12a12.22,12.22,0,0,1,12.53-12A16.17,16.17,0,0,1,277.42,232Z"/><path class="cls-1" d="M285.5,227.45a1.76,1.76,0,0,1,1.85,1.68,1.75,1.75,0,0,1-1.85,1.68,1.72,1.72,0,0,1-1.82-1.68A1.74,1.74,0,0,1,285.5,227.45Zm-1.37,24.12V235.15h2.77v16.42Z"/><path class="cls-1" d="M293.44,251.57V239.31a19.67,19.67,0,0,0-.45-4.16h2.55a9.9,9.9,0,0,1,.39,2.52,7.84,7.84,0,0,1,6.05-3c3.61,0,6.34,2.42,6.34,5.81v11.14h-2.8V240.43c0-1.85-1.65-3.36-4-3.36a7.21,7.21,0,0,0-5.32,2.8v11.7Z"/><path class="cls-1" d="M314.65,251.57V239.31a19.67,19.67,0,0,0-.45-4.16h2.55a9.9,9.9,0,0,1,.39,2.52,7.84,7.84,0,0,1,6.05-3c3.61,0,6.34,2.42,6.34,5.81v11.14h-2.8V240.43c0-1.85-1.65-3.36-4-3.36a7.21,7.21,0,0,0-5.32,2.8v11.7Z"/><path class="cls-1" d="M366.14,247.61a15.63,15.63,0,0,1-11,4.55c-7.38,0-12.56-5.39-12.56-12a12,12,0,0,1,12.42-12A15.66,15.66,0,0,1,365.51,232l-2.07,2a12.61,12.61,0,0,0-8.33-3.25,9.33,9.33,0,1,0,.11,18.66,12.49,12.49,0,0,0,8.89-3.85Z"/><path class="cls-1" d="M378.11,234.62a8.72,8.72,0,1,1-8.79,8.69A8.56,8.56,0,0,1,378.11,234.62Zm0,15.09c3.57,0,5.95-2.9,5.95-6.4a6,6,0,0,0-5.95-6.34c-3.54,0-5.88,2.94-5.88,6.34S374.57,249.71,378.11,249.71Z"/><path class="cls-1" d="M392.39,251.57V227.06h2.8v24.51Z"/><path class="cls-1" d="M402.15,251.57V227.06H405v24.51Z"/><path class="cls-1" d="M426.9,249a11.8,11.8,0,0,1-8,3.08c-5.32,0-8.43-3.85-8.43-8.54a8.6,8.6,0,0,1,8.68-8.9c3.88,0,8.22,2.42,8.26,8.27a6.19,6.19,0,0,1,0,.84h-14.1a5.65,5.65,0,0,0,5.91,5.84,8.3,8.3,0,0,0,5.88-2.41Zm-13.44-7.46h10.85c-.07-3.08-2.84-4.55-5.32-4.55A5.61,5.61,0,0,0,413.46,241.52Z"/><path class="cls-1" d="M445.17,249.36a8,8,0,0,1-5.67,2.7c-4.45,0-8.2-3.43-8.2-8.65s3.79-8.79,8.37-8.79a7.48,7.48,0,0,1,5.74,3,9.4,9.4,0,0,1,.35-2.56h2.59a17.56,17.56,0,0,0-.38,4.2v13.31c0,3.78-2.8,6.89-8.23,6.89-3.74,0-6-1.26-7.46-2.83L434,255a7.5,7.5,0,0,0,5.77,2.14c3.57,0,5.43-2,5.43-4.55Zm0-2.27v-7.43a7.12,7.12,0,0,0-5.25-2.59c-3,0-5.53,2.49-5.53,6.34s2.41,6.2,5.35,6.2A8,8,0,0,0,445.17,247.09Z"/><path class="cls-1" d="M469.67,249a11.8,11.8,0,0,1-8,3.08c-5.32,0-8.43-3.85-8.43-8.54a8.6,8.6,0,0,1,8.68-8.9c3.88,0,8.22,2.42,8.26,8.27a6.19,6.19,0,0,1,0,.84H456a5.67,5.67,0,0,0,5.92,5.84,8.3,8.3,0,0,0,5.88-2.41Zm-13.45-7.46h10.86c-.07-3.08-2.84-4.55-5.32-4.55A5.63,5.63,0,0,0,456.22,241.52Z"/><path class="cls-1" d="M490.7,234.62a8.72,8.72,0,1,1-8.79,8.69A8.56,8.56,0,0,1,490.7,234.62Zm0,15.09c3.57,0,5.95-2.9,5.95-6.4A6,6,0,0,0,490.7,237c-3.54,0-5.88,2.94-5.88,6.34S487.16,249.71,490.7,249.71Z"/><path class="cls-1" d="M505.89,235.15v-3.36c0-3.82,2.62-5.11,4.87-5.11a6.91,6.91,0,0,1,3.78,1L514,230a4.88,4.88,0,0,0-2.69-.84,2.4,2.4,0,0,0-2.59,2.63v3.36h4.83v2.17h-4.83v14.25h-2.8V237.32h-3.22v-2.17Z"/><path class="cls-1" d="M539,240.89h-9.25v8h16.14v2.7H526.68V228.71h18.38v2.69H529.72v6.79H539Z"/><path class="cls-1" d="M550.62,251.57V239.31a19.06,19.06,0,0,0-.46-4.16h2.56a9.9,9.9,0,0,1,.38,2.52,7.86,7.86,0,0,1,6.06-3c3.6,0,6.33,2.42,6.33,5.81v11.14h-2.8V240.43c0-1.85-1.64-3.36-4-3.36a7.19,7.19,0,0,0-5.32,2.8v11.7Z"/><path class="cls-1" d="M584.43,249.36a8,8,0,0,1-5.67,2.7c-4.45,0-8.19-3.43-8.19-8.65s3.78-8.79,8.36-8.79a7.48,7.48,0,0,1,5.74,3,9.4,9.4,0,0,1,.35-2.56h2.59a17.56,17.56,0,0,0-.38,4.2v13.31c0,3.78-2.8,6.89-8.23,6.89-3.74,0-6-1.26-7.45-2.83l1.68-1.65a7.5,7.5,0,0,0,5.77,2.14c3.57,0,5.43-2,5.43-4.55Zm0-2.27v-7.43a7.12,7.12,0,0,0-5.25-2.59c-3,0-5.53,2.49-5.53,6.34s2.41,6.2,5.35,6.2A8,8,0,0,0,584.43,247.09Z"/><path class="cls-1" d="M595.1,227.45a1.77,1.77,0,0,1,1.86,1.68,1.75,1.75,0,0,1-1.86,1.68,1.72,1.72,0,0,1-1.82-1.68A1.74,1.74,0,0,1,595.1,227.45Zm-1.36,24.12V235.15h2.76v16.42Z"/><path class="cls-1" d="M603.05,251.57V239.31a19.06,19.06,0,0,0-.46-4.16h2.56a9.9,9.9,0,0,1,.38,2.52,7.86,7.86,0,0,1,6.06-3c3.6,0,6.33,2.42,6.33,5.81v11.14h-2.8V240.43c0-1.85-1.64-3.36-4-3.36a7.19,7.19,0,0,0-5.32,2.8v11.7Z"/><path class="cls-1" d="M639.41,249a11.77,11.77,0,0,1-8,3.08c-5.32,0-8.44-3.85-8.44-8.54a8.6,8.6,0,0,1,8.68-8.9c3.89,0,8.23,2.42,8.26,8.27a8.24,8.24,0,0,1,0,.84H625.76c.11,3.22,2.17,5.84,5.92,5.84a8.32,8.32,0,0,0,5.88-2.41ZM626,241.52h10.85c-.07-3.08-2.83-4.55-5.32-4.55A5.61,5.61,0,0,0,626,241.52Z"/><path class="cls-1" d="M660.24,249a11.8,11.8,0,0,1-8,3.08c-5.32,0-8.43-3.85-8.43-8.54a8.6,8.6,0,0,1,8.68-8.9c3.88,0,8.22,2.42,8.26,8.27a6.19,6.19,0,0,1,0,.84h-14.1a5.65,5.65,0,0,0,5.91,5.84,8.3,8.3,0,0,0,5.88-2.41Zm-13.44-7.46h10.85c-.07-3.08-2.84-4.55-5.32-4.55A5.61,5.61,0,0,0,646.8,241.52Z"/><path class="cls-1" d="M665.91,251.57V239.31a17.29,17.29,0,0,0-.49-4.16H668a12,12,0,0,1,.38,2.83c1.12-1.68,2.59-3.36,5-3.36a3.38,3.38,0,0,1,2.48.84L675,238a4.07,4.07,0,0,0-2.2-.67c-1.79,0-3.08,1.61-4.06,3v11.2Z"/><path class="cls-1" d="M681.1,227.45a1.76,1.76,0,0,1,1.85,1.68,1.75,1.75,0,0,1-1.85,1.68,1.72,1.72,0,0,1-1.82-1.68A1.74,1.74,0,0,1,681.1,227.45Zm-1.37,24.12V235.15h2.77v16.42Z"/><path class="cls-1" d="M689,251.57V239.31a19.67,19.67,0,0,0-.45-4.16h2.55a9.9,9.9,0,0,1,.39,2.52,7.84,7.84,0,0,1,6.05-3c3.61,0,6.34,2.42,6.34,5.81v11.14h-2.8V240.43c0-1.85-1.65-3.36-4-3.36a7.21,7.21,0,0,0-5.32,2.8v11.7Z"/><path class="cls-1" d="M722.85,249.36a8,8,0,0,1-5.67,2.7c-4.44,0-8.19-3.43-8.19-8.65s3.78-8.79,8.37-8.79a7.48,7.48,0,0,1,5.74,3,9,9,0,0,1,.35-2.56H726a17.58,17.58,0,0,0-.39,4.2v13.31c0,3.78-2.8,6.89-8.22,6.89-3.75,0-6-1.26-7.46-2.83l1.68-1.65a7.52,7.52,0,0,0,5.78,2.14c3.57,0,5.42-2,5.42-4.55Zm0-2.27v-7.43a7.08,7.08,0,0,0-5.25-2.59c-3,0-5.53,2.49-5.53,6.34s2.42,6.2,5.36,6.2A8,8,0,0,0,722.85,247.09Z"/></svg>