<svg id="Lock_up" data-name="Lock up" xmlns="http://www.w3.org/2000/svg" viewBox="0 0 306.82 245.57"><defs><style>.cls-1{fill:#e86100;}</style></defs><path class="cls-1" d="M86.6,189c0,3.18,0,7.14-4.9,9.35a22.77,22.77,0,0,1-9.1,1.69c-4.41,0-7.86-.85-10.56-2.61-3.44-2.21-3.72-5.06-3.76-9.15V165.2H52.46v22.87c0,4.16,0,9.33,5.7,13.26,3.63,2.53,8.33,3.76,14.38,3.76,5.81,0,10.48-1.13,13.89-3.37,6-3.87,6-9.24,6-13.15V165.2H86.6Z"/><path class="cls-1" d="M251.41,176.72a10.71,10.71,0,0,0-3.49-8.37c-3.38-3-7.55-3.11-10.9-3.15H210.53v39h5.82V188.7h18.42l13,15.39.05.06h7.54l-14.29-16.37C244.22,187.25,251.41,185.76,251.41,176.72Zm-6,.23a6.37,6.37,0,0,1-1.29,4c-2.26,3-6.28,3-8.93,3H216.35v-14h21.17c2.53.05,5.13.32,6.8,3A7.4,7.4,0,0,1,245.45,177Z"/><path class="cls-1" d="M301.29,165.2v27.23c0,.6,0,2.53.28,4.84-1.66-2.08-2.91-3.39-3.84-4.36s-25.82-27.39-26.07-27.66l-.05-.05h-5.84v39h5.53v-26c0-.93,0-3.94-.21-6.22.78,1,2.1,2.53,2.73,3.2l27.38,29,.06.05h5.56v-39Z"/><path class="cls-1" d="M140.29,183.09c4.29-1.64,4.63-6.26,4.63-7.68a9.65,9.65,0,0,0-1.95-6.06c-3-3.83-7.94-4.15-12.7-4.15h-25v39h25c4.24,0,9.52,0,13.08-3a10.26,10.26,0,0,0,3.49-7.95A10.78,10.78,0,0,0,140.29,183.09Zm-4-2.36a10.53,10.53,0,0,1-5.13.85h-20V169.94h19.1c1.85,0,4.38,0,6.27,1.19a5.45,5.45,0,0,1,2.48,4.66A5.58,5.58,0,0,1,136.28,180.73Zm-25.17,5.59H132c2,0,4.64,0,6.62,1.54l.07,0a6.6,6.6,0,0,1,.14,9.65c-2,1.7-4.53,1.84-6.94,1.84H111.11Z"/><path class="cls-1" d="M26.09,165.2h-6L0,204.15H6.45l4.68-9.46H34.75l4.68,9.46h6.62ZM13.56,189.94l9.49-19.19,9.21,19.19Z"/><path class="cls-1" d="M191.84,189c0,3.18,0,7.14-4.9,9.35a22.81,22.81,0,0,1-9.1,1.69c-4.41,0-7.87-.85-10.57-2.61-3.43-2.21-3.71-5.06-3.75-9.15V165.2H157.7v22.87c0,4.16,0,9.33,5.7,13.26,3.62,2.53,8.33,3.76,14.38,3.76,5.81,0,10.48-1.13,13.89-3.37,6-3.87,6-9.24,6-13.15V165.2h-5.82Z"/><path class="cls-1" d="M121.22,94.21c8.29,6.2,25.61,6.81,32,6.81s23.75-.61,32-6.81H166.57V74.93H178l-5.18-9.18H133.72l-5.18,9.18h11.4V94.21Zm9.53-20.57,3.72-6.6H172l3.72,6.6H165.28V95.5h15.05c-9.16,3.94-23.2,4.23-27.08,4.23s-17.91-.29-27.07-4.23h15V73.64Z"/><path class="cls-1" d="M144.88,46h16.75L153.25,31.1Zm2.21-1.3,6.16-10.92,6.17,10.92Z"/><path class="cls-1" d="M185.12,35.67l5.36,9.5v-9.5Zm4.07,4.58L187.33,37h1.86Z"/><path class="cls-1" d="M224.25,37.61V16H178.88v4.66L167.23,0H139.28L127.63,20.66V16H82.26V37.61h8.62v36H82.67V95.5h8.71c2.16,10.44,12.93,28.8,61.87,28.8S213,105.94,215.13,95.5h8.71V73.64h-8.21v-36Zm-1.71,37.32V94.21h-8.49c-1.57,9.77-11,28.8-60.8,28.8S94,104,92.45,94.21H84V74.93h8.2V36.32H83.55v-19h42.79v8.29L140,1.29h26.45l13.69,24.29V17.29H223v19h-8.62V74.93Z"/><path class="cls-1" d="M121.39,35.67H116v9.51ZM117.32,37h1.86l-1.86,3.3Z"/><polygon class="cls-1" points="219.06 21.19 184.07 21.19 184.07 32.42 193.73 32.42 193.73 49.63 208 74.93 210.44 74.93 210.44 32.42 219.06 32.42 219.06 21.19"/><path class="cls-1" d="M153.25,104.92c-13.63,0-30.88-2.24-37.6-10.71H96.39c2.34,12.94,18.27,24.91,56.86,24.91s54.52-12,56.87-24.91H190.86C184.14,102.68,166.89,104.92,153.25,104.92Z"/><polygon class="cls-1" points="96.07 74.93 98.51 74.93 112.78 49.63 112.78 32.42 122.44 32.42 122.44 21.19 87.45 21.19 87.45 32.42 96.07 32.42 96.07 74.93"/><path class="cls-1" d="M215.69,104.83a3.3,3.3,0,1,0,3.29,3.29A3.29,3.29,0,0,0,215.69,104.83Zm0,5.88a2.59,2.59,0,1,1,2.59-2.59A2.59,2.59,0,0,1,215.69,110.71Z"/><path class="cls-1" d="M217,107.36a1.12,1.12,0,0,0-1.12-1.12h-1.59V110H215v-1.53h.51l.71,1.53H217l-.74-1.59A1.12,1.12,0,0,0,217,107.36Zm-1.12.41H215V107h.88a.41.41,0,0,1,.41.41A.41.41,0,0,1,215.92,107.77Z"/><path class="cls-1" d="M164.2,5.19H142.31L100.79,78.83H87.86V90.32H136V78.83H121.87l9.57-17h43.63l9.57,17H170.47V90.32h48.18V78.83H205.72Zm-26,44.65,15-26.68L168.3,49.84Z"/><path class="cls-1" d="M55.91,235.91H48v6.84H61.82v2.31H45.38V225.47H61.13v2.31H48v5.82h7.92Z"/><path class="cls-1" d="M83.6,225.47v19.59H81.23L68.78,230h0v15H66.14V225.47h2.37L81,240.5h0v-15Z"/><path class="cls-1" d="M106.07,229.88a10.74,10.74,0,0,0-7-2.61,8,8,0,1,0,.24,16,10.78,10.78,0,0,0,6.33-1.92v-4.65H99.32v-2.31h8.73v8.22a15.09,15.09,0,0,1-8.85,3c-6.15,0-10.86-4.62-10.86-10.32A10.47,10.47,0,0,1,99.08,225a13.8,13.8,0,0,1,8.79,3.3Z"/><path class="cls-1" d="M113.72,245.06V225.47h2.61v19.59Z"/><path class="cls-1" d="M140.3,225.47v19.59h-2.37l-12.45-15h0v15h-2.61V225.47h2.37l12.45,15h0v-15Z"/><path class="cls-1" d="M157.34,235.91h-7.92v6.84h13.83v2.31H146.81V225.47h15.75v2.31H149.42v5.82h7.92Z"/><path class="cls-1" d="M178.1,235.91h-7.92v6.84H184v2.31H167.57V225.47h15.75v2.31H170.18v5.82h7.92Z"/><path class="cls-1" d="M188.33,245.06V225.47h10.8a7.12,7.12,0,0,1,5.49,2,5.5,5.5,0,0,1,1.5,3.84,5.69,5.69,0,0,1-4.56,5.46l4.83,8.31h-3l-4.5-8h-8v8Zm2.61-17.28v7h8.85a3.59,3.59,0,0,0,3.75-3.51,3.33,3.33,0,0,0-.93-2.28,4.56,4.56,0,0,0-3.48-1.2Z"/><path class="cls-1" d="M211.25,245.06V225.47h2.61v19.59Z"/><path class="cls-1" d="M237.83,225.47v19.59h-2.37L223,230h0v15h-2.61V225.47h2.37l12.45,15h0v-15Z"/><path class="cls-1" d="M260.3,229.88a10.74,10.74,0,0,0-7-2.61,8,8,0,1,0,.24,16,10.78,10.78,0,0,0,6.33-1.92v-4.65h-6.36v-2.31h8.73v8.22a15.09,15.09,0,0,1-8.85,3c-6.15,0-10.86-4.62-10.86-10.32A10.47,10.47,0,0,1,253.31,225a13.8,13.8,0,0,1,8.79,3.3Z"/></svg>