<?xml version="1.0" encoding="utf-8"?>
<!-- Generator: Adobe Illustrator 26.2.1, SVG Export Plug-In . SVG Version: 6.00 Build 0)  -->
<svg version="1.1" xmlns="http://www.w3.org/2000/svg" xmlns:xlink="http://www.w3.org/1999/xlink" x="0px" y="0px"
	 viewBox="0 0 535.72 178.03" style="enable-background:new 0 0 535.72 178.03;" xml:space="preserve">
<style type="text/css">
	.st0{fill:#E86100;}
	.st1{fill:#0B2341;}
	.st2{fill:#FFFFFF;}
	.st3{fill:#231F20;}
	.st4{display:none;}
	.st5{display:inline;}
	.st6{display:inline;fill:none;}
	.st7{display:inline;fill:#FFFFFF;}
	.st8{font-family:'UtopiaStd-Italic';}
	.st9{font-size:28px;}
	.st10{font-family:'SweetSansPro-Regular';}
	.st11{font-size:30px;}
</style>
<g id="lowercase">
	<g id="AU_PMS_00000104675483996526117630000012275834543880109209_">
		<g>
			<path class="st2" d="M46.93,41.68h25.83l-12.91-22.9L46.93,41.68z M52.65,38.33l7.19-12.75l7.19,12.75H52.65z"/>
			<g>
				<path class="st2" d="M119.68,30.07V13.74H82.95v7.11L71.19,0h-22.7L36.73,20.85v-7.11H0v16.33h7.4v33.15H0.36v16.55h7.29
					c1.35,8.39,9.48,24.72,52.19,24.72c42.71,0,50.85-16.34,52.19-24.72h7.29V63.22h-7.05V30.07H119.68z M3.35,26.72v-9.64h30.04
					v9.64h-8.29v14.77L12.84,63.22h-2.1v-36.5H3.35z M31.53,30.07l-3.1,5.49v-5.49H31.53z M59.84,101.15
					c-33.13,0-46.8-10.28-48.82-21.38h16.54c5.77,7.27,20.58,9.19,32.28,9.19c11.7,0,26.51-1.92,32.28-9.19h16.54
					C106.64,90.87,92.97,101.15,59.84,101.15 M38.62,63.22l4.44-7.88h33.55l4.44,7.88h-9.78v16.55h16.07
					c-7.12,5.32-21.99,5.85-27.5,5.85c-5.52,0-20.39-0.53-27.5-5.85h16.07V63.22H38.62z M115.98,66.56v9.86H74.62v-9.86h12.17
					l-8.22-14.57H41.11L32.9,66.56h12.16v9.86H3.7v-9.86h11.1L50.44,3.34h18.8l35.64,63.22H115.98z M88.15,30.07h3.1v5.49
					L88.15,30.07z M108.94,26.72v36.5h-2.1L94.59,41.49V26.72h-8.29v-9.64h30.04v9.64H108.94z"/>
				<path class="st0" d="M59.84,88.96c-11.7,0-26.51-1.92-32.28-9.19H11.02c2.01,11.1,15.69,21.38,48.82,21.38
					c33.13,0,46.8-10.28,48.82-21.38H92.12C86.35,87.04,71.54,88.96,59.84,88.96"/>
				<polygon class="st0" points="10.74,63.22 12.84,63.22 25.09,41.49 25.09,26.72 33.39,26.72 33.39,17.08 3.34,17.08 3.34,26.72 
					10.74,26.72 				"/>
				<polygon class="st0" points="86.29,17.08 86.29,26.72 94.59,26.72 94.59,41.49 106.84,63.22 108.94,63.22 108.94,26.72 
					116.33,26.72 116.33,17.08 				"/>
				<path class="st0" d="M45.06,66.56H32.9l8.22-14.57h37.45l8.22,14.57H74.62v9.86h41.36v-9.86h-11.1L69.24,3.34h-18.8L14.8,66.56
					H3.7v9.86h41.36V66.56z M59.84,18.78l12.91,22.9H46.93L59.84,18.78z"/>
				<path class="st0" d="M113.44,88.88c-1.56,0-2.83,1.27-2.83,2.83c0,1.56,1.27,2.83,2.83,2.83c1.56,0,2.83-1.27,2.83-2.83
					C116.27,90.15,115,88.88,113.44,88.88 M113.44,93.93c-1.23,0-2.22-1-2.22-2.22c0-1.23,1-2.22,2.22-2.22c1.23,0,2.22,1,2.22,2.22
					C115.66,92.94,114.66,93.93,113.44,93.93"/>
				<path class="st0" d="M114.6,91.06c0-0.53-0.43-0.96-0.96-0.96h-1.36v3.23h0.61v-1.31h0.44l0.61,1.31h0.67l-0.64-1.37
					C114.33,91.83,114.6,91.47,114.6,91.06 M113.64,91.41h-0.76v-0.7h0.76c0.2,0,0.35,0.16,0.35,0.35
					C113.99,91.25,113.83,91.41,113.64,91.41"/>
			</g>
		</g>
	</g>
	<g>
		<path class="st2" d="M374.45,34.81h6.34v26.87c0,4.49,0,10.64-6.84,15.07c-3.92,2.56-9.3,3.86-15.98,3.86
			c-6.97,0-12.38-1.41-16.55-4.32c-6.52-4.5-6.52-10.42-6.52-15.19v-26.3h6.34v26.56c0.04,4.81,0.38,8.15,4.44,10.77
			c3.16,2.06,7.2,3.06,12.34,3.06c4.03,0,7.91-0.72,10.63-1.98c5.79-2.61,5.79-7.27,5.79-11.01V34.81z"/>
		<path class="st2" d="M252.55,34.81h6.34v26.87c0,4.49,0,10.64-6.85,15.07c-3.92,2.56-9.29,3.86-15.98,3.86
			c-6.97,0-12.38-1.41-16.55-4.32c-6.52-4.5-6.52-10.42-6.52-15.19v-26.3h6.34v26.56c0.04,4.81,0.38,8.15,4.44,10.77
			c3.16,2.06,7.2,3.06,12.34,3.06c4.03,0,7.91-0.72,10.63-1.98c5.79-2.61,5.79-7.27,5.79-11.01V34.81z"/>
		<path class="st2" d="M402.29,56.54V39.91h24.87c2.82,0.06,6.04,0.32,8.04,3.52c0.86,1.31,1.34,2.99,1.34,4.8
			c0,1.87-0.51,3.47-1.54,4.78c-2.59,3.45-7.16,3.54-10.5,3.54H402.29z M430.95,60.62c3.38-0.56,12.12-2.06,12.12-12.67
			c0-5.3-2.49-8.26-3.98-9.55c-3.84-3.45-8.61-3.54-12.5-3.59h-30.48v44.72h6.26v-17.9h21.72l15.17,17.9h8.2L430.95,60.62z"/>
		<path class="st2" d="M506.93,34.81v44.72h-6.15l-31.72-33.56c-0.87-0.92-2.85-3.28-3.58-4.23c0.28,2.54,0.31,6.28,0.31,7.87v29.92
			h-6V34.81h6.47c0,0,29.19,30.98,30.2,32.04c1.23,1.3,2.78,2.93,4.87,5.58c-0.33-3.02-0.4-5.59-0.4-6.27c0-1.73,0-31.35,0-31.35
			H506.93z"/>
		<path class="st2" d="M312.99,72.25c-2.38,2-5.34,2.19-8.16,2.19h-24.36V58.88h24.36c2.33,0,5.51-0.04,7.91,1.82l0.09,0.06
			c0.64,0.54,2.57,2.21,2.57,5.79C315.41,68.94,314.6,70.86,312.99,72.25 M280.48,39.91h22.39c2.29,0,5.15,0.02,7.37,1.41
			c1.35,0.92,2.96,2.63,2.96,5.57c0,1.99-0.84,4.6-3.21,5.89c-1.78,1.02-4.05,1.02-6.04,1.02h-23.47V39.91z M313.96,55.33
			c5.31-1.66,5.75-7.15,5.75-8.89c0-2.67-0.75-4.98-2.22-6.9c-3.45-4.36-9.08-4.72-14.56-4.72h-28.72v44.72h28.72
			c4.88,0,10.96,0,15.02-3.42c2.52-2.12,3.98-5.41,3.98-9.04C321.93,62.85,319.81,57.41,313.96,55.33"/>
		<path class="st2" d="M167.78,63.47l11.33-22.89l10.99,22.89H167.78z M182.5,34.81h-6.67l-23.09,44.72h7.01l5.42-10.97h27.62
			l5.42,10.97h7.21L182.5,34.81z"/>
	</g>
	<g>
		<path class="st2" d="M171.69,110.06c-1.37-1.23-4.27-2.84-8.47-2.84c-2.94,0-5.95,1.05-5.95,3.92c0,2.94,3.78,3.08,7.49,3.29
			c3.99,0.28,10.43,0.67,10.43,6.79c0,5.32-4.73,7.46-10.22,7.46c-5.81,0-9.52-2.42-12.01-4.69l1.85-2.1
			c1.93,1.79,5.11,4.2,10.22,4.2c3.89,0,7.11-1.4,7.11-4.48c0-3.43-3.5-3.96-7.39-4.24c-4.94-0.32-10.54-0.67-10.54-5.95
			c0-5.22,5.01-6.79,9.1-6.79c4.73,0,8.44,1.89,10.19,3.33L171.69,110.06z"/>
		<path class="st2" d="M180.09,113.28c1.47-0.91,4.24-2.13,7.56-2.13c3.61,0,7.39,1.22,7.39,4.87v9.1c0,0.88,0.07,2.1,0.52,2.97
			h-2.83c-0.32-0.59-0.46-1.58-0.49-2.31c-1.26,1.15-3.47,2.66-6.83,2.66c-4.03,0-6.55-2.35-6.55-5.64c0-2.98,2.7-5.39,7.56-5.39
			c2.03,0,4.52,0.49,5.81,1.71v-2.34c0-2.31-2.21-3.26-4.69-3.26c-2.7,0-5.29,1.19-6.44,2.03L180.09,113.28z M192.24,123.43v-2.07
			c-0.95-1.05-3.12-1.75-5.36-1.75c-3.71,0-5.18,1.4-5.18,3.19c0,1.82,1.51,3.29,4.27,3.29
			C189.4,126.09,191.92,123.85,192.24,123.43z"/>
		<path class="st2" d="M201.4,128.09v-12.25c0-1.37-0.14-2.73-0.46-4.17h2.56c0.25,0.88,0.35,1.54,0.38,2.48
			c1.26-1.5,2.87-3.01,5.53-3.01c2.56,0,4.52,1.4,5.43,3.33c1.19-1.71,3.04-3.33,5.71-3.33c3.33,0,5.88,2.42,5.88,5.81v11.13h-2.83
			v-11.13c0-1.86-1.44-3.36-3.5-3.36c-2.1,0-3.71,1.47-4.8,2.8v11.69h-2.8V116.5c-0.18-1.54-1.47-2.91-3.5-2.91
			c-2.14,0-3.75,1.47-4.8,2.8v11.69H201.4z"/>
		<path class="st2" d="M247.32,111.67v12.22c0,1.33,0,2.77,0.28,4.2h-2.56c-0.18-0.77-0.25-1.75-0.25-2.52
			c-1.37,1.5-3.12,3.01-6.02,3.01c-3.61,0-6.37-2.42-6.37-5.78v-11.13h2.84v11.13c0,1.86,1.65,3.33,3.96,3.33
			c2.38,0,4.13-1.44,5.32-2.77v-11.69H247.32z"/>
		<path class="st2" d="M269.06,125.5c-1.79,1.71-4.69,3.08-8.02,3.08c-5.32,0-8.44-3.85-8.44-8.54c0-4.97,3.64-8.89,8.68-8.89
			c3.89,0,8.23,2.42,8.26,8.26c0,0.25,0,0.56-0.04,0.84h-14.11c0.1,3.22,2.17,5.85,5.92,5.85c2.35,0,4.48-0.98,5.88-2.42
			L269.06,125.5z M255.62,118.04h10.85c-0.07-3.08-2.83-4.55-5.32-4.55C258.21,113.49,256.25,115.49,255.62,118.04z"/>
		<path class="st2" d="M274.9,128.09v-24.5h2.8v24.5H274.9z"/>
		<path class="st2" d="M311.93,110.38c-2.03-1.89-5.25-3.04-8.12-3.04c-5.43,0-9.38,4.2-9.38,9.35c0,4.9,3.64,9.31,9.66,9.31
			c2.7,0,5.64-0.84,7.39-2.24v-5.43h-7.42v-2.7h10.19v9.59c-2.77,2.14-6.69,3.47-10.33,3.47c-7.18,0-12.67-5.39-12.67-12.04
			c0-6.65,5.53-12.01,12.53-12.01c3.61,0,7.32,1.37,10.26,3.85L311.93,110.38z"/>
		<path class="st2" d="M322.12,103.97c1.05,0,1.85,0.77,1.85,1.68c0,0.95-0.81,1.68-1.85,1.68c-1.05,0-1.82-0.74-1.82-1.68
			C320.3,104.74,321.07,103.97,322.12,103.97z M320.75,128.09v-16.42h2.77v16.42H320.75z"/>
		<path class="st2" d="M330.06,128.09v-12.25c0-1.33-0.14-2.73-0.46-4.17h2.56c0.25,0.88,0.35,1.58,0.38,2.52
			c1.37-1.5,3.15-3.04,6.06-3.04c3.61,0,6.34,2.42,6.34,5.81v11.13h-2.8v-11.13c0-1.86-1.65-3.36-3.96-3.36
			c-2.42,0-4.13,1.47-5.32,2.8v11.69H330.06z"/>
		<path class="st2" d="M351.27,128.09v-12.25c0-1.33-0.14-2.73-0.46-4.17h2.56c0.25,0.88,0.35,1.58,0.38,2.52
			c1.37-1.5,3.15-3.04,6.06-3.04c3.61,0,6.34,2.42,6.34,5.81v11.13h-2.8v-11.13c0-1.86-1.65-3.36-3.96-3.36
			c-2.42,0-4.13,1.47-5.32,2.8v11.69H351.27z"/>
		<path class="st2" d="M176.87,166.13c-2.49,2.45-6.27,4.55-10.96,4.55c-7.39,0-12.57-5.39-12.57-12.04
			c0-6.58,5.18-12.01,12.43-12.01c4.1,0,7.95,1.58,10.47,3.92l-2.06,2.03c-2.1-2-5.32-3.25-8.33-3.25c-5.46,0-9.31,4.24-9.31,9.35
			c0,5.15,3.89,9.31,9.42,9.31c3.64,0,6.79-1.68,8.89-3.85L176.87,166.13z"/>
		<path class="st2" d="M188.84,153.15c5.15,0,8.82,3.85,8.82,8.68c0,4.9-3.68,8.75-8.82,8.75c-5.11,0-8.79-3.85-8.79-8.75
			C180.05,157,183.73,153.15,188.84,153.15z M188.84,168.23c3.57,0,5.95-2.91,5.95-6.41c0-3.4-2.38-6.34-5.95-6.34
			c-3.54,0-5.88,2.94-5.88,6.34C182.96,165.33,185.3,168.23,188.84,168.23z"/>
		<path class="st2" d="M203.12,170.09v-24.5h2.8v24.5H203.12z"/>
		<path class="st2" d="M212.88,170.09v-24.5h2.8v24.5H212.88z"/>
		<path class="st2" d="M237.63,167.5c-1.79,1.71-4.69,3.08-8.02,3.08c-5.32,0-8.44-3.85-8.44-8.54c0-4.97,3.64-8.89,8.68-8.89
			c3.89,0,8.23,2.42,8.26,8.26c0,0.25,0,0.56-0.04,0.84h-14.11c0.1,3.22,2.17,5.85,5.92,5.85c2.35,0,4.48-0.98,5.88-2.42
			L237.63,167.5z M224.19,160.04h10.85c-0.07-3.08-2.83-4.55-5.32-4.55C226.78,155.49,224.82,157.49,224.19,160.04z"/>
		<path class="st2" d="M255.9,167.88c-1.65,1.71-3.64,2.7-5.67,2.7c-4.45,0-8.19-3.43-8.19-8.65c0-5.32,3.78-8.79,8.37-8.79
			c2.8,0,4.97,1.92,5.74,3.04c0-0.84,0.1-1.71,0.35-2.55h2.59c-0.35,1.43-0.39,2.87-0.39,4.2v13.3c0,3.78-2.8,6.9-8.23,6.9
			c-3.75,0-5.99-1.26-7.46-2.84l1.68-1.64c1.16,1.19,2.87,2.13,5.78,2.13c3.57,0,5.43-2,5.43-4.55V167.88z M255.9,165.61v-7.42
			c-0.6-0.73-2.49-2.59-5.25-2.59c-3.01,0-5.53,2.49-5.53,6.34c0,3.75,2.42,6.2,5.36,6.2C252.4,168.13,254.32,167.15,255.9,165.61z"
			/>
		<path class="st2" d="M280.4,167.5c-1.79,1.71-4.69,3.08-8.02,3.08c-5.32,0-8.44-3.85-8.44-8.54c0-4.97,3.64-8.89,8.68-8.89
			c3.89,0,8.23,2.42,8.26,8.26c0,0.25,0,0.56-0.04,0.84h-14.11c0.1,3.22,2.17,5.85,5.92,5.85c2.35,0,4.48-0.98,5.88-2.42
			L280.4,167.5z M266.96,160.04h10.85c-0.07-3.08-2.83-4.55-5.32-4.55C269.55,155.49,267.59,157.49,266.96,160.04z"/>
		<path class="st2" d="M301.43,153.15c5.15,0,8.82,3.85,8.82,8.68c0,4.9-3.68,8.75-8.82,8.75c-5.11,0-8.79-3.85-8.79-8.75
			C292.65,157,296.32,153.15,301.43,153.15z M301.43,168.23c3.57,0,5.95-2.91,5.95-6.41c0-3.4-2.38-6.34-5.95-6.34
			c-3.54,0-5.88,2.94-5.88,6.34C295.55,165.33,297.9,168.23,301.43,168.23z"/>
		<path class="st2" d="M316.62,153.67v-3.36c0-3.82,2.63-5.11,4.87-5.11c1.33,0,3.01,0.42,3.78,1.05l-0.56,2.28
			c-0.56-0.49-1.86-0.84-2.7-0.84c-1.44,0-2.59,0.81-2.59,2.63v3.36h4.83v2.17h-4.83v14.25h-2.8v-14.25h-3.22v-2.17H316.62z"/>
		<path class="st2" d="M349,159.41h-9.24v7.98h16.14v2.7h-19.18v-22.86h18.38v2.7h-15.33v6.79H349V159.41z"/>
		<path class="st2" d="M360.3,170.09v-12.25c0-1.33-0.14-2.73-0.46-4.17h2.56c0.25,0.88,0.35,1.58,0.38,2.52
			c1.37-1.5,3.15-3.04,6.06-3.04c3.61,0,6.34,2.42,6.34,5.81v11.13h-2.8v-11.13c0-1.86-1.65-3.36-3.96-3.36
			c-2.42,0-4.13,1.47-5.32,2.8v11.69H360.3z"/>
		<path class="st2" d="M394.11,167.88c-1.65,1.71-3.64,2.7-5.67,2.7c-4.45,0-8.19-3.43-8.19-8.65c0-5.32,3.78-8.79,8.37-8.79
			c2.8,0,4.97,1.92,5.74,3.04c0-0.84,0.1-1.71,0.35-2.55h2.59c-0.35,1.43-0.39,2.87-0.39,4.2v13.3c0,3.78-2.8,6.9-8.23,6.9
			c-3.75,0-5.99-1.26-7.46-2.84l1.68-1.64c1.16,1.19,2.87,2.13,5.78,2.13c3.57,0,5.43-2,5.43-4.55V167.88z M394.11,165.61v-7.42
			c-0.6-0.73-2.49-2.59-5.25-2.59c-3.01,0-5.53,2.49-5.53,6.34c0,3.75,2.42,6.2,5.36,6.2C390.61,168.13,392.54,167.15,394.11,165.61
			z"/>
		<path class="st2" d="M404.79,145.97c1.05,0,1.85,0.77,1.85,1.68c0,0.95-0.81,1.68-1.85,1.68c-1.05,0-1.82-0.74-1.82-1.68
			C402.97,146.74,403.74,145.97,404.79,145.97z M403.42,170.09v-16.42h2.77v16.42H403.42z"/>
		<path class="st2" d="M412.73,170.09v-12.25c0-1.33-0.14-2.73-0.46-4.17h2.56c0.25,0.88,0.35,1.58,0.38,2.52
			c1.37-1.5,3.15-3.04,6.06-3.04c3.61,0,6.34,2.42,6.34,5.81v11.13h-2.8v-11.13c0-1.86-1.65-3.36-3.96-3.36
			c-2.42,0-4.13,1.47-5.32,2.8v11.69H412.73z"/>
		<path class="st2" d="M449.1,167.5c-1.79,1.71-4.69,3.08-8.02,3.08c-5.32,0-8.44-3.85-8.44-8.54c0-4.97,3.64-8.89,8.68-8.89
			c3.89,0,8.23,2.42,8.26,8.26c0,0.25,0,0.56-0.04,0.84h-14.11c0.1,3.22,2.17,5.85,5.92,5.85c2.35,0,4.48-0.98,5.88-2.42
			L449.1,167.5z M435.65,160.04h10.85c-0.07-3.08-2.83-4.55-5.32-4.55C438.25,155.49,436.29,157.49,435.65,160.04z"/>
		<path class="st2" d="M469.92,167.5c-1.79,1.71-4.69,3.08-8.02,3.08c-5.32,0-8.44-3.85-8.44-8.54c0-4.97,3.64-8.89,8.68-8.89
			c3.89,0,8.23,2.42,8.26,8.26c0,0.25,0,0.56-0.04,0.84h-14.11c0.1,3.22,2.17,5.85,5.92,5.85c2.35,0,4.48-0.98,5.88-2.42
			L469.92,167.5z M456.48,160.04h10.85c-0.07-3.08-2.83-4.55-5.32-4.55C459.07,155.49,457.11,157.49,456.48,160.04z"/>
		<path class="st2" d="M475.59,170.09v-12.25c0-1.37-0.14-2.73-0.49-4.17h2.59c0.25,0.94,0.35,1.75,0.38,2.83
			c1.12-1.68,2.59-3.36,5.01-3.36c1.02,0,2,0.28,2.49,0.84l-0.91,2.56c-0.49-0.42-1.58-0.67-2.21-0.67c-1.79,0-3.08,1.61-4.06,3.01
			v11.2H475.59z"/>
		<path class="st2" d="M490.78,145.97c1.05,0,1.85,0.77,1.85,1.68c0,0.95-0.81,1.68-1.85,1.68c-1.05,0-1.82-0.74-1.82-1.68
			C488.96,146.74,489.73,145.97,490.78,145.97z M489.41,170.09v-16.42h2.77v16.42H489.41z"/>
		<path class="st2" d="M498.72,170.09v-12.25c0-1.33-0.14-2.73-0.46-4.17h2.56c0.25,0.88,0.35,1.58,0.38,2.52
			c1.37-1.5,3.15-3.04,6.06-3.04c3.61,0,6.34,2.42,6.34,5.81v11.13h-2.8v-11.13c0-1.86-1.65-3.36-3.96-3.36
			c-2.42,0-4.13,1.47-5.32,2.8v11.69H498.72z"/>
		<path class="st2" d="M532.53,167.88c-1.65,1.71-3.64,2.7-5.67,2.7c-4.45,0-8.19-3.43-8.19-8.65c0-5.32,3.78-8.79,8.37-8.79
			c2.8,0,4.97,1.92,5.74,3.04c0-0.84,0.1-1.71,0.35-2.55h2.59c-0.35,1.43-0.39,2.87-0.39,4.2v13.3c0,3.78-2.8,6.9-8.23,6.9
			c-3.75,0-5.99-1.26-7.46-2.84l1.68-1.64c1.16,1.19,2.87,2.13,5.78,2.13c3.57,0,5.43-2,5.43-4.55V167.88z M532.53,165.61v-7.42
			c-0.6-0.73-2.49-2.59-5.25-2.59c-3.01,0-5.53,2.49-5.53,6.34c0,3.75,2.42,6.2,5.36,6.2C529.03,168.13,530.96,167.15,532.53,165.61
			z"/>
	</g>
</g>
<g id="hybrid" class="st4">
	<g id="AU_PMS_00000163047394676666397380000008489870959220496799_" class="st5">
		<g>
			<path class="st2" d="M46.75,62.9h25.83L59.66,40L46.75,62.9z M52.47,59.56l7.19-12.75l7.19,12.75H52.47z"/>
			<g>
				<path class="st2" d="M119.5,51.29V34.96H82.77v7.11L71.01,21.22h-22.7L36.55,42.07v-7.11H-0.18v16.33h7.4v33.15H0.18v16.55h7.29
					c1.35,8.39,9.48,24.72,52.19,24.72c42.71,0,50.85-16.34,52.19-24.72h7.29V84.44h-7.05V51.29H119.5z M3.17,47.94V38.3h30.04v9.64
					h-8.29v14.77L12.66,84.44h-2.1v-36.5H3.17z M31.35,51.29l-3.1,5.49v-5.49H31.35z M59.66,122.37c-33.13,0-46.8-10.28-48.82-21.38
					h16.54c5.77,7.27,20.58,9.19,32.28,9.19c11.7,0,26.51-1.92,32.28-9.19h16.54C106.46,112.09,92.79,122.37,59.66,122.37
					 M38.44,84.44l4.44-7.88h33.55l4.44,7.88h-9.78v16.55h16.07c-7.12,5.32-21.99,5.85-27.5,5.85c-5.52,0-20.39-0.53-27.5-5.85
					h16.07V84.44H38.44z M115.8,87.78v9.86H74.44v-9.86H86.6l-8.22-14.57H40.93l-8.22,14.57h12.16v9.86H3.52v-9.86h11.1l35.65-63.22
					h18.8l35.64,63.22H115.8z M87.97,51.29h3.1v5.49L87.97,51.29z M108.76,47.94v36.5h-2.1L94.41,62.71V47.94h-8.29V38.3h30.04v9.64
					H108.76z"/>
				<path class="st0" d="M59.66,110.18c-11.7,0-26.51-1.92-32.28-9.19H10.84c2.01,11.1,15.69,21.38,48.82,21.38
					c33.13,0,46.8-10.28,48.82-21.38H91.94C86.17,108.26,71.36,110.18,59.66,110.18"/>
				<polygon class="st0" points="10.56,84.44 12.66,84.44 24.91,62.71 24.91,47.94 33.21,47.94 33.21,38.3 3.17,38.3 3.17,47.94 
					10.56,47.94 				"/>
				<polygon class="st0" points="86.11,38.3 86.11,47.94 94.41,47.94 94.41,62.71 106.66,84.44 108.76,84.44 108.76,47.94 
					116.15,47.94 116.15,38.3 				"/>
				<path class="st0" d="M44.88,87.78H32.72l8.22-14.57h37.45l8.22,14.57H74.44v9.86h41.36v-9.86h-11.1L69.06,24.57h-18.8
					L14.62,87.78H3.52v9.86h41.36V87.78z M59.66,40l12.91,22.9H46.75L59.66,40z"/>
				<path class="st0" d="M113.26,110.1c-1.56,0-2.83,1.27-2.83,2.83c0,1.56,1.27,2.83,2.83,2.83c1.56,0,2.83-1.27,2.83-2.83
					C116.09,111.37,114.82,110.1,113.26,110.1 M113.26,115.15c-1.23,0-2.22-1-2.22-2.22c0-1.23,1-2.22,2.22-2.22
					c1.23,0,2.22,1,2.22,2.22C115.48,114.16,114.49,115.15,113.26,115.15"/>
				<path class="st0" d="M114.42,112.28c0-0.53-0.43-0.96-0.96-0.96h-1.36v3.23h0.61v-1.31h0.44l0.61,1.31h0.67l-0.64-1.37
					C114.15,113.05,114.42,112.69,114.42,112.28 M113.46,112.63h-0.76v-0.7h0.76c0.2,0,0.35,0.16,0.35,0.35
					C113.81,112.47,113.66,112.63,113.46,112.63"/>
			</g>
		</g>
	</g>
	<g class="st5">
		<path class="st2" d="M374.27,56.03h6.34v26.87c0,4.49,0,10.64-6.84,15.07c-3.92,2.56-9.3,3.86-15.98,3.86
			c-6.97,0-12.38-1.41-16.55-4.32c-6.52-4.5-6.52-10.42-6.52-15.19v-26.3h6.34v26.56c0.04,4.81,0.38,8.15,4.44,10.77
			c3.16,2.06,7.2,3.06,12.34,3.06c4.03,0,7.91-0.72,10.63-1.98c5.79-2.61,5.79-7.27,5.79-11.01V56.03z"/>
		<path class="st2" d="M252.37,56.03h6.34v26.87c0,4.49,0,10.64-6.85,15.07c-3.92,2.56-9.29,3.86-15.98,3.86
			c-6.97,0-12.38-1.41-16.55-4.32c-6.52-4.5-6.52-10.42-6.52-15.19v-26.3h6.34v26.56c0.04,4.81,0.38,8.15,4.44,10.77
			c3.16,2.06,7.2,3.06,12.34,3.06c4.03,0,7.91-0.72,10.63-1.98c5.79-2.61,5.79-7.27,5.79-11.01V56.03z"/>
		<path class="st2" d="M402.11,77.76V61.13h24.87c2.82,0.06,6.04,0.32,8.04,3.52c0.86,1.31,1.34,2.99,1.34,4.8
			c0,1.87-0.51,3.47-1.54,4.78c-2.59,3.45-7.16,3.54-10.5,3.54H402.11z M430.77,81.84c3.38-0.56,12.12-2.06,12.12-12.67
			c0-5.3-2.49-8.26-3.98-9.55c-3.84-3.45-8.61-3.54-12.5-3.59h-30.48v44.72h6.26v-17.9h21.72l15.17,17.9h8.2L430.77,81.84z"/>
		<path class="st2" d="M506.75,56.03v44.72h-6.15l-31.72-33.56c-0.87-0.92-2.85-3.28-3.58-4.23c0.28,2.54,0.31,6.28,0.31,7.87v29.92
			h-6V56.03h6.47c0,0,29.19,30.98,30.2,32.04c1.23,1.3,2.78,2.93,4.87,5.58c-0.33-3.02-0.4-5.59-0.4-6.27c0-1.73,0-31.35,0-31.35
			H506.75z"/>
		<path class="st2" d="M312.81,93.47c-2.38,2-5.34,2.19-8.16,2.19H280.3V80.1h24.36c2.33,0,5.51-0.04,7.91,1.82l0.09,0.06
			c0.64,0.54,2.57,2.21,2.57,5.79C315.23,90.16,314.42,92.07,312.81,93.47 M280.3,61.12h22.39c2.29,0,5.15,0.02,7.37,1.41
			c1.35,0.92,2.96,2.63,2.96,5.57c0,1.99-0.84,4.6-3.21,5.89c-1.78,1.02-4.05,1.02-6.04,1.02H280.3V61.12z M313.78,76.55
			c5.31-1.66,5.75-7.15,5.75-8.89c0-2.67-0.75-4.98-2.22-6.9c-3.45-4.36-9.08-4.72-14.56-4.72h-28.72v44.72h28.72
			c4.88,0,10.96,0,15.02-3.42c2.52-2.12,3.98-5.41,3.98-9.04C321.75,84.07,319.63,78.63,313.78,76.55"/>
		<path class="st2" d="M167.6,84.69l11.33-22.89l10.99,22.89H167.6z M182.32,56.03h-6.67l-23.09,44.72h7.01l5.42-10.97h27.62
			l5.42,10.97h7.21L182.32,56.03z"/>
	</g>
	<rect x="150.84" y="161.58" class="st6" width="729.58" height="28.11"/>
	<text transform="matrix(1 0 0 1 150.8369 181.2962)" class="st7 st8 st9">Department of Biological Sciences</text>
	<rect x="151" y="124.81" class="st6" width="729.42" height="28.26"/>
	<text transform="matrix(1 0 0 1 150.9997 145.8062)" class="st7 st10 st11">Advancement</text>
</g>
<g id="caps_copy" class="st4">
	<g id="AU_PMS_00000179619848073468956810000009544306794482793622_" class="st5">
		<g>
			<path class="st2" d="M46.75,62.9h25.83L59.66,40L46.75,62.9z M52.47,59.56l7.19-12.75l7.19,12.75H52.47z"/>
			<g>
				<path class="st2" d="M119.5,51.29V34.96H82.77v7.11L71.01,21.22h-22.7L36.55,42.07v-7.11H-0.18v16.33h7.4v33.15H0.18v16.55h7.29
					c1.35,8.39,9.48,24.72,52.19,24.72c42.71,0,50.85-16.34,52.19-24.72h7.29V84.44h-7.05V51.29H119.5z M3.17,47.94V38.3h30.04v9.64
					h-8.29v14.77L12.66,84.44h-2.1v-36.5H3.17z M31.35,51.29l-3.1,5.49v-5.49H31.35z M59.66,122.37c-33.13,0-46.8-10.28-48.82-21.38
					h16.54c5.77,7.27,20.58,9.19,32.28,9.19c11.7,0,26.51-1.92,32.28-9.19h16.54C106.46,112.09,92.79,122.37,59.66,122.37
					 M38.44,84.44l4.44-7.88h33.55l4.44,7.88h-9.78v16.55h16.07c-7.12,5.32-21.99,5.85-27.5,5.85c-5.52,0-20.39-0.53-27.5-5.85
					h16.07V84.44H38.44z M115.8,87.78v9.86H74.44v-9.86H86.6l-8.22-14.57H40.93l-8.22,14.57h12.16v9.86H3.52v-9.86h11.1l35.65-63.22
					h18.8l35.64,63.22H115.8z M87.97,51.29h3.1v5.49L87.97,51.29z M108.76,47.94v36.5h-2.1L94.41,62.71V47.94h-8.29V38.3h30.04v9.64
					H108.76z"/>
				<path class="st0" d="M59.66,110.18c-11.7,0-26.51-1.92-32.28-9.19H10.84c2.01,11.1,15.69,21.38,48.82,21.38
					c33.13,0,46.8-10.28,48.82-21.38H91.94C86.17,108.26,71.36,110.18,59.66,110.18"/>
				<polygon class="st0" points="10.56,84.44 12.66,84.44 24.91,62.71 24.91,47.94 33.21,47.94 33.21,38.3 3.17,38.3 3.17,47.94 
					10.56,47.94 				"/>
				<polygon class="st0" points="86.11,38.3 86.11,47.94 94.41,47.94 94.41,62.71 106.66,84.44 108.76,84.44 108.76,47.94 
					116.15,47.94 116.15,38.3 				"/>
				<path class="st0" d="M44.88,87.78H32.72l8.22-14.57h37.45l8.22,14.57H74.44v9.86h41.36v-9.86h-11.1L69.06,24.57h-18.8
					L14.62,87.78H3.52v9.86h41.36V87.78z M59.66,40l12.91,22.9H46.75L59.66,40z"/>
				<path class="st0" d="M113.26,110.1c-1.56,0-2.83,1.27-2.83,2.83c0,1.56,1.27,2.83,2.83,2.83c1.56,0,2.83-1.27,2.83-2.83
					C116.09,111.37,114.82,110.1,113.26,110.1 M113.26,115.15c-1.23,0-2.22-1-2.22-2.22c0-1.23,1-2.22,2.22-2.22
					c1.23,0,2.22,1,2.22,2.22C115.48,114.16,114.49,115.15,113.26,115.15"/>
				<path class="st0" d="M114.42,112.28c0-0.53-0.43-0.96-0.96-0.96h-1.36v3.23h0.61v-1.31h0.44l0.61,1.31h0.67l-0.64-1.37
					C114.15,113.05,114.42,112.69,114.42,112.28 M113.46,112.63h-0.76v-0.7h0.76c0.2,0,0.35,0.16,0.35,0.35
					C113.81,112.47,113.66,112.63,113.46,112.63"/>
			</g>
		</g>
	</g>
	<g class="st5">
		<path class="st2" d="M374.27,56.03h6.34v26.87c0,4.49,0,10.64-6.84,15.07c-3.92,2.56-9.3,3.86-15.98,3.86
			c-6.97,0-12.38-1.41-16.55-4.32c-6.52-4.5-6.52-10.42-6.52-15.19v-26.3h6.34v26.56c0.04,4.81,0.38,8.15,4.44,10.77
			c3.16,2.06,7.2,3.06,12.34,3.06c4.03,0,7.91-0.72,10.63-1.98c5.79-2.61,5.79-7.27,5.79-11.01V56.03z"/>
		<path class="st2" d="M252.37,56.03h6.34v26.87c0,4.49,0,10.64-6.85,15.07c-3.92,2.56-9.29,3.86-15.98,3.86
			c-6.97,0-12.38-1.41-16.55-4.32c-6.52-4.5-6.52-10.42-6.52-15.19v-26.3h6.34v26.56c0.04,4.81,0.38,8.15,4.44,10.77
			c3.16,2.06,7.2,3.06,12.34,3.06c4.03,0,7.91-0.72,10.63-1.98c5.79-2.61,5.79-7.27,5.79-11.01V56.03z"/>
		<path class="st2" d="M402.11,77.76V61.13h24.87c2.82,0.06,6.04,0.32,8.04,3.52c0.86,1.31,1.34,2.99,1.34,4.8
			c0,1.87-0.51,3.47-1.54,4.78c-2.59,3.45-7.16,3.54-10.5,3.54H402.11z M430.77,81.84c3.38-0.56,12.12-2.06,12.12-12.67
			c0-5.3-2.49-8.26-3.98-9.55c-3.84-3.45-8.61-3.54-12.5-3.59h-30.48v44.72h6.26v-17.9h21.72l15.17,17.9h8.2L430.77,81.84z"/>
		<path class="st2" d="M506.75,56.03v44.72h-6.15l-31.72-33.56c-0.87-0.92-2.85-3.28-3.58-4.23c0.28,2.54,0.31,6.28,0.31,7.87v29.92
			h-6V56.03h6.47c0,0,29.19,30.98,30.2,32.04c1.23,1.3,2.78,2.93,4.87,5.58c-0.33-3.02-0.4-5.59-0.4-6.27c0-1.73,0-31.35,0-31.35
			H506.75z"/>
		<path class="st2" d="M312.81,93.47c-2.38,2-5.34,2.19-8.16,2.19H280.3V80.1h24.36c2.33,0,5.51-0.04,7.91,1.82l0.09,0.06
			c0.64,0.54,2.57,2.21,2.57,5.79C315.23,90.16,314.42,92.07,312.81,93.47 M280.3,61.12h22.39c2.29,0,5.15,0.02,7.37,1.41
			c1.35,0.92,2.96,2.63,2.96,5.57c0,1.99-0.84,4.6-3.21,5.89c-1.78,1.02-4.05,1.02-6.04,1.02H280.3V61.12z M313.78,76.55
			c5.31-1.66,5.75-7.15,5.75-8.89c0-2.67-0.75-4.98-2.22-6.9c-3.45-4.36-9.08-4.72-14.56-4.72h-28.72v44.72h28.72
			c4.88,0,10.96,0,15.02-3.42c2.52-2.12,3.98-5.41,3.98-9.04C321.75,84.07,319.63,78.63,313.78,76.55"/>
		<path class="st2" d="M167.6,84.69l11.33-22.89l10.99,22.89H167.6z M182.32,56.03h-6.67l-23.09,44.72h7.01l5.42-10.97h27.62
			l5.42,10.97h7.21L182.32,56.03z"/>
	</g>
	<rect x="150.84" y="161.58" class="st6" width="729.58" height="28.11"/>
	<text transform="matrix(1 0 0 1 150.8369 181.2962)" class="st7 st8 st9">Department of Biological Sciences</text>
	<rect x="151" y="124.81" class="st6" width="729.42" height="28.26"/>
	<text transform="matrix(1 0 0 1 150.9997 145.8062)" class="st7 st10 st11">Advancement</text>
</g>
<g id="lowercase_copy" class="st4">
	<g id="AU_PMS_00000090983064831543270230000010583182083148795814_" class="st5">
		<g>
			<path class="st2" d="M46.75,62.9h25.83L59.66,40L46.75,62.9z M52.47,59.56l7.19-12.75l7.19,12.75H52.47z"/>
			<g>
				<path class="st2" d="M119.5,51.29V34.96H82.77v7.11L71.01,21.22h-22.7L36.55,42.07v-7.11H-0.18v16.33h7.4v33.15H0.18v16.55h7.29
					c1.35,8.39,9.48,24.72,52.19,24.72c42.71,0,50.85-16.34,52.19-24.72h7.29V84.44h-7.05V51.29H119.5z M3.17,47.94V38.3h30.04v9.64
					h-8.29v14.77L12.66,84.44h-2.1v-36.5H3.17z M31.35,51.29l-3.1,5.49v-5.49H31.35z M59.66,122.37c-33.13,0-46.8-10.28-48.82-21.38
					h16.54c5.77,7.27,20.58,9.19,32.28,9.19c11.7,0,26.51-1.92,32.28-9.19h16.54C106.46,112.09,92.79,122.37,59.66,122.37
					 M38.44,84.44l4.44-7.88h33.55l4.44,7.88h-9.78v16.55h16.07c-7.12,5.32-21.99,5.85-27.5,5.85c-5.52,0-20.39-0.53-27.5-5.85
					h16.07V84.44H38.44z M115.8,87.78v9.86H74.44v-9.86H86.6l-8.22-14.57H40.93l-8.22,14.57h12.16v9.86H3.52v-9.86h11.1l35.65-63.22
					h18.8l35.64,63.22H115.8z M87.97,51.29h3.1v5.49L87.97,51.29z M108.76,47.94v36.5h-2.1L94.41,62.71V47.94h-8.29V38.3h30.04v9.64
					H108.76z"/>
				<path class="st0" d="M59.66,110.18c-11.7,0-26.51-1.92-32.28-9.19H10.84c2.01,11.1,15.69,21.38,48.82,21.38
					c33.13,0,46.8-10.28,48.82-21.38H91.94C86.17,108.26,71.36,110.18,59.66,110.18"/>
				<polygon class="st0" points="10.56,84.44 12.66,84.44 24.91,62.71 24.91,47.94 33.21,47.94 33.21,38.3 3.17,38.3 3.17,47.94 
					10.56,47.94 				"/>
				<polygon class="st0" points="86.11,38.3 86.11,47.94 94.41,47.94 94.41,62.71 106.66,84.44 108.76,84.44 108.76,47.94 
					116.15,47.94 116.15,38.3 				"/>
				<path class="st0" d="M44.88,87.78H32.72l8.22-14.57h37.45l8.22,14.57H74.44v9.86h41.36v-9.86h-11.1L69.06,24.57h-18.8
					L14.62,87.78H3.52v9.86h41.36V87.78z M59.66,40l12.91,22.9H46.75L59.66,40z"/>
				<path class="st0" d="M113.26,110.1c-1.56,0-2.83,1.27-2.83,2.83c0,1.56,1.27,2.83,2.83,2.83c1.56,0,2.83-1.27,2.83-2.83
					C116.09,111.37,114.82,110.1,113.26,110.1 M113.26,115.15c-1.23,0-2.22-1-2.22-2.22c0-1.23,1-2.22,2.22-2.22
					c1.23,0,2.22,1,2.22,2.22C115.48,114.16,114.49,115.15,113.26,115.15"/>
				<path class="st0" d="M114.42,112.28c0-0.53-0.43-0.96-0.96-0.96h-1.36v3.23h0.61v-1.31h0.44l0.61,1.31h0.67l-0.64-1.37
					C114.15,113.05,114.42,112.69,114.42,112.28 M113.46,112.63h-0.76v-0.7h0.76c0.2,0,0.35,0.16,0.35,0.35
					C113.81,112.47,113.66,112.63,113.46,112.63"/>
			</g>
		</g>
	</g>
	<g class="st5">
		<path class="st2" d="M374.27,56.03h6.34v26.87c0,4.49,0,10.64-6.84,15.07c-3.92,2.56-9.3,3.86-15.98,3.86
			c-6.97,0-12.38-1.41-16.55-4.32c-6.52-4.5-6.52-10.42-6.52-15.19v-26.3h6.34v26.56c0.04,4.81,0.38,8.15,4.44,10.77
			c3.16,2.06,7.2,3.06,12.34,3.06c4.03,0,7.91-0.72,10.63-1.98c5.79-2.61,5.79-7.27,5.79-11.01V56.03z"/>
		<path class="st2" d="M252.37,56.03h6.34v26.87c0,4.49,0,10.64-6.85,15.07c-3.92,2.56-9.29,3.86-15.98,3.86
			c-6.97,0-12.38-1.41-16.55-4.32c-6.52-4.5-6.52-10.42-6.52-15.19v-26.3h6.34v26.56c0.04,4.81,0.38,8.15,4.44,10.77
			c3.16,2.06,7.2,3.06,12.34,3.06c4.03,0,7.91-0.72,10.63-1.98c5.79-2.61,5.79-7.27,5.79-11.01V56.03z"/>
		<path class="st2" d="M402.11,77.76V61.13h24.87c2.82,0.06,6.04,0.32,8.04,3.52c0.86,1.31,1.34,2.99,1.34,4.8
			c0,1.87-0.51,3.47-1.54,4.78c-2.59,3.45-7.16,3.54-10.5,3.54H402.11z M430.77,81.84c3.38-0.56,12.12-2.06,12.12-12.67
			c0-5.3-2.49-8.26-3.98-9.55c-3.84-3.45-8.61-3.54-12.5-3.59h-30.48v44.72h6.26v-17.9h21.72l15.17,17.9h8.2L430.77,81.84z"/>
		<path class="st2" d="M506.75,56.03v44.72h-6.15l-31.72-33.56c-0.87-0.92-2.85-3.28-3.58-4.23c0.28,2.54,0.31,6.28,0.31,7.87v29.92
			h-6V56.03h6.47c0,0,29.19,30.98,30.2,32.04c1.23,1.3,2.78,2.93,4.87,5.58c-0.33-3.02-0.4-5.59-0.4-6.27c0-1.73,0-31.35,0-31.35
			H506.75z"/>
		<path class="st2" d="M312.81,93.47c-2.38,2-5.34,2.19-8.16,2.19H280.3V80.1h24.36c2.33,0,5.51-0.04,7.91,1.82l0.09,0.06
			c0.64,0.54,2.57,2.21,2.57,5.79C315.23,90.16,314.42,92.07,312.81,93.47 M280.3,61.12h22.39c2.29,0,5.15,0.02,7.37,1.41
			c1.35,0.92,2.96,2.63,2.96,5.57c0,1.99-0.84,4.6-3.21,5.89c-1.78,1.02-4.05,1.02-6.04,1.02H280.3V61.12z M313.78,76.55
			c5.31-1.66,5.75-7.15,5.75-8.89c0-2.67-0.75-4.98-2.22-6.9c-3.45-4.36-9.08-4.72-14.56-4.72h-28.72v44.72h28.72
			c4.88,0,10.96,0,15.02-3.42c2.52-2.12,3.98-5.41,3.98-9.04C321.75,84.07,319.63,78.63,313.78,76.55"/>
		<path class="st2" d="M167.6,84.69l11.33-22.89l10.99,22.89H167.6z M182.32,56.03h-6.67l-23.09,44.72h7.01l5.42-10.97h27.62
			l5.42,10.97h7.21L182.32,56.03z"/>
	</g>
	<rect x="150.84" y="161.58" class="st6" width="729.58" height="28.11"/>
	<text transform="matrix(1 0 0 1 150.8369 181.2962)" class="st7 st8 st9">Department of Biological Sciences</text>
	<rect x="151" y="124.81" class="st6" width="729.42" height="28.26"/>
	<text transform="matrix(1 0 0 1 150.9997 145.8062)" class="st7 st10 st11">Advancement</text>
</g>
<g id="hybrid_copy" class="st4">
	<g id="AU_PMS_00000170976532355151908360000016279458351846935459_" class="st5">
		<g>
			<path class="st2" d="M46.75,62.9h25.83L59.66,40L46.75,62.9z M52.47,59.56l7.19-12.75l7.19,12.75H52.47z"/>
			<g>
				<path class="st2" d="M119.5,51.29V34.96H82.77v7.11L71.01,21.22h-22.7L36.55,42.07v-7.11H-0.18v16.33h7.4v33.15H0.18v16.55h7.29
					c1.35,8.39,9.48,24.72,52.19,24.72c42.71,0,50.85-16.34,52.19-24.72h7.29V84.44h-7.05V51.29H119.5z M3.17,47.94V38.3h30.04v9.64
					h-8.29v14.77L12.66,84.44h-2.1v-36.5H3.17z M31.35,51.29l-3.1,5.49v-5.49H31.35z M59.66,122.37c-33.13,0-46.8-10.28-48.82-21.38
					h16.54c5.77,7.27,20.58,9.19,32.28,9.19c11.7,0,26.51-1.92,32.28-9.19h16.54C106.46,112.09,92.79,122.37,59.66,122.37
					 M38.44,84.44l4.44-7.88h33.55l4.44,7.88h-9.78v16.55h16.07c-7.12,5.32-21.99,5.85-27.5,5.85c-5.52,0-20.39-0.53-27.5-5.85
					h16.07V84.44H38.44z M115.8,87.78v9.86H74.44v-9.86H86.6l-8.22-14.57H40.93l-8.22,14.57h12.16v9.86H3.52v-9.86h11.1l35.65-63.22
					h18.8l35.64,63.22H115.8z M87.97,51.29h3.1v5.49L87.97,51.29z M108.76,47.94v36.5h-2.1L94.41,62.71V47.94h-8.29V38.3h30.04v9.64
					H108.76z"/>
				<path class="st0" d="M59.66,110.18c-11.7,0-26.51-1.92-32.28-9.19H10.84c2.01,11.1,15.69,21.38,48.82,21.38
					c33.13,0,46.8-10.28,48.82-21.38H91.94C86.17,108.26,71.36,110.18,59.66,110.18"/>
				<polygon class="st0" points="10.56,84.44 12.66,84.44 24.91,62.71 24.91,47.94 33.21,47.94 33.21,38.3 3.17,38.3 3.17,47.94 
					10.56,47.94 				"/>
				<polygon class="st0" points="86.11,38.3 86.11,47.94 94.41,47.94 94.41,62.71 106.66,84.44 108.76,84.44 108.76,47.94 
					116.15,47.94 116.15,38.3 				"/>
				<path class="st0" d="M44.88,87.78H32.72l8.22-14.57h37.45l8.22,14.57H74.44v9.86h41.36v-9.86h-11.1L69.06,24.57h-18.8
					L14.62,87.78H3.52v9.86h41.36V87.78z M59.66,40l12.91,22.9H46.75L59.66,40z"/>
				<path class="st0" d="M113.26,110.1c-1.56,0-2.83,1.27-2.83,2.83c0,1.56,1.27,2.83,2.83,2.83c1.56,0,2.83-1.27,2.83-2.83
					C116.09,111.37,114.82,110.1,113.26,110.1 M113.26,115.15c-1.23,0-2.22-1-2.22-2.22c0-1.23,1-2.22,2.22-2.22
					c1.23,0,2.22,1,2.22,2.22C115.48,114.16,114.49,115.15,113.26,115.15"/>
				<path class="st0" d="M114.42,112.28c0-0.53-0.43-0.96-0.96-0.96h-1.36v3.23h0.61v-1.31h0.44l0.61,1.31h0.67l-0.64-1.37
					C114.15,113.05,114.42,112.69,114.42,112.28 M113.46,112.63h-0.76v-0.7h0.76c0.2,0,0.35,0.16,0.35,0.35
					C113.81,112.47,113.66,112.63,113.46,112.63"/>
			</g>
		</g>
	</g>
	<g class="st5">
		<path class="st2" d="M374.27,56.03h6.34v26.87c0,4.49,0,10.64-6.84,15.07c-3.92,2.56-9.3,3.86-15.98,3.86
			c-6.97,0-12.38-1.41-16.55-4.32c-6.52-4.5-6.52-10.42-6.52-15.19v-26.3h6.34v26.56c0.04,4.81,0.38,8.15,4.44,10.77
			c3.16,2.06,7.2,3.06,12.34,3.06c4.03,0,7.91-0.72,10.63-1.98c5.79-2.61,5.79-7.27,5.79-11.01V56.03z"/>
		<path class="st2" d="M252.37,56.03h6.34v26.87c0,4.49,0,10.64-6.85,15.07c-3.92,2.56-9.29,3.86-15.98,3.86
			c-6.97,0-12.38-1.41-16.55-4.32c-6.52-4.5-6.52-10.42-6.52-15.19v-26.3h6.34v26.56c0.04,4.81,0.38,8.15,4.44,10.77
			c3.16,2.06,7.2,3.06,12.34,3.06c4.03,0,7.91-0.72,10.63-1.98c5.79-2.61,5.79-7.27,5.79-11.01V56.03z"/>
		<path class="st2" d="M402.11,77.76V61.13h24.87c2.82,0.06,6.04,0.32,8.04,3.52c0.86,1.31,1.34,2.99,1.34,4.8
			c0,1.87-0.51,3.47-1.54,4.78c-2.59,3.45-7.16,3.54-10.5,3.54H402.11z M430.77,81.84c3.38-0.56,12.12-2.06,12.12-12.67
			c0-5.3-2.49-8.26-3.98-9.55c-3.84-3.45-8.61-3.54-12.5-3.59h-30.48v44.72h6.26v-17.9h21.72l15.17,17.9h8.2L430.77,81.84z"/>
		<path class="st2" d="M506.75,56.03v44.72h-6.15l-31.72-33.56c-0.87-0.92-2.85-3.28-3.58-4.23c0.28,2.54,0.31,6.28,0.31,7.87v29.92
			h-6V56.03h6.47c0,0,29.19,30.98,30.2,32.04c1.23,1.3,2.78,2.93,4.87,5.58c-0.33-3.02-0.4-5.59-0.4-6.27c0-1.73,0-31.35,0-31.35
			H506.75z"/>
		<path class="st2" d="M312.81,93.47c-2.38,2-5.34,2.19-8.16,2.19H280.3V80.1h24.36c2.33,0,5.51-0.04,7.91,1.82l0.09,0.06
			c0.64,0.54,2.57,2.21,2.57,5.79C315.23,90.16,314.42,92.07,312.81,93.47 M280.3,61.12h22.39c2.29,0,5.15,0.02,7.37,1.41
			c1.35,0.92,2.96,2.63,2.96,5.57c0,1.99-0.84,4.6-3.21,5.89c-1.78,1.02-4.05,1.02-6.04,1.02H280.3V61.12z M313.78,76.55
			c5.31-1.66,5.75-7.15,5.75-8.89c0-2.67-0.75-4.98-2.22-6.9c-3.45-4.36-9.08-4.72-14.56-4.72h-28.72v44.72h28.72
			c4.88,0,10.96,0,15.02-3.42c2.52-2.12,3.98-5.41,3.98-9.04C321.75,84.07,319.63,78.63,313.78,76.55"/>
		<path class="st2" d="M167.6,84.69l11.33-22.89l10.99,22.89H167.6z M182.32,56.03h-6.67l-23.09,44.72h7.01l5.42-10.97h27.62
			l5.42,10.97h7.21L182.32,56.03z"/>
	</g>
	<rect x="150.84" y="161.58" class="st6" width="729.58" height="28.11"/>
	<text transform="matrix(1 0 0 1 150.8369 181.2962)" class="st7 st8 st9">Department of Biological Sciences</text>
	<rect x="151" y="124.81" class="st6" width="729.42" height="28.26"/>
	<text transform="matrix(1 0 0 1 150.9997 145.8062)" class="st7 st10 st11">Advancement</text>
</g>
<g id="caps_copy_2" class="st4">
	<g id="AU_PMS_00000165198348169439155630000007627343065611723436_" class="st5">
		<g>
			<path class="st2" d="M46.75,62.9h25.83L59.66,40L46.75,62.9z M52.47,59.56l7.19-12.75l7.19,12.75H52.47z"/>
			<g>
				<path class="st2" d="M119.5,51.29V34.96H82.77v7.11L71.01,21.22h-22.7L36.55,42.07v-7.11H-0.18v16.33h7.4v33.15H0.18v16.55h7.29
					c1.35,8.39,9.48,24.72,52.19,24.72c42.71,0,50.85-16.34,52.19-24.72h7.29V84.44h-7.05V51.29H119.5z M3.17,47.94V38.3h30.04v9.64
					h-8.29v14.77L12.66,84.44h-2.1v-36.5H3.17z M31.35,51.29l-3.1,5.49v-5.49H31.35z M59.66,122.37c-33.13,0-46.8-10.28-48.82-21.38
					h16.54c5.77,7.27,20.58,9.19,32.28,9.19c11.7,0,26.51-1.92,32.28-9.19h16.54C106.46,112.09,92.79,122.37,59.66,122.37
					 M38.44,84.44l4.44-7.88h33.55l4.44,7.88h-9.78v16.55h16.07c-7.12,5.32-21.99,5.85-27.5,5.85c-5.52,0-20.39-0.53-27.5-5.85
					h16.07V84.44H38.44z M115.8,87.78v9.86H74.44v-9.86H86.6l-8.22-14.57H40.93l-8.22,14.57h12.16v9.86H3.52v-9.86h11.1l35.65-63.22
					h18.8l35.64,63.22H115.8z M87.97,51.29h3.1v5.49L87.97,51.29z M108.76,47.94v36.5h-2.1L94.41,62.71V47.94h-8.29V38.3h30.04v9.64
					H108.76z"/>
				<path class="st0" d="M59.66,110.18c-11.7,0-26.51-1.92-32.28-9.19H10.84c2.01,11.1,15.69,21.38,48.82,21.38
					c33.13,0,46.8-10.28,48.82-21.38H91.94C86.17,108.26,71.36,110.18,59.66,110.18"/>
				<polygon class="st0" points="10.56,84.44 12.66,84.44 24.91,62.71 24.91,47.94 33.21,47.94 33.21,38.3 3.17,38.3 3.17,47.94 
					10.56,47.94 				"/>
				<polygon class="st0" points="86.11,38.3 86.11,47.94 94.41,47.94 94.41,62.71 106.66,84.44 108.76,84.44 108.76,47.94 
					116.15,47.94 116.15,38.3 				"/>
				<path class="st0" d="M44.88,87.78H32.72l8.22-14.57h37.45l8.22,14.57H74.44v9.86h41.36v-9.86h-11.1L69.06,24.57h-18.8
					L14.62,87.78H3.52v9.86h41.36V87.78z M59.66,40l12.91,22.9H46.75L59.66,40z"/>
				<path class="st0" d="M113.26,110.1c-1.56,0-2.83,1.27-2.83,2.83c0,1.56,1.27,2.83,2.83,2.83c1.56,0,2.83-1.27,2.83-2.83
					C116.09,111.37,114.82,110.1,113.26,110.1 M113.26,115.15c-1.23,0-2.22-1-2.22-2.22c0-1.23,1-2.22,2.22-2.22
					c1.23,0,2.22,1,2.22,2.22C115.48,114.16,114.49,115.15,113.26,115.15"/>
				<path class="st0" d="M114.42,112.28c0-0.53-0.43-0.96-0.96-0.96h-1.36v3.23h0.61v-1.31h0.44l0.61,1.31h0.67l-0.64-1.37
					C114.15,113.05,114.42,112.69,114.42,112.28 M113.46,112.63h-0.76v-0.7h0.76c0.2,0,0.35,0.16,0.35,0.35
					C113.81,112.47,113.66,112.63,113.46,112.63"/>
			</g>
		</g>
	</g>
	<g class="st5">
		<path class="st2" d="M374.27,56.03h6.34v26.87c0,4.49,0,10.64-6.84,15.07c-3.92,2.56-9.3,3.86-15.98,3.86
			c-6.97,0-12.38-1.41-16.55-4.32c-6.52-4.5-6.52-10.42-6.52-15.19v-26.3h6.34v26.56c0.04,4.81,0.38,8.15,4.44,10.77
			c3.16,2.06,7.2,3.06,12.34,3.06c4.03,0,7.91-0.72,10.63-1.98c5.79-2.61,5.79-7.27,5.79-11.01V56.03z"/>
		<path class="st2" d="M252.37,56.03h6.34v26.87c0,4.49,0,10.64-6.85,15.07c-3.92,2.56-9.29,3.86-15.98,3.86
			c-6.97,0-12.38-1.41-16.55-4.32c-6.52-4.5-6.52-10.42-6.52-15.19v-26.3h6.34v26.56c0.04,4.81,0.38,8.15,4.44,10.77
			c3.16,2.06,7.2,3.06,12.34,3.06c4.03,0,7.91-0.72,10.63-1.98c5.79-2.61,5.79-7.27,5.79-11.01V56.03z"/>
		<path class="st2" d="M402.11,77.76V61.13h24.87c2.82,0.06,6.04,0.32,8.04,3.52c0.86,1.31,1.34,2.99,1.34,4.8
			c0,1.87-0.51,3.47-1.54,4.78c-2.59,3.45-7.16,3.54-10.5,3.54H402.11z M430.77,81.84c3.38-0.56,12.12-2.06,12.12-12.67
			c0-5.3-2.49-8.26-3.98-9.55c-3.84-3.45-8.61-3.54-12.5-3.59h-30.48v44.72h6.26v-17.9h21.72l15.17,17.9h8.2L430.77,81.84z"/>
		<path class="st2" d="M506.75,56.03v44.72h-6.15l-31.72-33.56c-0.87-0.92-2.85-3.28-3.58-4.23c0.28,2.54,0.31,6.28,0.31,7.87v29.92
			h-6V56.03h6.47c0,0,29.19,30.98,30.2,32.04c1.23,1.3,2.78,2.93,4.87,5.58c-0.33-3.02-0.4-5.59-0.4-6.27c0-1.73,0-31.35,0-31.35
			H506.75z"/>
		<path class="st2" d="M312.81,93.47c-2.38,2-5.34,2.19-8.16,2.19H280.3V80.1h24.36c2.33,0,5.51-0.04,7.91,1.82l0.09,0.06
			c0.64,0.54,2.57,2.21,2.57,5.79C315.23,90.16,314.42,92.07,312.81,93.47 M280.3,61.12h22.39c2.29,0,5.15,0.02,7.37,1.41
			c1.35,0.92,2.96,2.63,2.96,5.57c0,1.99-0.84,4.6-3.21,5.89c-1.78,1.02-4.05,1.02-6.04,1.02H280.3V61.12z M313.78,76.55
			c5.31-1.66,5.75-7.15,5.75-8.89c0-2.67-0.75-4.98-2.22-6.9c-3.45-4.36-9.08-4.72-14.56-4.72h-28.72v44.72h28.72
			c4.88,0,10.96,0,15.02-3.42c2.52-2.12,3.98-5.41,3.98-9.04C321.75,84.07,319.63,78.63,313.78,76.55"/>
		<path class="st2" d="M167.6,84.69l11.33-22.89l10.99,22.89H167.6z M182.32,56.03h-6.67l-23.09,44.72h7.01l5.42-10.97h27.62
			l5.42,10.97h7.21L182.32,56.03z"/>
	</g>
	<rect x="150.84" y="161.58" class="st6" width="729.58" height="28.11"/>
	<text transform="matrix(1 0 0 1 150.8369 181.2962)" class="st7 st8 st9">Department of Biological Sciences</text>
	<rect x="151" y="124.81" class="st6" width="729.42" height="28.26"/>
	<text transform="matrix(1 0 0 1 150.9997 145.8062)" class="st7 st10 st11">Advancement</text>
</g>
</svg>
