<?xml version="1.0" encoding="utf-8"?>
<!-- Generator: Adobe Illustrator 26.2.1, SVG Export Plug-In . SVG Version: 6.00 Build 0)  -->
<svg version="1.1" xmlns="http://www.w3.org/2000/svg" xmlns:xlink="http://www.w3.org/1999/xlink" x="0px" y="0px"
	 viewBox="0 0 382.37 298.5" style="enable-background:new 0 0 382.37 298.5;" xml:space="preserve">
<style type="text/css">
	.st0{fill:#0B2341;}
	.st1{fill:#E86100;}
	.st2{fill:#0C223F;}
	.st3{fill:#FFFFFF;}
	.st4{display:none;}
	.st5{display:inline;}
	.st6{display:inline;fill:none;}
	.st7{display:inline;fill:#0B2341;}
	.st8{font-family:'UtopiaStd-Italic';}
	.st9{font-size:28px;}
	.st10{font-family:'SweetSansPro-Regular';}
	.st11{font-size:30px;}
	.st12{fill:#231F20;}
</style>
<g id="Lock_up">
	<g>
		<g>
			<path class="st0" d="M124.73,189c0,3.18,0,7.14-4.9,9.35c-2.33,1.08-5.64,1.69-9.1,1.69c-4.41,0-7.86-0.85-10.56-2.61
				c-3.44-2.21-3.72-5.06-3.76-9.15v-23.1h-5.82v22.88c0,4.15,0,9.32,5.7,13.26c3.62,2.53,8.33,3.76,14.38,3.76
				c5.81,0,10.48-1.13,13.89-3.36c5.99-3.88,5.99-9.24,5.99-13.15v-23.37h-5.82V189z"/>
			<path class="st0" d="M289.54,176.72c0-4.65-2.19-7.24-3.49-8.37c-3.39-3.04-7.55-3.1-10.91-3.15h-26.48v38.95h5.82v-15.45h18.42
				l13.04,15.39l0.05,0.06h7.54l-14.29-16.38C282.34,187.25,289.54,185.75,289.54,176.72z M283.57,176.94
				c0,1.58-0.43,2.93-1.29,4.02c-2.26,2.99-6.27,2.99-8.93,2.99h-18.87v-14.01h21.17c2.53,0.05,5.14,0.32,6.8,2.97
				C283.17,174.01,283.57,175.44,283.57,176.94z"/>
			<path class="st0" d="M339.41,165.19l0,27.24c0,0.59,0.05,2.53,0.28,4.84c-1.67-2.08-2.91-3.39-3.84-4.36
				c-0.87-0.91-25.82-27.39-26.07-27.66l-0.05-0.05h-5.84v38.95h5.53v-26c0-0.93-0.02-3.93-0.21-6.22c0.78,0.97,2.1,2.53,2.74,3.2
				l27.38,28.97l0.05,0.05h5.56v-38.95H339.41z"/>
			<path class="st0" d="M178.42,183.08c4.29-1.63,4.63-6.26,4.63-7.68c0-2.34-0.66-4.38-1.96-6.06c-3.03-3.83-7.93-4.15-12.7-4.15
				h-24.97v38.95h24.97c4.24,0,9.53,0,13.08-2.98c2.22-1.86,3.49-4.75,3.49-7.95C184.96,189.72,183.24,185.04,178.42,183.08z
				 M174.41,180.72c-1.51,0.85-3.43,0.85-5.13,0.85h-20.03v-11.63h19.1c1.85,0,4.38,0,6.27,1.19c1.13,0.77,2.47,2.21,2.47,4.67
				C177.08,177.46,176.38,179.64,174.41,180.72z M149.24,186.32h20.89c1.96,0.02,4.64,0,6.63,1.54l0.06,0.05
				c0.54,0.46,2.17,1.85,2.17,4.87c0,2-0.68,3.61-2.03,4.78c-2.02,1.7-4.53,1.85-6.93,1.85h-20.79V186.32z"/>
			<path class="st0" d="M64.21,165.19h-5.97l-20.11,38.95h6.45l4.68-9.46h23.62l4.68,9.46h6.62L64.21,165.19z M51.68,189.93
				l9.5-19.19l9.21,19.19H51.68z"/>
			<path class="st0" d="M229.97,189c0,3.18,0,7.14-4.9,9.35c-2.33,1.08-5.64,1.69-9.1,1.69c-4.41,0-7.86-0.85-10.56-2.61
				c-3.44-2.21-3.72-5.06-3.76-9.15v-23.1h-5.82v22.88c0,4.15,0,9.32,5.7,13.26c3.62,2.53,8.33,3.76,14.38,3.76
				c5.81,0,10.48-1.13,13.89-3.36c5.99-3.88,5.99-9.24,5.99-13.15v-23.37h-5.82V189z"/>
		</g>
	</g>
	<g id="AU_PMS_00000070112978331064672510000009734915226789867961_">
		<g>
			<path class="st1" d="M176.18,49.56h30.71l-15.36-27.23L176.18,49.56z M182.99,45.58l8.55-15.16l8.55,15.16H182.99z"/>
			<g>
				<path class="st1" d="M262.69,35.75V16.34h-43.67v8.46L205.03,0h-27l-13.98,24.79v-8.46h-43.67v19.42h8.8v39.42h-8.37v19.68h8.67
					c1.6,9.98,11.27,29.4,62.06,29.4c50.79,0,60.46-19.42,62.06-29.4h8.67V75.17h-8.38V35.75H262.69z M124.36,31.78V20.31h35.72
					v11.46h-9.86v17.56l-14.57,25.83h-2.49V31.78H124.36z M157.88,35.75l-3.68,6.53v-6.53H157.88z M191.53,120.27
					c-39.39,0-55.65-12.22-58.05-25.42h19.66c6.86,8.65,24.47,10.93,38.39,10.93c13.92,0,31.53-2.28,38.39-10.93h19.66
					C247.19,108.05,230.93,120.27,191.53,120.27 M166.31,75.17l5.29-9.37h39.89l5.28,9.37h-11.63v19.68h19.11
					c-8.46,6.33-26.14,6.95-32.7,6.95c-6.56,0-24.24-0.63-32.7-6.95h19.11V75.17H166.31z M258.29,79.15v11.73h-49.18V79.15h14.46
					l-9.77-17.33h-44.53l-9.77,17.33h14.46v11.73h-49.18V79.15h13.19l42.38-75.17h22.35l42.38,75.17H258.29z M225.19,35.75h3.68
					v6.53L225.19,35.75z M249.91,31.78v43.39h-2.5l-14.56-25.83V31.78h-9.86V20.31h35.72v11.46H249.91z"/>
				<path class="st0" d="M191.53,105.78c-13.92,0-31.53-2.28-38.39-10.93h-19.66c2.4,13.2,18.65,25.42,58.05,25.42
					c39.4,0,55.65-12.22,58.05-25.42h-19.66C223.06,103.5,205.45,105.78,191.53,105.78"/>
				<polygon class="st0" points="133.16,75.17 135.65,75.17 150.22,49.34 150.22,31.78 160.08,31.78 160.08,20.31 124.36,20.31 
					124.36,31.78 133.16,31.78 				"/>
				<polygon class="st0" points="222.99,20.31 222.99,31.78 232.85,31.78 232.85,49.34 247.42,75.17 249.91,75.17 249.91,31.78 
					258.71,31.78 258.71,20.31 				"/>
				<path class="st0" d="M173.96,79.15H159.5l9.77-17.33h44.53l9.77,17.33h-14.46v11.73h49.18V79.15h-13.2L202.71,3.98h-22.35
					l-42.38,75.17h-13.19v11.73h49.18V79.15z M191.53,22.33l15.36,27.23h-30.71L191.53,22.33z"/>
				<path class="st2" d="M255.27,105.68c-1.86,0-3.36,1.51-3.36,3.37c0,1.86,1.51,3.36,3.36,3.36c1.86,0,3.36-1.51,3.36-3.36
					C258.63,107.19,257.12,105.68,255.27,105.68 M255.27,111.69c-1.46,0-2.64-1.18-2.64-2.64c0-1.46,1.18-2.64,2.64-2.64
					c1.46,0,2.64,1.18,2.64,2.64C257.91,110.51,256.72,111.69,255.27,111.69"/>
				<path class="st2" d="M256.65,108.27c0-0.63-0.51-1.14-1.14-1.14h-1.62v3.85h0.72v-1.56h0.52l0.73,1.56h0.8l-0.76-1.63
					C256.33,109.19,256.65,108.76,256.65,108.27 M255.51,108.69h-0.9v-0.84h0.9c0.23,0,0.42,0.19,0.42,0.42
					C255.93,108.5,255.74,108.69,255.51,108.69"/>
			</g>
		</g>
	</g>
	<g>
		<path class="st0" d="M103.04,230.53c-1.37-1.23-4.27-2.84-8.47-2.84c-2.94,0-5.95,1.05-5.95,3.92c0,2.94,3.78,3.08,7.49,3.29
			c3.99,0.28,10.43,0.67,10.43,6.79c0,5.32-4.73,7.46-10.22,7.46c-5.81,0-9.52-2.42-12.01-4.69l1.86-2.1
			c1.92,1.79,5.11,4.2,10.22,4.2c3.89,0,7.11-1.4,7.11-4.48c0-3.43-3.5-3.96-7.39-4.24c-4.94-0.32-10.54-0.67-10.54-5.95
			c0-5.22,5.01-6.79,9.1-6.79c4.73,0,8.44,1.89,10.19,3.33L103.04,230.53z"/>
		<path class="st0" d="M111.44,233.75c1.47-0.91,4.24-2.14,7.56-2.14c3.61,0,7.39,1.23,7.39,4.87v9.1c0,0.88,0.07,2.1,0.52,2.98
			h-2.83c-0.32-0.6-0.46-1.58-0.49-2.31c-1.26,1.15-3.47,2.66-6.83,2.66c-4.03,0-6.55-2.35-6.55-5.64c0-2.98,2.7-5.39,7.56-5.39
			c2.03,0,4.52,0.49,5.81,1.72v-2.35c0-2.31-2.21-3.26-4.69-3.26c-2.7,0-5.29,1.19-6.44,2.03L111.44,233.75z M123.59,243.9v-2.07
			c-0.95-1.05-3.12-1.75-5.36-1.75c-3.71,0-5.18,1.4-5.18,3.19c0,1.82,1.51,3.29,4.27,3.29
			C120.75,246.56,123.27,244.32,123.59,243.9z"/>
		<path class="st0" d="M132.75,248.56v-12.25c0-1.36-0.14-2.73-0.46-4.17h2.56c0.25,0.88,0.35,1.54,0.38,2.48
			c1.26-1.5,2.87-3.01,5.53-3.01c2.56,0,4.52,1.4,5.43,3.33c1.19-1.72,3.04-3.33,5.71-3.33c3.33,0,5.88,2.42,5.88,5.81v11.13h-2.84
			v-11.13c0-1.85-1.44-3.36-3.5-3.36c-2.1,0-3.71,1.47-4.8,2.8v11.69h-2.8v-11.59c-0.18-1.54-1.47-2.91-3.5-2.91
			c-2.14,0-3.75,1.47-4.8,2.8v11.69H132.75z"/>
		<path class="st0" d="M178.67,232.14v12.22c0,1.33,0,2.77,0.28,4.2h-2.56c-0.18-0.77-0.25-1.75-0.25-2.52
			c-1.37,1.51-3.12,3.01-6.02,3.01c-3.61,0-6.37-2.42-6.37-5.78v-11.13h2.84v11.13c0,1.86,1.65,3.33,3.96,3.33
			c2.38,0,4.13-1.44,5.32-2.77v-11.69H178.67z"/>
		<path class="st0" d="M200.41,245.97c-1.79,1.72-4.69,3.08-8.02,3.08c-5.32,0-8.44-3.85-8.44-8.54c0-4.97,3.64-8.89,8.68-8.89
			c3.89,0,8.23,2.42,8.26,8.26c0,0.24,0,0.56-0.04,0.84h-14.11c0.1,3.22,2.17,5.85,5.92,5.85c2.35,0,4.48-0.98,5.88-2.42
			L200.41,245.97z M186.97,238.51h10.85c-0.07-3.08-2.83-4.55-5.32-4.55C189.56,233.96,187.6,235.96,186.97,238.51z"/>
		<path class="st0" d="M206.25,248.56v-24.5h2.8v24.5H206.25z"/>
		<path class="st0" d="M243.28,230.85c-2.03-1.89-5.25-3.05-8.12-3.05c-5.43,0-9.38,4.2-9.38,9.35c0,4.9,3.64,9.31,9.66,9.31
			c2.7,0,5.64-0.84,7.39-2.24v-5.43h-7.42v-2.7h10.19v9.59c-2.77,2.14-6.69,3.47-10.33,3.47c-7.18,0-12.67-5.39-12.67-12.04
			c0-6.65,5.53-12.01,12.53-12.01c3.61,0,7.32,1.37,10.26,3.85L243.28,230.85z"/>
		<path class="st0" d="M253.47,224.44c1.05,0,1.85,0.77,1.85,1.68c0,0.95-0.81,1.68-1.85,1.68c-1.05,0-1.82-0.73-1.82-1.68
			C251.65,225.21,252.42,224.44,253.47,224.44z M252.1,248.56v-16.42h2.77v16.42H252.1z"/>
		<path class="st0" d="M261.41,248.56v-12.25c0-1.33-0.14-2.73-0.46-4.17h2.56c0.25,0.88,0.35,1.57,0.38,2.52
			c1.37-1.5,3.15-3.05,6.06-3.05c3.61,0,6.34,2.42,6.34,5.81v11.13h-2.8v-11.13c0-1.85-1.65-3.36-3.96-3.36
			c-2.42,0-4.13,1.47-5.32,2.8v11.69H261.41z"/>
		<path class="st0" d="M282.62,248.56v-12.25c0-1.33-0.14-2.73-0.46-4.17h2.56c0.25,0.88,0.35,1.57,0.38,2.52
			c1.37-1.5,3.15-3.05,6.06-3.05c3.61,0,6.34,2.42,6.34,5.81v11.13h-2.8v-11.13c0-1.85-1.65-3.36-3.96-3.36
			c-2.42,0-4.13,1.47-5.32,2.8v11.69H282.62z"/>
		<path class="st0" d="M23.52,286.6c-2.49,2.45-6.27,4.55-10.96,4.55C5.18,291.15,0,285.76,0,279.11c0-6.58,5.18-12.01,12.43-12.01
			c4.1,0,7.95,1.58,10.47,3.92l-2.06,2.03c-2.1-2-5.32-3.26-8.33-3.26c-5.46,0-9.31,4.24-9.31,9.35c0,5.15,3.89,9.31,9.42,9.31
			c3.64,0,6.79-1.68,8.89-3.85L23.52,286.6z"/>
		<path class="st0" d="M35.49,273.62c5.15,0,8.82,3.85,8.82,8.68c0,4.9-3.68,8.75-8.82,8.75c-5.11,0-8.79-3.85-8.79-8.75
			C26.7,277.47,30.38,273.62,35.49,273.62z M35.49,288.7c3.57,0,5.95-2.91,5.95-6.41c0-3.4-2.38-6.34-5.95-6.34
			c-3.54,0-5.88,2.94-5.88,6.34C29.61,285.8,31.96,288.7,35.49,288.7z"/>
		<path class="st0" d="M49.77,290.56v-24.5h2.8v24.5H49.77z"/>
		<path class="st0" d="M59.53,290.56v-24.5h2.8v24.5H59.53z"/>
		<path class="st0" d="M84.28,287.97c-1.79,1.72-4.69,3.08-8.02,3.08c-5.32,0-8.44-3.85-8.44-8.54c0-4.97,3.64-8.89,8.68-8.89
			c3.89,0,8.23,2.42,8.26,8.26c0,0.24,0,0.56-0.04,0.84H70.63c0.1,3.22,2.17,5.85,5.92,5.85c2.35,0,4.48-0.98,5.88-2.42
			L84.28,287.97z M70.84,280.51h10.85c-0.07-3.08-2.83-4.55-5.32-4.55C73.43,275.96,71.47,277.96,70.84,280.51z"/>
		<path class="st0" d="M102.55,288.35c-1.65,1.71-3.64,2.7-5.67,2.7c-4.45,0-8.19-3.43-8.19-8.65c0-5.32,3.78-8.79,8.37-8.79
			c2.8,0,4.97,1.93,5.74,3.05c0-0.84,0.1-1.72,0.35-2.56h2.59c-0.35,1.44-0.39,2.87-0.39,4.2v13.3c0,3.78-2.8,6.9-8.23,6.9
			c-3.75,0-5.99-1.26-7.46-2.84l1.68-1.65c1.16,1.19,2.87,2.14,5.78,2.14c3.57,0,5.43-2,5.43-4.55V288.35z M102.55,286.08v-7.42
			c-0.6-0.73-2.49-2.59-5.25-2.59c-3.01,0-5.53,2.49-5.53,6.34c0,3.75,2.42,6.2,5.36,6.2C99.05,288.6,100.98,287.62,102.55,286.08z"
			/>
		<path class="st0" d="M127.05,287.97c-1.79,1.72-4.69,3.08-8.02,3.08c-5.32,0-8.44-3.85-8.44-8.54c0-4.97,3.64-8.89,8.68-8.89
			c3.89,0,8.23,2.42,8.26,8.26c0,0.24,0,0.56-0.04,0.84H113.4c0.1,3.22,2.17,5.85,5.92,5.85c2.35,0,4.48-0.98,5.88-2.42
			L127.05,287.97z M113.61,280.51h10.85c-0.07-3.08-2.83-4.55-5.32-4.55C116.2,275.96,114.24,277.96,113.61,280.51z"/>
		<path class="st0" d="M148.08,273.62c5.15,0,8.82,3.85,8.82,8.68c0,4.9-3.68,8.75-8.82,8.75c-5.11,0-8.79-3.85-8.79-8.75
			C139.3,277.47,142.97,273.62,148.08,273.62z M148.08,288.7c3.57,0,5.95-2.91,5.95-6.41c0-3.4-2.38-6.34-5.95-6.34
			c-3.54,0-5.88,2.94-5.88,6.34C142.2,285.8,144.55,288.7,148.08,288.7z"/>
		<path class="st0" d="M163.27,274.14v-3.36c0-3.82,2.63-5.11,4.87-5.11c1.33,0,3.01,0.42,3.78,1.05l-0.56,2.27
			c-0.56-0.49-1.86-0.84-2.7-0.84c-1.44,0-2.59,0.81-2.59,2.63v3.36h4.83v2.17h-4.83v14.25h-2.8v-14.25h-3.22v-2.17H163.27z"/>
		<path class="st0" d="M195.65,279.88h-9.24v7.98h16.14v2.7h-19.18V267.7h18.38v2.7h-15.33v6.79h9.24V279.88z"/>
		<path class="st0" d="M206.95,290.56v-12.25c0-1.33-0.14-2.73-0.46-4.17h2.56c0.25,0.88,0.35,1.57,0.38,2.52
			c1.37-1.5,3.15-3.05,6.06-3.05c3.61,0,6.34,2.42,6.34,5.81v11.13h-2.8v-11.13c0-1.85-1.65-3.36-3.96-3.36
			c-2.42,0-4.13,1.47-5.32,2.8v11.69H206.95z"/>
		<path class="st0" d="M240.76,288.35c-1.65,1.71-3.64,2.7-5.67,2.7c-4.45,0-8.19-3.43-8.19-8.65c0-5.32,3.78-8.79,8.37-8.79
			c2.8,0,4.97,1.93,5.74,3.05c0-0.84,0.1-1.72,0.35-2.56h2.59c-0.35,1.44-0.39,2.87-0.39,4.2v13.3c0,3.78-2.8,6.9-8.23,6.9
			c-3.75,0-5.99-1.26-7.46-2.84l1.68-1.65c1.16,1.19,2.87,2.14,5.78,2.14c3.57,0,5.43-2,5.43-4.55V288.35z M240.76,286.08v-7.42
			c-0.6-0.73-2.49-2.59-5.25-2.59c-3.01,0-5.53,2.49-5.53,6.34c0,3.75,2.42,6.2,5.36,6.2C237.26,288.6,239.19,287.62,240.76,286.08z
			"/>
		<path class="st0" d="M251.44,266.44c1.05,0,1.85,0.77,1.85,1.68c0,0.95-0.81,1.68-1.85,1.68c-1.05,0-1.82-0.73-1.82-1.68
			C249.62,267.21,250.39,266.44,251.44,266.44z M250.07,290.56v-16.42h2.77v16.42H250.07z"/>
		<path class="st0" d="M259.38,290.56v-12.25c0-1.33-0.14-2.73-0.46-4.17h2.56c0.25,0.88,0.35,1.57,0.38,2.52
			c1.37-1.5,3.15-3.05,6.06-3.05c3.61,0,6.34,2.42,6.34,5.81v11.13h-2.8v-11.13c0-1.85-1.65-3.36-3.96-3.36
			c-2.42,0-4.13,1.47-5.32,2.8v11.69H259.38z"/>
		<path class="st0" d="M295.75,287.97c-1.79,1.72-4.69,3.08-8.02,3.08c-5.32,0-8.44-3.85-8.44-8.54c0-4.97,3.64-8.89,8.68-8.89
			c3.89,0,8.23,2.42,8.26,8.26c0,0.24,0,0.56-0.04,0.84H282.1c0.1,3.22,2.17,5.85,5.92,5.85c2.35,0,4.48-0.98,5.88-2.42
			L295.75,287.97z M282.31,280.51h10.85c-0.07-3.08-2.83-4.55-5.32-4.55C284.9,275.96,282.94,277.96,282.31,280.51z"/>
		<path class="st0" d="M316.57,287.97c-1.79,1.72-4.69,3.08-8.02,3.08c-5.32,0-8.44-3.85-8.44-8.54c0-4.97,3.64-8.89,8.68-8.89
			c3.89,0,8.23,2.42,8.26,8.26c0,0.24,0,0.56-0.04,0.84h-14.11c0.1,3.22,2.17,5.85,5.92,5.85c2.35,0,4.48-0.98,5.88-2.42
			L316.57,287.97z M303.13,280.51h10.85c-0.07-3.08-2.83-4.55-5.32-4.55C305.72,275.96,303.76,277.96,303.13,280.51z"/>
		<path class="st0" d="M322.24,290.56v-12.25c0-1.36-0.14-2.73-0.49-4.17h2.59c0.25,0.94,0.35,1.75,0.38,2.83
			c1.12-1.68,2.59-3.36,5.01-3.36c1.02,0,2,0.28,2.49,0.84l-0.91,2.56c-0.49-0.42-1.58-0.67-2.21-0.67c-1.79,0-3.08,1.61-4.06,3.01
			v11.2H322.24z"/>
		<path class="st0" d="M337.43,266.44c1.05,0,1.85,0.77,1.85,1.68c0,0.95-0.81,1.68-1.85,1.68c-1.05,0-1.82-0.73-1.82-1.68
			C335.61,267.21,336.38,266.44,337.43,266.44z M336.06,290.56v-16.42h2.77v16.42H336.06z"/>
		<path class="st0" d="M345.38,290.56v-12.25c0-1.33-0.14-2.73-0.46-4.17h2.56c0.25,0.88,0.35,1.57,0.38,2.52
			c1.37-1.5,3.15-3.05,6.06-3.05c3.61,0,6.34,2.42,6.34,5.81v11.13h-2.8v-11.13c0-1.85-1.65-3.36-3.96-3.36
			c-2.42,0-4.13,1.47-5.32,2.8v11.69H345.38z"/>
		<path class="st0" d="M379.19,288.35c-1.65,1.71-3.64,2.7-5.67,2.7c-4.45,0-8.19-3.43-8.19-8.65c0-5.32,3.78-8.79,8.37-8.79
			c2.8,0,4.97,1.93,5.74,3.05c0-0.84,0.1-1.72,0.35-2.56h2.59c-0.35,1.44-0.39,2.87-0.39,4.2v13.3c0,3.78-2.8,6.9-8.23,6.9
			c-3.75,0-5.99-1.26-7.46-2.84l1.68-1.65c1.16,1.19,2.87,2.14,5.78,2.14c3.57,0,5.43-2,5.43-4.55V288.35z M379.19,286.08v-7.42
			c-0.6-0.73-2.49-2.59-5.25-2.59c-3.01,0-5.53,2.49-5.53,6.34c0,3.75,2.42,6.2,5.36,6.2C375.69,288.6,377.61,287.62,379.19,286.08z
			"/>
	</g>
</g>
<g id="Layer_6">
</g>
<g id="hybrid" class="st4">
	<g class="st5">
		<g>
			<path class="st0" d="M130.49,189c0,3.18,0,7.14-4.9,9.35c-2.33,1.08-5.64,1.69-9.1,1.69c-4.41,0-7.86-0.85-10.56-2.61
				c-3.44-2.21-3.72-5.06-3.76-9.15v-23.1h-5.82v22.88c0,4.15,0,9.32,5.7,13.26c3.62,2.53,8.33,3.76,14.38,3.76
				c5.81,0,10.48-1.13,13.89-3.36c5.99-3.88,5.99-9.24,5.99-13.15v-23.37h-5.82V189z"/>
			<path class="st0" d="M295.3,176.72c0-4.65-2.19-7.24-3.49-8.37c-3.39-3.04-7.55-3.1-10.91-3.15h-26.48v38.95h5.82v-15.45h18.42
				l13.04,15.39l0.05,0.06h7.54L285,187.77C288.1,187.25,295.3,185.75,295.3,176.72z M289.33,176.94c0,1.58-0.43,2.93-1.29,4.02
				c-2.26,2.99-6.27,2.99-8.93,2.99h-18.87v-14.01h21.17c2.53,0.05,5.14,0.32,6.8,2.97C288.93,174.01,289.33,175.44,289.33,176.94z"
				/>
			<path class="st0" d="M345.17,165.19l0,27.24c0,0.59,0.05,2.53,0.28,4.84c-1.67-2.08-2.91-3.39-3.84-4.36
				c-0.87-0.91-25.82-27.39-26.07-27.66l-0.05-0.05h-5.84v38.95h5.53v-26c0-0.93-0.02-3.93-0.21-6.22c0.78,0.97,2.1,2.53,2.74,3.2
				l27.38,28.97l0.05,0.05h5.56v-38.95H345.17z"/>
			<path class="st0" d="M184.18,183.08c4.29-1.63,4.63-6.26,4.63-7.68c0-2.34-0.66-4.38-1.96-6.06c-3.03-3.83-7.93-4.15-12.7-4.15
				h-24.97v38.95h24.97c4.24,0,9.53,0,13.08-2.98c2.22-1.86,3.49-4.75,3.49-7.95C190.72,189.72,189,185.04,184.18,183.08z
				 M180.17,180.72c-1.51,0.85-3.43,0.85-5.13,0.85H155v-11.63h19.1c1.85,0,4.38,0,6.27,1.19c1.13,0.77,2.47,2.21,2.47,4.67
				C182.84,177.46,182.14,179.64,180.17,180.72z M155,186.32h20.89c1.96,0.02,4.64,0,6.63,1.54l0.06,0.05
				c0.54,0.46,2.17,1.85,2.17,4.87c0,2-0.68,3.61-2.03,4.78c-2.02,1.7-4.53,1.85-6.93,1.85H155V186.32z"/>
			<path class="st0" d="M69.97,165.19H64l-20.11,38.95h6.45l4.68-9.46h23.62l4.68,9.46h6.62L69.97,165.19z M57.44,189.93l9.5-19.19
				l9.21,19.19H57.44z"/>
			<path class="st0" d="M235.73,189c0,3.18,0,7.14-4.9,9.35c-2.33,1.08-5.64,1.69-9.1,1.69c-4.41,0-7.86-0.85-10.56-2.61
				c-3.44-2.21-3.72-5.06-3.76-9.15v-23.1h-5.82v22.88c0,4.15,0,9.32,5.7,13.26c3.62,2.53,8.33,3.76,14.38,3.76
				c5.81,0,10.48-1.13,13.89-3.36c5.99-3.88,5.99-9.24,5.99-13.15v-23.37h-5.82V189z"/>
		</g>
	</g>
	<g id="AU_PMS_00000065040136904781445810000000565278347750866094_" class="st5">
		<g>
			<path class="st1" d="M181.94,49.56h30.71L197.3,22.33L181.94,49.56z M188.75,45.58l8.55-15.16l8.55,15.16H188.75z"/>
			<g>
				<path class="st1" d="M268.45,35.75V16.34h-43.67v8.46L210.79,0h-27l-13.98,24.79v-8.46h-43.67v19.42h8.8v39.42h-8.37v19.68h8.67
					c1.6,9.98,11.27,29.4,62.06,29.4c50.79,0,60.46-19.42,62.06-29.4h8.67V75.17h-8.38V35.75H268.45z M130.12,31.78V20.31h35.72
					v11.46h-9.86v17.56l-14.57,25.83h-2.49V31.78H130.12z M163.64,35.75l-3.68,6.53v-6.53H163.64z M197.3,120.27
					c-39.39,0-55.65-12.22-58.05-25.42h19.66c6.86,8.65,24.47,10.93,38.39,10.93c13.92,0,31.53-2.28,38.39-10.93h19.66
					C252.95,108.05,236.69,120.27,197.3,120.27 M172.07,75.17l5.29-9.37h39.89l5.28,9.37h-11.63v19.68H230
					c-8.46,6.33-26.14,6.95-32.7,6.95c-6.56,0-24.24-0.63-32.7-6.95h19.11V75.17H172.07z M264.05,79.15v11.73h-49.18V79.15h14.46
					l-9.77-17.33h-44.53l-9.77,17.33h14.46v11.73h-49.18V79.15h13.19l42.38-75.17h22.35l42.38,75.17H264.05z M230.95,35.75h3.68
					v6.53L230.95,35.75z M255.67,31.78v43.39h-2.5l-14.57-25.83V31.78h-9.86V20.31h35.72v11.46H255.67z"/>
				<path class="st0" d="M197.3,105.78c-13.92,0-31.53-2.28-38.39-10.93h-19.66c2.4,13.2,18.65,25.42,58.05,25.42
					c39.4,0,55.65-12.22,58.05-25.42h-19.66C228.82,103.5,211.21,105.78,197.3,105.78"/>
				<polygon class="st0" points="138.92,75.17 141.41,75.17 155.98,49.34 155.98,31.78 165.84,31.78 165.84,20.31 130.12,20.31 
					130.12,31.78 138.92,31.78 				"/>
				<polygon class="st0" points="228.75,20.31 228.75,31.78 238.61,31.78 238.61,49.34 253.18,75.17 255.67,75.17 255.67,31.78 
					264.47,31.78 264.47,20.31 				"/>
				<path class="st0" d="M179.72,79.15h-14.46l9.77-17.33h44.53l9.77,17.33h-14.46v11.73h49.18V79.15h-13.2L208.47,3.98h-22.35
					l-42.38,75.17h-13.19v11.73h49.18V79.15z M197.3,22.33l15.36,27.23h-30.71L197.3,22.33z"/>
				<path class="st2" d="M261.03,105.68c-1.86,0-3.36,1.51-3.36,3.37c0,1.86,1.51,3.36,3.36,3.36c1.86,0,3.36-1.51,3.36-3.36
					C264.39,107.19,262.88,105.68,261.03,105.68 M261.03,111.69c-1.46,0-2.64-1.18-2.64-2.64c0-1.46,1.18-2.64,2.64-2.64
					c1.46,0,2.64,1.18,2.64,2.64C263.67,110.51,262.49,111.69,261.03,111.69"/>
				<path class="st2" d="M262.41,108.27c0-0.63-0.51-1.14-1.14-1.14h-1.62v3.85h0.72v-1.56h0.52l0.73,1.56h0.8l-0.76-1.63
					C262.09,109.19,262.41,108.76,262.41,108.27 M261.27,108.69h-0.9v-0.84h0.9c0.23,0,0.42,0.19,0.42,0.42
					C261.69,108.5,261.5,108.69,261.27,108.69"/>
			</g>
		</g>
	</g>
	<rect x="-35.15" y="264.66" class="st6" width="464.89" height="28.11"/>
	<text transform="matrix(1 0 0 1 13.1425 284.3734)" class="st7 st8 st9">Department Biological Sciences</text>
	<rect x="-68.33" y="224.06" class="st6" width="531.25" height="25.09"/>
	<text transform="matrix(1 0 0 1 -64.8555 245.0575)" class="st7 st10 st11">College of Sciences and Mathematics</text>
</g>
<g id="Caps" class="st4">
	<g class="st5">
		<g>
			<path class="st0" d="M130.49,189c0,3.18,0,7.14-4.9,9.35c-2.33,1.08-5.64,1.69-9.1,1.69c-4.41,0-7.86-0.85-10.56-2.61
				c-3.44-2.21-3.72-5.06-3.76-9.15v-23.1h-5.82v22.88c0,4.15,0,9.32,5.7,13.26c3.62,2.53,8.33,3.76,14.38,3.76
				c5.81,0,10.48-1.13,13.89-3.36c5.99-3.88,5.99-9.24,5.99-13.15v-23.37h-5.82V189z"/>
			<path class="st0" d="M295.3,176.72c0-4.65-2.19-7.24-3.49-8.37c-3.39-3.04-7.55-3.1-10.91-3.15h-26.48v38.95h5.82v-15.45h18.42
				l13.04,15.39l0.05,0.06h7.54L285,187.77C288.1,187.25,295.3,185.75,295.3,176.72z M289.33,176.94c0,1.58-0.43,2.93-1.29,4.02
				c-2.26,2.99-6.27,2.99-8.93,2.99h-18.87v-14.01h21.17c2.53,0.05,5.14,0.32,6.8,2.97C288.93,174.01,289.33,175.44,289.33,176.94z"
				/>
			<path class="st0" d="M345.17,165.19l0,27.24c0,0.59,0.05,2.53,0.28,4.84c-1.67-2.08-2.91-3.39-3.84-4.36
				c-0.87-0.91-25.82-27.39-26.07-27.66l-0.05-0.05h-5.84v38.95h5.53v-26c0-0.93-0.02-3.93-0.21-6.22c0.78,0.97,2.1,2.53,2.74,3.2
				l27.38,28.97l0.05,0.05h5.56v-38.95H345.17z"/>
			<path class="st0" d="M184.18,183.08c4.29-1.63,4.63-6.26,4.63-7.68c0-2.34-0.66-4.38-1.96-6.06c-3.03-3.83-7.93-4.15-12.7-4.15
				h-24.97v38.95h24.97c4.24,0,9.53,0,13.08-2.98c2.22-1.86,3.49-4.75,3.49-7.95C190.72,189.72,189,185.04,184.18,183.08z
				 M180.17,180.72c-1.51,0.85-3.43,0.85-5.13,0.85H155v-11.63h19.1c1.85,0,4.38,0,6.27,1.19c1.13,0.77,2.47,2.21,2.47,4.67
				C182.84,177.46,182.14,179.64,180.17,180.72z M155,186.32h20.89c1.96,0.02,4.64,0,6.63,1.54l0.06,0.05
				c0.54,0.46,2.17,1.85,2.17,4.87c0,2-0.68,3.61-2.03,4.78c-2.02,1.7-4.53,1.85-6.93,1.85H155V186.32z"/>
			<path class="st0" d="M69.97,165.19H64l-20.11,38.95h6.45l4.68-9.46h23.62l4.68,9.46h6.62L69.97,165.19z M57.44,189.93l9.5-19.19
				l9.21,19.19H57.44z"/>
			<path class="st0" d="M235.73,189c0,3.18,0,7.14-4.9,9.35c-2.33,1.08-5.64,1.69-9.1,1.69c-4.41,0-7.86-0.85-10.56-2.61
				c-3.44-2.21-3.72-5.06-3.76-9.15v-23.1h-5.82v22.88c0,4.15,0,9.32,5.7,13.26c3.62,2.53,8.33,3.76,14.38,3.76
				c5.81,0,10.48-1.13,13.89-3.36c5.99-3.88,5.99-9.24,5.99-13.15v-23.37h-5.82V189z"/>
		</g>
	</g>
	<g id="AU_PMS_00000085948774137237177230000011766870164574876603_" class="st5">
		<g>
			<path class="st1" d="M181.94,49.56h30.71L197.3,22.33L181.94,49.56z M188.75,45.58l8.55-15.16l8.55,15.16H188.75z"/>
			<g>
				<path class="st1" d="M268.45,35.75V16.34h-43.67v8.46L210.79,0h-27l-13.98,24.79v-8.46h-43.67v19.42h8.8v39.42h-8.37v19.68h8.67
					c1.6,9.98,11.27,29.4,62.06,29.4c50.79,0,60.46-19.42,62.06-29.4h8.67V75.17h-8.38V35.75H268.45z M130.12,31.78V20.31h35.72
					v11.46h-9.86v17.56l-14.57,25.83h-2.49V31.78H130.12z M163.64,35.75l-3.68,6.53v-6.53H163.64z M197.3,120.27
					c-39.39,0-55.65-12.22-58.05-25.42h19.66c6.86,8.65,24.47,10.93,38.39,10.93c13.92,0,31.53-2.28,38.39-10.93h19.66
					C252.95,108.05,236.69,120.27,197.3,120.27 M172.07,75.17l5.29-9.37h39.89l5.28,9.37h-11.63v19.68H230
					c-8.46,6.33-26.14,6.95-32.7,6.95c-6.56,0-24.24-0.63-32.7-6.95h19.11V75.17H172.07z M264.05,79.15v11.73h-49.18V79.15h14.46
					l-9.77-17.33h-44.53l-9.77,17.33h14.46v11.73h-49.18V79.15h13.19l42.38-75.17h22.35l42.38,75.17H264.05z M230.95,35.75h3.68
					v6.53L230.95,35.75z M255.67,31.78v43.39h-2.5l-14.57-25.83V31.78h-9.86V20.31h35.72v11.46H255.67z"/>
				<path class="st0" d="M197.3,105.78c-13.92,0-31.53-2.28-38.39-10.93h-19.66c2.4,13.2,18.65,25.42,58.05,25.42
					c39.4,0,55.65-12.22,58.05-25.42h-19.66C228.82,103.5,211.21,105.78,197.3,105.78"/>
				<polygon class="st0" points="138.92,75.17 141.41,75.17 155.98,49.34 155.98,31.78 165.84,31.78 165.84,20.31 130.12,20.31 
					130.12,31.78 138.92,31.78 				"/>
				<polygon class="st0" points="228.75,20.31 228.75,31.78 238.61,31.78 238.61,49.34 253.18,75.17 255.67,75.17 255.67,31.78 
					264.47,31.78 264.47,20.31 				"/>
				<path class="st0" d="M179.72,79.15h-14.46l9.77-17.33h44.53l9.77,17.33h-14.46v11.73h49.18V79.15h-13.2L208.47,3.98h-22.35
					l-42.38,75.17h-13.19v11.73h49.18V79.15z M197.3,22.33l15.36,27.23h-30.71L197.3,22.33z"/>
				<path class="st2" d="M261.03,105.68c-1.86,0-3.36,1.51-3.36,3.37c0,1.86,1.51,3.36,3.36,3.36c1.86,0,3.36-1.51,3.36-3.36
					C264.39,107.19,262.88,105.68,261.03,105.68 M261.03,111.69c-1.46,0-2.64-1.18-2.64-2.64c0-1.46,1.18-2.64,2.64-2.64
					c1.46,0,2.64,1.18,2.64,2.64C263.67,110.51,262.49,111.69,261.03,111.69"/>
				<path class="st2" d="M262.41,108.27c0-0.63-0.51-1.14-1.14-1.14h-1.62v3.85h0.72v-1.56h0.52l0.73,1.56h0.8l-0.76-1.63
					C262.09,109.19,262.41,108.76,262.41,108.27 M261.27,108.69h-0.9v-0.84h0.9c0.23,0,0.42,0.19,0.42,0.42
					C261.69,108.5,261.5,108.69,261.27,108.69"/>
			</g>
		</g>
	</g>
	<rect x="-35.15" y="264.66" class="st6" width="464.89" height="28.11"/>
	<text transform="matrix(1 0 0 1 87.6215 284.3734)" class="st7 st8 st9">Biological Sciences</text>
	<rect x="-68.33" y="224.06" class="st6" width="531.25" height="25.09"/>
	<text transform="matrix(1 0 0 1 -41.5171 245.0575)" class="st7 st10 st11">Sciences and Mathematics</text>
</g>
<g id="hybrid_copy" class="st4">
	<g class="st5">
		<g>
			<path class="st0" d="M130.49,189c0,3.18,0,7.14-4.9,9.35c-2.33,1.08-5.64,1.69-9.1,1.69c-4.41,0-7.86-0.85-10.56-2.61
				c-3.44-2.21-3.72-5.06-3.76-9.15v-23.1h-5.82v22.88c0,4.15,0,9.32,5.7,13.26c3.62,2.53,8.33,3.76,14.38,3.76
				c5.81,0,10.48-1.13,13.89-3.36c5.99-3.88,5.99-9.24,5.99-13.15v-23.37h-5.82V189z"/>
			<path class="st0" d="M295.3,176.72c0-4.65-2.19-7.24-3.49-8.37c-3.39-3.04-7.55-3.1-10.91-3.15h-26.48v38.95h5.82v-15.45h18.42
				l13.04,15.39l0.05,0.06h7.54L285,187.77C288.1,187.25,295.3,185.75,295.3,176.72z M289.33,176.94c0,1.58-0.43,2.93-1.29,4.02
				c-2.26,2.99-6.27,2.99-8.93,2.99h-18.87v-14.01h21.17c2.53,0.05,5.14,0.32,6.8,2.97C288.93,174.01,289.33,175.44,289.33,176.94z"
				/>
			<path class="st0" d="M345.17,165.19l0,27.24c0,0.59,0.05,2.53,0.28,4.84c-1.67-2.08-2.91-3.39-3.84-4.36
				c-0.87-0.91-25.82-27.39-26.07-27.66l-0.05-0.05h-5.84v38.95h5.53v-26c0-0.93-0.02-3.93-0.21-6.22c0.78,0.97,2.1,2.53,2.74,3.2
				l27.38,28.97l0.05,0.05h5.56v-38.95H345.17z"/>
			<path class="st0" d="M184.18,183.08c4.29-1.63,4.63-6.26,4.63-7.68c0-2.34-0.66-4.38-1.96-6.06c-3.03-3.83-7.93-4.15-12.7-4.15
				h-24.97v38.95h24.97c4.24,0,9.53,0,13.08-2.98c2.22-1.86,3.49-4.75,3.49-7.95C190.72,189.72,189,185.04,184.18,183.08z
				 M180.17,180.72c-1.51,0.85-3.43,0.85-5.13,0.85H155v-11.63h19.1c1.85,0,4.38,0,6.27,1.19c1.13,0.77,2.47,2.21,2.47,4.67
				C182.84,177.46,182.14,179.64,180.17,180.72z M155,186.32h20.89c1.96,0.02,4.64,0,6.63,1.54l0.06,0.05
				c0.54,0.46,2.17,1.85,2.17,4.87c0,2-0.68,3.61-2.03,4.78c-2.02,1.7-4.53,1.85-6.93,1.85H155V186.32z"/>
			<path class="st0" d="M69.97,165.19H64l-20.11,38.95h6.45l4.68-9.46h23.62l4.68,9.46h6.62L69.97,165.19z M57.44,189.93l9.5-19.19
				l9.21,19.19H57.44z"/>
			<path class="st0" d="M235.73,189c0,3.18,0,7.14-4.9,9.35c-2.33,1.08-5.64,1.69-9.1,1.69c-4.41,0-7.86-0.85-10.56-2.61
				c-3.44-2.21-3.72-5.06-3.76-9.15v-23.1h-5.82v22.88c0,4.15,0,9.32,5.7,13.26c3.62,2.53,8.33,3.76,14.38,3.76
				c5.81,0,10.48-1.13,13.89-3.36c5.99-3.88,5.99-9.24,5.99-13.15v-23.37h-5.82V189z"/>
		</g>
	</g>
	<g id="AU_PMS_00000090998859714171291730000007140551760739436468_" class="st5">
		<g>
			<path class="st1" d="M181.94,49.56h30.71L197.3,22.33L181.94,49.56z M188.75,45.58l8.55-15.16l8.55,15.16H188.75z"/>
			<g>
				<path class="st1" d="M268.45,35.75V16.34h-43.67v8.46L210.79,0h-27l-13.98,24.79v-8.46h-43.67v19.42h8.8v39.42h-8.37v19.68h8.67
					c1.6,9.98,11.27,29.4,62.06,29.4c50.79,0,60.46-19.42,62.06-29.4h8.67V75.17h-8.38V35.75H268.45z M130.12,31.78V20.31h35.72
					v11.46h-9.86v17.56l-14.57,25.83h-2.49V31.78H130.12z M163.64,35.75l-3.68,6.53v-6.53H163.64z M197.3,120.27
					c-39.39,0-55.65-12.22-58.05-25.42h19.66c6.86,8.65,24.47,10.93,38.39,10.93c13.92,0,31.53-2.28,38.39-10.93h19.66
					C252.95,108.05,236.69,120.27,197.3,120.27 M172.07,75.17l5.29-9.37h39.89l5.28,9.37h-11.63v19.68H230
					c-8.46,6.33-26.14,6.95-32.7,6.95c-6.56,0-24.24-0.63-32.7-6.95h19.11V75.17H172.07z M264.05,79.15v11.73h-49.18V79.15h14.46
					l-9.77-17.33h-44.53l-9.77,17.33h14.46v11.73h-49.18V79.15h13.19l42.38-75.17h22.35l42.38,75.17H264.05z M230.95,35.75h3.68
					v6.53L230.95,35.75z M255.67,31.78v43.39h-2.5l-14.57-25.83V31.78h-9.86V20.31h35.72v11.46H255.67z"/>
				<path class="st0" d="M197.3,105.78c-13.92,0-31.53-2.28-38.39-10.93h-19.66c2.4,13.2,18.65,25.42,58.05,25.42
					c39.4,0,55.65-12.22,58.05-25.42h-19.66C228.82,103.5,211.21,105.78,197.3,105.78"/>
				<polygon class="st0" points="138.92,75.17 141.41,75.17 155.98,49.34 155.98,31.78 165.84,31.78 165.84,20.31 130.12,20.31 
					130.12,31.78 138.92,31.78 				"/>
				<polygon class="st0" points="228.75,20.31 228.75,31.78 238.61,31.78 238.61,49.34 253.18,75.17 255.67,75.17 255.67,31.78 
					264.47,31.78 264.47,20.31 				"/>
				<path class="st0" d="M179.72,79.15h-14.46l9.77-17.33h44.53l9.77,17.33h-14.46v11.73h49.18V79.15h-13.2L208.47,3.98h-22.35
					l-42.38,75.17h-13.19v11.73h49.18V79.15z M197.3,22.33l15.36,27.23h-30.71L197.3,22.33z"/>
				<path class="st2" d="M261.03,105.68c-1.86,0-3.36,1.51-3.36,3.37c0,1.86,1.51,3.36,3.36,3.36c1.86,0,3.36-1.51,3.36-3.36
					C264.39,107.19,262.88,105.68,261.03,105.68 M261.03,111.69c-1.46,0-2.64-1.18-2.64-2.64c0-1.46,1.18-2.64,2.64-2.64
					c1.46,0,2.64,1.18,2.64,2.64C263.67,110.51,262.49,111.69,261.03,111.69"/>
				<path class="st2" d="M262.41,108.27c0-0.63-0.51-1.14-1.14-1.14h-1.62v3.85h0.72v-1.56h0.52l0.73,1.56h0.8l-0.76-1.63
					C262.09,109.19,262.41,108.76,262.41,108.27 M261.27,108.69h-0.9v-0.84h0.9c0.23,0,0.42,0.19,0.42,0.42
					C261.69,108.5,261.5,108.69,261.27,108.69"/>
			</g>
		</g>
	</g>
	<rect x="-35.15" y="264.66" class="st6" width="464.89" height="28.11"/>
	<text transform="matrix(1 0 0 1 85.395 284.3734)" class="st7 st8 st9">Culture and Talent</text>
	<rect x="-68.33" y="224.06" class="st6" width="531.25" height="25.09"/>
	<text transform="matrix(1 0 0 1 99.4214 245.0575)" class="st7 st10 st11">Advancement</text>
</g>
<g id="Caps_copy" class="st4">
	<g class="st5">
		<g>
			<path class="st0" d="M130.49,189c0,3.18,0,7.14-4.9,9.35c-2.33,1.08-5.64,1.69-9.1,1.69c-4.41,0-7.86-0.85-10.56-2.61
				c-3.44-2.21-3.72-5.06-3.76-9.15v-23.1h-5.82v22.88c0,4.15,0,9.32,5.7,13.26c3.62,2.53,8.33,3.76,14.38,3.76
				c5.81,0,10.48-1.13,13.89-3.36c5.99-3.88,5.99-9.24,5.99-13.15v-23.37h-5.82V189z"/>
			<path class="st0" d="M295.3,176.72c0-4.65-2.19-7.24-3.49-8.37c-3.39-3.04-7.55-3.1-10.91-3.15h-26.48v38.95h5.82v-15.45h18.42
				l13.04,15.39l0.05,0.06h7.54L285,187.77C288.1,187.25,295.3,185.75,295.3,176.72z M289.33,176.94c0,1.58-0.43,2.93-1.29,4.02
				c-2.26,2.99-6.27,2.99-8.93,2.99h-18.87v-14.01h21.17c2.53,0.05,5.14,0.32,6.8,2.97C288.93,174.01,289.33,175.44,289.33,176.94z"
				/>
			<path class="st0" d="M345.17,165.19l0,27.24c0,0.59,0.05,2.53,0.28,4.84c-1.67-2.08-2.91-3.39-3.84-4.36
				c-0.87-0.91-25.82-27.39-26.07-27.66l-0.05-0.05h-5.84v38.95h5.53v-26c0-0.93-0.02-3.93-0.21-6.22c0.78,0.97,2.1,2.53,2.74,3.2
				l27.38,28.97l0.05,0.05h5.56v-38.95H345.17z"/>
			<path class="st0" d="M184.18,183.08c4.29-1.63,4.63-6.26,4.63-7.68c0-2.34-0.66-4.38-1.96-6.06c-3.03-3.83-7.93-4.15-12.7-4.15
				h-24.97v38.95h24.97c4.24,0,9.53,0,13.08-2.98c2.22-1.86,3.49-4.75,3.49-7.95C190.72,189.72,189,185.04,184.18,183.08z
				 M180.17,180.72c-1.51,0.85-3.43,0.85-5.13,0.85H155v-11.63h19.1c1.85,0,4.38,0,6.27,1.19c1.13,0.77,2.47,2.21,2.47,4.67
				C182.84,177.46,182.14,179.64,180.17,180.72z M155,186.32h20.89c1.96,0.02,4.64,0,6.63,1.54l0.06,0.05
				c0.54,0.46,2.17,1.85,2.17,4.87c0,2-0.68,3.61-2.03,4.78c-2.02,1.7-4.53,1.85-6.93,1.85H155V186.32z"/>
			<path class="st0" d="M69.97,165.19H64l-20.11,38.95h6.45l4.68-9.46h23.62l4.68,9.46h6.62L69.97,165.19z M57.44,189.93l9.5-19.19
				l9.21,19.19H57.44z"/>
			<path class="st0" d="M235.73,189c0,3.18,0,7.14-4.9,9.35c-2.33,1.08-5.64,1.69-9.1,1.69c-4.41,0-7.86-0.85-10.56-2.61
				c-3.44-2.21-3.72-5.06-3.76-9.15v-23.1h-5.82v22.88c0,4.15,0,9.32,5.7,13.26c3.62,2.53,8.33,3.76,14.38,3.76
				c5.81,0,10.48-1.13,13.89-3.36c5.99-3.88,5.99-9.24,5.99-13.15v-23.37h-5.82V189z"/>
		</g>
	</g>
	<g id="AU_PMS_00000180340919981911131570000016520909863954671523_" class="st5">
		<g>
			<path class="st1" d="M181.94,49.56h30.71L197.3,22.33L181.94,49.56z M188.75,45.58l8.55-15.16l8.55,15.16H188.75z"/>
			<g>
				<path class="st1" d="M268.45,35.75V16.34h-43.67v8.46L210.79,0h-27l-13.98,24.79v-8.46h-43.67v19.42h8.8v39.42h-8.37v19.68h8.67
					c1.6,9.98,11.27,29.4,62.06,29.4c50.79,0,60.46-19.42,62.06-29.4h8.67V75.17h-8.38V35.75H268.45z M130.12,31.78V20.31h35.72
					v11.46h-9.86v17.56l-14.57,25.83h-2.49V31.78H130.12z M163.64,35.75l-3.68,6.53v-6.53H163.64z M197.3,120.27
					c-39.39,0-55.65-12.22-58.05-25.42h19.66c6.86,8.65,24.47,10.93,38.39,10.93c13.92,0,31.53-2.28,38.39-10.93h19.66
					C252.95,108.05,236.69,120.27,197.3,120.27 M172.07,75.17l5.29-9.37h39.89l5.28,9.37h-11.63v19.68H230
					c-8.46,6.33-26.14,6.95-32.7,6.95c-6.56,0-24.24-0.63-32.7-6.95h19.11V75.17H172.07z M264.05,79.15v11.73h-49.18V79.15h14.46
					l-9.77-17.33h-44.53l-9.77,17.33h14.46v11.73h-49.18V79.15h13.19l42.38-75.17h22.35l42.38,75.17H264.05z M230.95,35.75h3.68
					v6.53L230.95,35.75z M255.67,31.78v43.39h-2.5l-14.57-25.83V31.78h-9.86V20.31h35.72v11.46H255.67z"/>
				<path class="st0" d="M197.3,105.78c-13.92,0-31.53-2.28-38.39-10.93h-19.66c2.4,13.2,18.65,25.42,58.05,25.42
					c39.4,0,55.65-12.22,58.05-25.42h-19.66C228.82,103.5,211.21,105.78,197.3,105.78"/>
				<polygon class="st0" points="138.92,75.17 141.41,75.17 155.98,49.34 155.98,31.78 165.84,31.78 165.84,20.31 130.12,20.31 
					130.12,31.78 138.92,31.78 				"/>
				<polygon class="st0" points="228.75,20.31 228.75,31.78 238.61,31.78 238.61,49.34 253.18,75.17 255.67,75.17 255.67,31.78 
					264.47,31.78 264.47,20.31 				"/>
				<path class="st0" d="M179.72,79.15h-14.46l9.77-17.33h44.53l9.77,17.33h-14.46v11.73h49.18V79.15h-13.2L208.47,3.98h-22.35
					l-42.38,75.17h-13.19v11.73h49.18V79.15z M197.3,22.33l15.36,27.23h-30.71L197.3,22.33z"/>
				<path class="st2" d="M261.03,105.68c-1.86,0-3.36,1.51-3.36,3.37c0,1.86,1.51,3.36,3.36,3.36c1.86,0,3.36-1.51,3.36-3.36
					C264.39,107.19,262.88,105.68,261.03,105.68 M261.03,111.69c-1.46,0-2.64-1.18-2.64-2.64c0-1.46,1.18-2.64,2.64-2.64
					c1.46,0,2.64,1.18,2.64,2.64C263.67,110.51,262.49,111.69,261.03,111.69"/>
				<path class="st2" d="M262.41,108.27c0-0.63-0.51-1.14-1.14-1.14h-1.62v3.85h0.72v-1.56h0.52l0.73,1.56h0.8l-0.76-1.63
					C262.09,109.19,262.41,108.76,262.41,108.27 M261.27,108.69h-0.9v-0.84h0.9c0.23,0,0.42,0.19,0.42,0.42
					C261.69,108.5,261.5,108.69,261.27,108.69"/>
			</g>
		</g>
	</g>
	<rect x="-35.15" y="264.66" class="st6" width="464.89" height="28.11"/>
	<text transform="matrix(1 0 0 1 85.395 284.3734)" class="st7 st8 st9">Culture and Talent</text>
	<rect x="-68.33" y="224.06" class="st6" width="531.25" height="25.09"/>
	<text transform="matrix(1 0 0 1 73.5014 245.0575)" class="st7 st10 st11">Advancement</text>
</g>
</svg>
