<svg id="Lockup" xmlns="http://www.w3.org/2000/svg" viewBox="0 0 927.97 138.05"><defs><style>.cls-1{fill:#fff;}</style></defs><path class="cls-1" d="M33.42,80.83c7.12,5.32,22,5.84,27.49,5.84s20.37-.52,27.49-5.84H72.34V64.29h9.77l-4.44-7.88H44.15L39.7,64.29h9.78V80.83ZM41.6,63.18l3.19-5.66H77l3.2,5.66h-9V81.94H84.14c-7.86,3.38-19.91,3.63-23.23,3.63s-15.37-.25-23.23-3.63H50.59V63.18Z"/><path class="cls-1" d="M53.73,39.42H68.09L60.91,26.68Zm1.89-1.11,5.29-9.37,5.29,9.37Z"/><path class="cls-1" d="M88.25,30.6l4.6,8.16V30.6Zm3.49,3.94-1.59-2.83h1.59Z"/><path class="cls-1" d="M121.82,32.26V13.73H82.89v4L72.9,0h-24l-10,17.72v-4H0V32.26H7.39V63.18h-7V81.94H7.82c1.86,9,11.1,24.71,53.09,24.71S112.14,90.89,114,81.94h7.47V63.18h-7V32.26Zm-1.46,32V80.83h-7.29c-1.35,8.38-9.47,24.71-52.16,24.71S10.1,89.21,8.75,80.83H1.46V64.29h7V31.16H1.11V14.84h36.7V22L49.56,1.11H72.25L84,22V14.84h36.71V31.16h-7.39V64.29Z"/><path class="cls-1" d="M33.57,30.6H29v8.16Zm-3.49,1.11h1.59l-1.59,2.83Z"/><polygon class="cls-1" points="117.37 18.18 87.35 18.18 87.35 27.82 95.64 27.82 95.64 42.58 107.88 64.29 109.97 64.29 109.97 27.82 117.37 27.82 117.37 18.18"/><path class="cls-1" d="M60.91,90c-11.7,0-26.5-1.92-32.27-9.19H12.12c2,11.1,15.68,21.37,48.79,21.37s46.78-10.27,48.79-21.37H93.17C87.41,88.1,72.61,90,60.91,90Z"/><polygon class="cls-1" points="11.85 64.29 13.94 64.29 26.18 42.58 26.18 27.82 34.47 27.82 34.47 18.18 4.45 18.18 4.45 27.82 11.85 27.82 11.85 64.29"/><path class="cls-1" d="M114.48,89.94a2.83,2.83,0,1,0,2.82,2.82A2.82,2.82,0,0,0,114.48,89.94Zm0,5a2.22,2.22,0,1,1,2.22-2.22A2.22,2.22,0,0,1,114.48,95Z"/><path class="cls-1" d="M115.64,92.11a1,1,0,0,0-1-1h-1.37v3.23h.61V93.07h.43l.62,1.31h.67L115,93A1,1,0,0,0,115.64,92.11Zm-1,.35h-.76v-.71h.76a.36.36,0,0,1,0,.71Z"/><path class="cls-1" d="M70.3,4.45H51.52L15.89,67.63H4.8v9.86H46.14V67.63H34l8.21-14.56H79.62l8.22,14.56H75.68v9.86H117V67.63H105.92ZM48,42.76l12.9-22.89,12.9,22.89Z"/><rect class="cls-1" x="599.31" y="41.53" width="5.9" height="37.95"/><path class="cls-1" d="M651.88,41.53,638.8,69.88a14.14,14.14,0,0,0-1.13,2.91,22,22,0,0,0-1.44-3.49L623.14,41.53h-6.59l18.22,38h5.75l17.9-37.95Z"/><polygon class="cls-1" points="675.24 62.32 703.64 62.32 703.64 57.27 675.24 57.27 675.24 46.79 704.44 46.79 704.44 41.53 669.34 41.53 669.34 79.48 705.75 79.48 705.75 74.23 675.24 74.23 675.24 62.32"/><polygon class="cls-1" points="844.01 46.63 859.24 46.63 859.24 79.48 865.15 79.48 865.15 46.63 880.43 46.63 880.43 41.53 844.01 41.53 844.01 46.63"/><path class="cls-1" d="M920.29,41.53,906.93,58.19a9.53,9.53,0,0,0-1.16,1.69,9.78,9.78,0,0,0-1.28-2l-13-16.4h-7.61l18.95,23.22V79.48h5.9V64.85L928,41.53Z"/><path class="cls-1" d="M238.61,64.71c0,3.23.11,6.88-4.61,9a21.77,21.77,0,0,1-8.78,1.63c-4.27,0-7.61-.82-10.2-2.52-3.29-2.12-3.45-4.74-3.51-8.8V41.53h-5.9V63.81c0,4,0,9.08,5.56,12.92,3.52,2.46,8.1,3.66,14,3.66,5.65,0,10.2-1.1,13.5-3.27,5.85-3.79,5.85-9,5.85-12.83V41.53h-5.91Z"/><path class="cls-1" d="M403.19,52.81a10.53,10.53,0,0,0-3.4-8.2c-3.29-3-7.33-3-10.63-3.08H363.38v38h5.91v-15h17.65l12.71,15h7.53L393.29,63.57C396.32,63,403.19,61.52,403.19,52.81Zm-5.94.2A6.13,6.13,0,0,1,396,56.87c-2.1,2.78-5.86,2.78-8.59,2.78H369.29V46.47h20.34c2.43.05,4.92.11,6.54,2.68A7,7,0,0,1,397.25,53Z"/><path class="cls-1" d="M452.77,41.53V68c.05,1.88.07,2.52.26,4.46-1.44-1.77-1.9-2.28-3.56-4L424.1,41.53h-5.78v38h5.53V54.18a57.34,57.34,0,0,0-.2-5.79c.83,1,1.32,1.6,2.51,2.92l26.63,28.17h5.51V41.53Z"/><path class="cls-1" d="M292.64,59c4-1.65,4.36-6,4.36-7.46a9.47,9.47,0,0,0-1.91-5.93c-3-3.74-7.74-4.06-12.39-4.06H258.4v38h24.3c4.13,0,9.27,0,12.74-2.91a10,10,0,0,0,3.42-7.77A10.38,10.38,0,0,0,292.64,59Zm.26,9.39A5.77,5.77,0,0,1,291,73c-1.92,1.62-4.35,1.75-6.67,1.75h-20V62.17h20c1.92,0,4.54,0,6.54,1.54A5.73,5.73,0,0,1,292.9,68.37ZM264.3,57.43V46.31h18.35c1.89,0,4.24,0,6,1.13a5.13,5.13,0,0,1,2.37,4.46,5.32,5.32,0,0,1-2.55,4.71,10.13,10.13,0,0,1-4.94.82Z"/><path class="cls-1" d="M173.48,41.53l-19.59,38h6.43l4.55-9.22h22.79l4.56,9.22h6.59L179.36,41.53Zm11.69,24H167.31l9.06-18.32Z"/><path class="cls-1" d="M577.24,41.53V68c0,1.88.07,2.52.26,4.46-1.44-1.77-1.9-2.28-3.56-4L548.57,41.53h-5.78v38h5.53V54.18a57.34,57.34,0,0,0-.2-5.79c.83,1,1.32,1.6,2.51,2.92l26.63,28.17h5.51V41.53Z"/><path class="cls-1" d="M760.29,52.81a10.53,10.53,0,0,0-3.4-8.2c-3.29-3-7.34-3-10.64-3.08H720.48v38h5.91v-15H744l12.71,15h7.53L750.39,63.57C753.42,63,760.29,61.52,760.29,52.81Zm-5.95.2a6.13,6.13,0,0,1-1.23,3.86c-2.1,2.78-5.86,2.78-8.6,2.78H726.39V46.47h20.34c2.42.05,4.92.11,6.54,2.68A7,7,0,0,1,754.34,53Z"/><path class="cls-1" d="M343.6,64.71c0,3.23.11,6.88-4.61,9a21.77,21.77,0,0,1-8.78,1.63c-4.27,0-7.61-.82-10.2-2.52-3.3-2.12-3.46-4.74-3.51-8.8V41.53h-5.91V63.81c0,4,0,9.08,5.57,12.92,3.51,2.46,8.09,3.66,14,3.66,5.65,0,10.19-1.1,13.5-3.27,5.84-3.79,5.84-9,5.84-12.83V41.53h-5.9Z"/><path class="cls-1" d="M523,64.71c0,3.23.12,6.88-4.6,9a21.84,21.84,0,0,1-8.78,1.63c-4.28,0-7.61-.82-10.2-2.52-3.3-2.12-3.46-4.74-3.51-8.8V41.53H490V63.81c0,4,0,9.08,5.56,12.92,3.52,2.46,8.1,3.66,14,3.66,5.66,0,10.2-1.1,13.5-3.27,5.85-3.79,5.85-9,5.85-12.83V41.53H523Z"/><rect class="cls-1" x="826.91" y="41.53" width="5.9" height="37.95"/><path class="cls-1" d="M792.56,56.72c-4.63-.43-7.69-.59-9.79-1.33A4.11,4.11,0,0,1,780,51.56c0-4.17,5.11-5.91,12-5.91s11.19,2.21,13.6,5.13l5.4-2.19c-3.61-5.75-11.12-8-19.1-8-11.72,0-17.82,4.42-17.82,11.21a8.39,8.39,0,0,0,2.75,6.48c2.93,2.65,6.82,3,15.53,3.72,8.31.66,13,1.46,13,6s-4.7,7.23-12.35,7.23-13-2-16.44-6l-5.45,2.26c2.69,4.23,8.54,8.92,21.52,8.92S811.27,75,811.27,67.93c0-4.78-2.65-8-7.53-9.63C801,57.39,797,57.14,792.56,56.72Z"/><path class="cls-1" d="M170.94,112.08a12.79,12.79,0,0,0-8.47-2.84c-2.94,0-5.95,1.05-5.95,3.92s3.78,3.08,7.49,3.29c4,.28,10.43.67,10.43,6.79,0,5.32-4.72,7.46-10.22,7.46a17,17,0,0,1-12-4.69l1.85-2.1a14.48,14.48,0,0,0,10.22,4.2c3.89,0,7.11-1.4,7.11-4.48,0-3.43-3.5-4-7.39-4.24-4.93-.31-10.54-.66-10.54-6s5-6.79,9.11-6.79A16.68,16.68,0,0,1,172.76,110Z"/><path class="cls-1" d="M179.34,115.3a14.87,14.87,0,0,1,7.56-2.14c3.61,0,7.39,1.23,7.39,4.87v9.1a6.92,6.92,0,0,0,.52,3H192a6,6,0,0,1-.49-2.31,9.84,9.84,0,0,1-6.83,2.66c-4,0-6.55-2.34-6.55-5.63,0-3,2.7-5.39,7.57-5.39,2,0,4.51.49,5.81,1.71V118.8c0-2.31-2.21-3.26-4.69-3.26a12.09,12.09,0,0,0-6.45,2Zm12.15,10.15v-2.07c-1-1-3.12-1.75-5.36-1.75-3.71,0-5.18,1.4-5.18,3.19s1.51,3.29,4.27,3.29A9.16,9.16,0,0,0,191.49,125.45Z"/><path class="cls-1" d="M200.65,130.1V117.85a18.84,18.84,0,0,0-.45-4.16h2.56a10.11,10.11,0,0,1,.38,2.48c1.26-1.5,2.87-3,5.53-3a5.85,5.85,0,0,1,5.43,3.33,6.93,6.93,0,0,1,5.7-3.33,5.68,5.68,0,0,1,5.88,5.81V130.1h-2.83V119a3.36,3.36,0,0,0-3.5-3.36c-2.1,0-3.71,1.47-4.8,2.8V130.1h-2.8V118.52a3.34,3.34,0,0,0-3.5-2.91c-2.13,0-3.74,1.47-4.79,2.8V130.1Z"/><path class="cls-1" d="M246.58,113.69V125.9a21.7,21.7,0,0,0,.28,4.2H244.3a12.65,12.65,0,0,1-.24-2.52,7.76,7.76,0,0,1-6,3c-3.61,0-6.38-2.41-6.38-5.77V113.69h2.84v11.13c0,1.85,1.64,3.32,4,3.32a7.23,7.23,0,0,0,5.32-2.76V113.69Z"/><path class="cls-1" d="M268.31,127.51a11.73,11.73,0,0,1-8,3.08c-5.33,0-8.44-3.85-8.44-8.54a8.6,8.6,0,0,1,8.68-8.89c3.89,0,8.23,2.42,8.26,8.26a8.15,8.15,0,0,1,0,.84H254.66a5.66,5.66,0,0,0,5.91,5.85,8.29,8.29,0,0,0,5.89-2.42Zm-13.44-7.45h10.85c-.07-3.08-2.83-4.55-5.32-4.55A5.61,5.61,0,0,0,254.87,120.06Z"/><path class="cls-1" d="M274.15,130.1V105.6H277v24.5Z"/><path class="cls-1" d="M311.18,112.39a12.53,12.53,0,0,0-8.12-3,9.33,9.33,0,1,0,.28,18.66,12.58,12.58,0,0,0,7.39-2.24v-5.42h-7.42v-2.7H313.5v9.59a17.6,17.6,0,0,1-10.33,3.47c-7.18,0-12.67-5.39-12.67-12a12.22,12.22,0,0,1,12.53-12,16.07,16.07,0,0,1,10.26,3.85Z"/><path class="cls-1" d="M321.37,106a1.76,1.76,0,0,1,1.85,1.68,1.74,1.74,0,0,1-1.85,1.68,1.71,1.71,0,0,1-1.82-1.68A1.74,1.74,0,0,1,321.37,106ZM320,130.1V113.69h2.77V130.1Z"/><path class="cls-1" d="M329.31,130.1V117.85a19.67,19.67,0,0,0-.45-4.16h2.55a9.9,9.9,0,0,1,.39,2.52,7.84,7.84,0,0,1,6.05-3c3.61,0,6.34,2.42,6.34,5.81V130.1h-2.8V119c0-1.85-1.65-3.36-4-3.36a7.21,7.21,0,0,0-5.32,2.8V130.1Z"/><path class="cls-1" d="M350.52,130.1V117.85a19.67,19.67,0,0,0-.45-4.16h2.55a9.9,9.9,0,0,1,.39,2.52,7.84,7.84,0,0,1,6.05-3c3.61,0,6.34,2.42,6.34,5.81V130.1h-2.8V119c0-1.85-1.65-3.36-4-3.36a7.21,7.21,0,0,0-5.32,2.8V130.1Z"/><path class="cls-1" d="M402,126.15a15.63,15.63,0,0,1-11,4.55c-7.38,0-12.56-5.39-12.56-12a12,12,0,0,1,12.42-12,15.61,15.61,0,0,1,10.47,3.92l-2.07,2a12.62,12.62,0,0,0-8.33-3.26,9.33,9.33,0,1,0,.11,18.66,12.49,12.49,0,0,0,8.89-3.85Z"/><path class="cls-1" d="M414,113.16a8.72,8.72,0,1,1-8.79,8.68A8.56,8.56,0,0,1,414,113.16Zm0,15.09c3.57,0,5.95-2.91,5.95-6.41a6,6,0,0,0-5.95-6.33c-3.54,0-5.88,2.94-5.88,6.33S410.44,128.25,414,128.25Z"/><path class="cls-1" d="M428.26,130.1V105.6h2.8v24.5Z"/><path class="cls-1" d="M438,130.1V105.6h2.8v24.5Z"/><path class="cls-1" d="M462.77,127.51a11.75,11.75,0,0,1-8,3.08c-5.32,0-8.43-3.85-8.43-8.54a8.6,8.6,0,0,1,8.68-8.89c3.88,0,8.22,2.42,8.26,8.26a6.12,6.12,0,0,1,0,.84h-14.1a5.66,5.66,0,0,0,5.91,5.85,8.27,8.27,0,0,0,5.88-2.42Zm-13.44-7.45h10.85c-.07-3.08-2.84-4.55-5.32-4.55A5.61,5.61,0,0,0,449.33,120.06Z"/><path class="cls-1" d="M481,127.9a8,8,0,0,1-5.67,2.69c-4.45,0-8.19-3.43-8.19-8.64s3.78-8.79,8.36-8.79a7.48,7.48,0,0,1,5.74,3,9.4,9.4,0,0,1,.35-2.56h2.59a17.56,17.56,0,0,0-.38,4.2v13.3c0,3.78-2.8,6.9-8.23,6.9-3.74,0-6-1.26-7.46-2.84l1.69-1.64a7.49,7.49,0,0,0,5.77,2.13c3.57,0,5.43-2,5.43-4.55Zm0-2.28V118.2a7.12,7.12,0,0,0-5.25-2.59c-3,0-5.53,2.49-5.53,6.34s2.41,6.19,5.35,6.19A8,8,0,0,0,481,125.62Z"/><path class="cls-1" d="M505.54,127.51a11.75,11.75,0,0,1-8,3.08c-5.32,0-8.43-3.85-8.43-8.54a8.6,8.6,0,0,1,8.68-8.89c3.88,0,8.22,2.42,8.26,8.26a6.12,6.12,0,0,1,0,.84h-14.1a5.66,5.66,0,0,0,5.91,5.85,8.27,8.27,0,0,0,5.88-2.42Zm-13.44-7.45H503c-.07-3.08-2.84-4.55-5.32-4.55A5.61,5.61,0,0,0,492.1,120.06Z"/><path class="cls-1" d="M526.57,113.16a8.72,8.72,0,1,1-8.79,8.68A8.56,8.56,0,0,1,526.57,113.16Zm0,15.09c3.57,0,5.95-2.91,5.95-6.41a6,6,0,0,0-5.95-6.33c-3.54,0-5.88,2.94-5.88,6.33S523,128.25,526.57,128.25Z"/><path class="cls-1" d="M541.76,113.69v-3.36c0-3.82,2.63-5.12,4.87-5.12a6.89,6.89,0,0,1,3.78,1.05l-.56,2.28a4.93,4.93,0,0,0-2.7-.84,2.4,2.4,0,0,0-2.59,2.63v3.36h4.83v2.17h-4.83V130.1h-2.8V115.86h-3.22v-2.17Z"/><path class="cls-1" d="M574.84,119.43h-9.25v8h16.14v2.69H562.55V107.24h18.38v2.7H565.59v6.79h9.25Z"/><path class="cls-1" d="M586.49,130.1V117.85a19.06,19.06,0,0,0-.46-4.16h2.56a9.9,9.9,0,0,1,.38,2.52,7.86,7.86,0,0,1,6.06-3c3.6,0,6.33,2.42,6.33,5.81V130.1h-2.8V119c0-1.85-1.64-3.36-3.95-3.36a7.19,7.19,0,0,0-5.32,2.8V130.1Z"/><path class="cls-1" d="M620.3,127.9a8,8,0,0,1-5.67,2.69c-4.45,0-8.19-3.43-8.19-8.64s3.78-8.79,8.36-8.79a7.48,7.48,0,0,1,5.74,3,9.4,9.4,0,0,1,.35-2.56h2.59a17.56,17.56,0,0,0-.38,4.2v13.3c0,3.78-2.8,6.9-8.23,6.9-3.74,0-6-1.26-7.45-2.84l1.68-1.64a7.49,7.49,0,0,0,5.77,2.13c3.57,0,5.43-2,5.43-4.55Zm0-2.28V118.2a7.12,7.12,0,0,0-5.25-2.59c-3,0-5.53,2.49-5.53,6.34s2.41,6.19,5.35,6.19A8,8,0,0,0,620.3,125.62Z"/><path class="cls-1" d="M631,106a1.77,1.77,0,0,1,1.86,1.68,1.75,1.75,0,0,1-1.86,1.68,1.71,1.71,0,0,1-1.82-1.68A1.74,1.74,0,0,1,631,106Zm-1.36,24.12V113.69h2.76V130.1Z"/><path class="cls-1" d="M638.92,130.1V117.85a19.06,19.06,0,0,0-.46-4.16H641a9.9,9.9,0,0,1,.38,2.52,7.86,7.86,0,0,1,6.06-3c3.6,0,6.33,2.42,6.33,5.81V130.1H651V119c0-1.85-1.64-3.36-4-3.36a7.19,7.19,0,0,0-5.32,2.8V130.1Z"/><path class="cls-1" d="M675.28,127.51a11.73,11.73,0,0,1-8,3.08c-5.32,0-8.44-3.85-8.44-8.54a8.6,8.6,0,0,1,8.68-8.89c3.89,0,8.23,2.42,8.26,8.26a8.15,8.15,0,0,1,0,.84H661.63c.11,3.22,2.17,5.85,5.92,5.85a8.28,8.28,0,0,0,5.88-2.42Zm-13.44-7.45h10.85c-.07-3.08-2.83-4.55-5.32-4.55A5.61,5.61,0,0,0,661.84,120.06Z"/><path class="cls-1" d="M696.11,127.51a11.75,11.75,0,0,1-8,3.08c-5.32,0-8.43-3.85-8.43-8.54a8.6,8.6,0,0,1,8.68-8.89c3.88,0,8.22,2.42,8.26,8.26a6.12,6.12,0,0,1,0,.84h-14.1a5.66,5.66,0,0,0,5.91,5.85,8.27,8.27,0,0,0,5.88-2.42Zm-13.44-7.45h10.85c-.07-3.08-2.84-4.55-5.32-4.55A5.61,5.61,0,0,0,682.67,120.06Z"/><path class="cls-1" d="M701.78,130.1V117.85a17.29,17.29,0,0,0-.49-4.16h2.59a12,12,0,0,1,.38,2.83c1.12-1.68,2.59-3.36,5-3.36a3.38,3.38,0,0,1,2.48.84l-.91,2.56a4.07,4.07,0,0,0-2.2-.67c-1.79,0-3.08,1.61-4.06,3v11.2Z"/><path class="cls-1" d="M717,106a1.76,1.76,0,0,1,1.85,1.68,1.74,1.74,0,0,1-1.85,1.68,1.71,1.71,0,0,1-1.82-1.68A1.74,1.74,0,0,1,717,106ZM715.6,130.1V113.69h2.77V130.1Z"/><path class="cls-1" d="M724.91,130.1V117.85a19.67,19.67,0,0,0-.45-4.16H727a9.9,9.9,0,0,1,.39,2.52,7.84,7.84,0,0,1,6.05-3c3.61,0,6.34,2.42,6.34,5.81V130.1H737V119c0-1.85-1.65-3.36-4-3.36a7.21,7.21,0,0,0-5.32,2.8V130.1Z"/><path class="cls-1" d="M758.72,127.9a8,8,0,0,1-5.67,2.69c-4.44,0-8.19-3.43-8.19-8.64s3.78-8.79,8.37-8.79a7.48,7.48,0,0,1,5.74,3,9,9,0,0,1,.35-2.56h2.59a17.58,17.58,0,0,0-.39,4.2v13.3c0,3.78-2.8,6.9-8.22,6.9-3.75,0-6-1.26-7.46-2.84l1.68-1.64a7.52,7.52,0,0,0,5.78,2.13c3.57,0,5.42-2,5.42-4.55Zm0-2.28V118.2a7.08,7.08,0,0,0-5.25-2.59c-3,0-5.53,2.49-5.53,6.34s2.42,6.19,5.36,6.19A8,8,0,0,0,758.72,125.62Z"/></svg>