<svg id="Formal_Lockup" data-name="Formal Lockup" xmlns="http://www.w3.org/2000/svg" viewBox="0 0 383.42 355.86"><defs><style>.cls-1{fill:#fff;}.cls-2{fill:#0b2341;}</style></defs><path class="cls-1" d="M124.14,189.21c0,3.22.11,6.88-4.62,9a21.78,21.78,0,0,1-8.79,1.64c-4.28,0-7.62-.83-10.21-2.52-3.3-2.13-3.46-4.75-3.52-8.82V166H91.09v22.3c0,4,0,9.1,5.57,12.94,3.52,2.46,8.11,3.66,14,3.66,5.66,0,10.21-1.1,13.52-3.28,5.85-3.79,5.85-9,5.85-12.84V166h-5.91Z"/><path class="cls-1" d="M288.94,177.28a10.5,10.5,0,0,0-3.41-8.2c-3.29-3-7.34-3-10.65-3.08h-25.8v38H255V189h17.68l12.73,15h7.53L279,188.06C282.06,187.53,288.94,186,288.94,177.28Zm-6,.21a6.13,6.13,0,0,1-1.23,3.86c-2.1,2.78-5.87,2.78-8.61,2.78H255V170.94h20.37c2.43,0,4.93.1,6.55,2.68A7.05,7.05,0,0,1,283,177.49Z"/><path class="cls-1" d="M338.59,166v26.51c.05,1.89.06,2.53.25,4.47-1.44-1.77-1.9-2.28-3.56-4L309.88,166h-5.79v38h5.53V178.66a57.43,57.43,0,0,0-.2-5.8c.83,1,1.33,1.6,2.51,2.92L338.6,204h5.52V166Z"/><path class="cls-1" d="M178.24,183.46c4-1.65,4.37-6,4.37-7.46a9.5,9.5,0,0,0-1.92-5.94c-3-3.75-7.75-4.06-12.4-4.06H144v38h24.34c4.13,0,9.28,0,12.75-2.92a10,10,0,0,0,3.43-7.78A10.42,10.42,0,0,0,178.24,183.46Zm.26,9.41a5.77,5.77,0,0,1-1.94,4.58c-1.93,1.62-4.36,1.76-6.68,1.76h-20V186.65h20c1.92,0,4.54,0,6.55,1.55A5.75,5.75,0,0,1,178.5,192.87Zm-28.63-11V170.78h18.36c1.9,0,4.25,0,6.05,1.13a5.14,5.14,0,0,1,2.37,4.46,5.31,5.31,0,0,1-2.56,4.72,10.15,10.15,0,0,1-5,.82Z"/><path class="cls-1" d="M58.92,166,39.3,204h6.44l4.56-9.24H73.12L77.68,204h6.6L64.81,166Zm11.7,24H52.74l9.08-18.34Z"/><path class="cls-1" d="M229.27,189.21c0,3.22.11,6.88-4.62,9a21.81,21.81,0,0,1-8.79,1.64c-4.28,0-7.62-.83-10.21-2.52-3.31-2.13-3.47-4.75-3.52-8.82V166h-5.91v22.3c0,4,0,9.1,5.57,12.94,3.52,2.46,8.1,3.66,14,3.66,5.66,0,10.21-1.1,13.52-3.28,5.85-3.79,5.85-9,5.85-12.84V166h-5.91Z"/><rect class="cls-1" x="138.5" y="227.06" width="2.86" height="15.69"/><path class="cls-1" d="M164,227.06l-6.34,11.72a5.21,5.21,0,0,0-.55,1.2,8.09,8.09,0,0,0-.7-1.44l-6.35-11.48h-3.2l8.84,15.69h2.79l8.69-15.69Z"/><polygon class="cls-1" points="175.34 235.66 189.12 235.66 189.12 233.57 175.34 233.57 175.34 229.24 189.5 229.24 189.5 227.06 172.47 227.06 172.47 242.75 190.14 242.75 190.14 240.58 175.34 240.58 175.34 235.66"/><polygon class="cls-1" points="257.23 229.17 264.62 229.17 264.62 242.75 267.48 242.75 267.48 229.17 274.9 229.17 274.9 227.06 257.23 227.06 257.23 229.17"/><path class="cls-1" d="M294.24,227.06,287.76,234a4.07,4.07,0,0,0-.57.7,3.88,3.88,0,0,0-.62-.81l-6.33-6.78h-3.69l9.19,9.6v6.09h2.87V236.7l9.35-9.64Z"/><path class="cls-1" d="M127.79,227.06V238a16.88,16.88,0,0,0,.12,1.85,19.73,19.73,0,0,0-1.73-1.67l-12.3-11.13h-2.81v15.69h2.69V232.29a20.57,20.57,0,0,0-.1-2.39c.4.42.64.66,1.21,1.2l12.93,11.65h2.67V227.06Z"/><path class="cls-1" d="M216.61,231.72a4.06,4.06,0,0,0-1.66-3.38c-1.59-1.23-3.55-1.26-5.16-1.28h-12.5v15.69h2.86v-6.2h8.57l6.17,6.2h3.65l-6.74-6.58C213.27,236,216.61,235.33,216.61,231.72Zm-2.89.09a2.26,2.26,0,0,1-.6,1.59c-1,1.15-2.84,1.15-4.17,1.15h-8.8V229.1H210c1.18,0,2.39.05,3.18,1.11A2.64,2.64,0,0,1,213.72,231.81Z"/><path class="cls-1" d="M101.47,236.65c0,1.33.06,2.84-2.23,3.71A12.23,12.23,0,0,1,95,241a10,10,0,0,1-5-1c-1.6-.88-1.68-2-1.71-3.64v-9.3H85.46v9.21c0,1.67,0,3.76,2.7,5.34A13,13,0,0,0,95,243.13a13.47,13.47,0,0,0,6.55-1.36c2.84-1.56,2.84-3.72,2.84-5.3v-9.41h-2.87Z"/><rect class="cls-1" x="248.93" y="227.06" width="2.86" height="15.69"/><path class="cls-1" d="M232.26,233.34a26.25,26.25,0,0,1-4.75-.55,1.74,1.74,0,0,1-1.35-1.58c0-1.73,2.48-2.44,5.82-2.44s5.42.91,6.59,2.12l2.62-.91c-1.75-2.38-5.39-3.3-9.26-3.3-5.69,0-8.65,1.83-8.65,4.64a3.25,3.25,0,0,0,1.33,2.67c1.42,1.1,3.32,1.26,7.54,1.54,4,.27,6.33.6,6.33,2.47s-2.28,3-6,3-6.3-.83-8-2.47l-2.64.94c1.3,1.75,4.14,3.68,10.44,3.68s9-2.25,9-5.16c0-2-1.28-3.31-3.65-4A32.26,32.26,0,0,0,232.26,233.34Z"/><g id="AU_PMS" data-name="AU PMS"><path class="cls-1" d="M176.36,49.56h30.71L191.71,22.33Zm6.8-4,8.55-15.16,8.55,15.16Z"/><path class="cls-1" d="M262.86,35.75V16.34H219.19v8.45L205.21,0h-27l-14,24.79V16.34H120.56V35.75h8.8V75.17H121V94.85h8.67c1.6,10,11.27,29.4,62.06,29.4s60.46-19.42,62.06-29.4h8.67V75.17h-8.38V35.75Zm-138.32-4V20.31h35.72V31.78h-9.87V49.34L135.83,75.17h-2.5V31.78Zm33.51,4-3.68,6.53V35.75Zm33.66,84.52c-39.39,0-55.65-12.22-58.05-25.42h19.66c6.86,8.65,24.47,10.93,38.39,10.93s31.53-2.28,38.39-10.93h19.66c-2.4,13.2-18.65,25.42-58,25.42m-25.23-45.1,5.29-9.37h39.88l5.29,9.37H205.31V94.85h19.1c-8.46,6.33-26.14,7-32.7,7s-24.24-.62-32.7-7h19.11V75.17Zm92,4V90.88H209.28V79.15h14.47L214,61.82H169.44l-9.77,17.33h14.47V90.88H125V79.15h13.19L180.54,4h22.34l42.39,75.17Zm-33.09-43.4h3.68v6.53Zm24.72-4V75.17h-2.5L233,49.34V31.78h-9.86V20.31h35.71V31.78Z"/><path class="cls-2" d="M191.71,105.78c-13.92,0-31.53-2.28-38.39-10.93H133.66c2.4,13.2,18.66,25.42,58.05,25.42s55.65-12.22,58-25.42H230.1c-6.86,8.65-24.47,10.93-38.39,10.93"/><polygon class="cls-2" points="133.34 75.17 135.83 75.17 150.39 49.34 150.39 31.77 160.26 31.77 160.26 20.31 124.54 20.31 124.54 31.77 133.34 31.77 133.34 75.17"/><polygon class="cls-2" points="223.16 20.31 223.16 31.77 233.03 31.77 233.03 49.34 247.59 75.17 250.09 75.17 250.09 31.77 258.88 31.77 258.88 20.31 223.16 20.31"/><path class="cls-2" d="M174.14,79.15H159.67l9.77-17.33H214l9.77,17.33H209.28V90.88h49.18V79.15H245.27L202.88,4H180.54L138.15,79.15H125V90.88h49.18Zm17.57-56.82,15.36,27.23H176.36Z"/><path class="cls-2" d="M255.44,105.68a3.37,3.37,0,1,0,3.36,3.37,3.36,3.36,0,0,0-3.36-3.37m0,6a2.64,2.64,0,1,1,2.64-2.64,2.64,2.64,0,0,1-2.64,2.64"/><path class="cls-2" d="M256.82,108.27a1.14,1.14,0,0,0-1.14-1.14h-1.62V111h.72v-1.56h.52L256,111h.79l-.76-1.63a1.14,1.14,0,0,0,.76-1.07m-1.14.42h-.9v-.84h.9a.42.42,0,0,1,0,.84"/></g><path class="cls-1" d="M103.57,287.88a12.87,12.87,0,0,0-8.47-2.83c-2.95,0-6,1.05-6,3.92s3.78,3.08,7.5,3.29c4,.28,10.43.67,10.43,6.79,0,5.32-4.73,7.46-10.22,7.46a17,17,0,0,1-12-4.69l1.85-2.1a14.48,14.48,0,0,0,10.23,4.2c3.88,0,7.1-1.4,7.1-4.48,0-3.43-3.5-4-7.38-4.24-4.94-.31-10.54-.66-10.54-5.95s5-6.79,9.1-6.79a16.69,16.69,0,0,1,10.19,3.33Z"/><path class="cls-1" d="M112,291.11a14.87,14.87,0,0,1,7.56-2.14c3.61,0,7.39,1.23,7.39,4.87v9.1a6.78,6.78,0,0,0,.53,3H124.6a6.35,6.35,0,0,1-.49-2.31,9.82,9.82,0,0,1-6.83,2.66c-4,0-6.54-2.34-6.54-5.63,0-3,2.69-5.39,7.56-5.39,2,0,4.52.49,5.81,1.71v-2.34c0-2.31-2.2-3.26-4.69-3.26a12,12,0,0,0-6.44,2Zm12.15,10.15v-2.07c-.94-1.05-3.11-1.75-5.36-1.75-3.71,0-5.18,1.4-5.18,3.19s1.51,3.29,4.27,3.29A9.13,9.13,0,0,0,124.11,301.26Z"/><path class="cls-1" d="M133.28,305.91V293.66a18.86,18.86,0,0,0-.46-4.16h2.56a9.66,9.66,0,0,1,.38,2.48c1.26-1.5,2.87-3,5.53-3a5.85,5.85,0,0,1,5.43,3.33,7,7,0,0,1,5.71-3.33,5.69,5.69,0,0,1,5.88,5.81v11.13h-2.84V294.78a3.35,3.35,0,0,0-3.5-3.36c-2.1,0-3.71,1.47-4.79,2.8v11.69h-2.8V294.33a3.36,3.36,0,0,0-3.51-2.91c-2.13,0-3.74,1.47-4.79,2.8v11.69Z"/><path class="cls-1" d="M179.2,289.5v12.21a21.7,21.7,0,0,0,.28,4.2h-2.56a12.65,12.65,0,0,1-.24-2.52,7.76,7.76,0,0,1-6,3c-3.61,0-6.37-2.41-6.37-5.77V289.5h2.83v11.13c0,1.85,1.65,3.32,4,3.32a7.23,7.23,0,0,0,5.32-2.76V289.5Z"/><path class="cls-1" d="M200.93,303.32a11.73,11.73,0,0,1-8,3.08c-5.32,0-8.44-3.85-8.44-8.54a8.6,8.6,0,0,1,8.68-8.89c3.89,0,8.23,2.42,8.26,8.26a8.15,8.15,0,0,1,0,.84H187.28c.11,3.22,2.17,5.85,5.92,5.85a8.28,8.28,0,0,0,5.88-2.42Zm-13.44-7.45h10.85c-.07-3.08-2.83-4.55-5.32-4.55A5.61,5.61,0,0,0,187.49,295.87Z"/><path class="cls-1" d="M206.78,305.91v-24.5h2.8v24.5Z"/><path class="cls-1" d="M243.81,288.2a12.53,12.53,0,0,0-8.12-3.05,9.33,9.33,0,1,0,.28,18.66,12.57,12.57,0,0,0,7.38-2.24v-5.42h-7.42v-2.7h10.19V303a17.6,17.6,0,0,1-10.33,3.47c-7.17,0-12.67-5.39-12.67-12a12.22,12.22,0,0,1,12.53-12,16.07,16.07,0,0,1,10.26,3.85Z"/><path class="cls-1" d="M254,281.79a1.77,1.77,0,0,1,1.86,1.68,1.75,1.75,0,0,1-1.86,1.68,1.71,1.71,0,0,1-1.82-1.68A1.74,1.74,0,0,1,254,281.79Zm-1.36,24.12V289.5h2.76v16.41Z"/><path class="cls-1" d="M261.94,305.91V293.66a19.06,19.06,0,0,0-.46-4.16H264a9.9,9.9,0,0,1,.38,2.52,7.86,7.86,0,0,1,6.06-3c3.6,0,6.33,2.42,6.33,5.81v11.13H274V294.78c0-1.85-1.64-3.36-3.95-3.36a7.19,7.19,0,0,0-5.32,2.8v11.69Z"/><path class="cls-1" d="M283.15,305.91V293.66a19.06,19.06,0,0,0-.46-4.16h2.56a9.9,9.9,0,0,1,.38,2.52,7.86,7.86,0,0,1,6.06-3c3.6,0,6.33,2.42,6.33,5.81v11.13h-2.8V294.78c0-1.85-1.64-3.36-4-3.36a7.19,7.19,0,0,0-5.32,2.8v11.69Z"/><path class="cls-1" d="M23.52,344a15.58,15.58,0,0,1-10.95,4.55c-7.39,0-12.57-5.39-12.57-12s5.18-12,12.43-12a15.61,15.61,0,0,1,10.46,3.92l-2.06,2a12.62,12.62,0,0,0-8.33-3.26,9.33,9.33,0,1,0,.1,18.66A12.49,12.49,0,0,0,21.49,342Z"/><path class="cls-1" d="M35.49,331a8.72,8.72,0,1,1,0,17.43,8.72,8.72,0,1,1,0-17.43Zm0,15.09c3.57,0,5.95-2.91,5.95-6.41a6,6,0,0,0-5.95-6.33c-3.53,0-5.88,2.94-5.88,6.33S32,346.06,35.49,346.06Z"/><path class="cls-1" d="M49.77,347.91v-24.5h2.8v24.5Z"/><path class="cls-1" d="M59.53,347.91v-24.5h2.8v24.5Z"/><path class="cls-1" d="M84.28,345.32a11.73,11.73,0,0,1-8,3.08c-5.32,0-8.43-3.85-8.43-8.54A8.6,8.6,0,0,1,76.51,331c3.89,0,8.23,2.42,8.26,8.26a8.15,8.15,0,0,1,0,.84H70.63a5.66,5.66,0,0,0,5.91,5.85,8.31,8.31,0,0,0,5.89-2.42Zm-13.44-7.45H81.69c-.07-3.08-2.84-4.55-5.32-4.55A5.61,5.61,0,0,0,70.84,337.87Z"/><path class="cls-1" d="M102.55,345.71a8,8,0,0,1-5.67,2.69c-4.45,0-8.19-3.43-8.19-8.64S92.47,331,97.05,331a7.5,7.5,0,0,1,5.75,3,9,9,0,0,1,.35-2.56h2.59a17.58,17.58,0,0,0-.39,4.2V349c0,3.78-2.8,6.9-8.23,6.9-3.74,0-6-1.26-7.45-2.84l1.68-1.64a7.49,7.49,0,0,0,5.77,2.13c3.58,0,5.43-2,5.43-4.55Zm0-2.28V336a7.1,7.1,0,0,0-5.25-2.59c-3,0-5.53,2.49-5.53,6.34S94.18,346,97.12,346A8,8,0,0,0,102.55,343.43Z"/><path class="cls-1" d="M127.05,345.32a11.75,11.75,0,0,1-8,3.08c-5.32,0-8.43-3.85-8.43-8.54a8.6,8.6,0,0,1,8.68-8.89c3.88,0,8.22,2.42,8.26,8.26a6.12,6.12,0,0,1,0,.84H113.4a5.66,5.66,0,0,0,5.91,5.85,8.27,8.27,0,0,0,5.88-2.42Zm-13.44-7.45h10.85c-.07-3.08-2.84-4.55-5.32-4.55A5.61,5.61,0,0,0,113.61,337.87Z"/><path class="cls-1" d="M148.08,331a8.72,8.72,0,1,1-8.78,8.68A8.56,8.56,0,0,1,148.08,331Zm0,15.09c3.57,0,5.95-2.91,5.95-6.41a6,6,0,0,0-5.95-6.33c-3.53,0-5.88,2.94-5.88,6.33S144.55,346.06,148.08,346.06Z"/><path class="cls-1" d="M163.27,331.5v-3.37c0-3.81,2.63-5.11,4.87-5.11a6.89,6.89,0,0,1,3.78,1.05l-.56,2.28a4.93,4.93,0,0,0-2.7-.84,2.4,2.4,0,0,0-2.59,2.62v3.37h4.83v2.17h-4.83v14.24h-2.8V333.67h-3.22V331.5Z"/><path class="cls-1" d="M196.35,337.24h-9.24v8h16.13v2.69H184.06V325.05h18.38v2.7H187.11v6.79h9.24Z"/><path class="cls-1" d="M208,347.91V335.66a19.67,19.67,0,0,0-.45-4.16h2.55a9.9,9.9,0,0,1,.39,2.52,7.84,7.84,0,0,1,6-3c3.61,0,6.34,2.42,6.34,5.81v11.13h-2.8V336.78c0-1.85-1.65-3.36-4-3.36a7.21,7.21,0,0,0-5.32,2.8v11.69Z"/><path class="cls-1" d="M241.81,345.71a8,8,0,0,1-5.67,2.69c-4.44,0-8.19-3.43-8.19-8.64s3.78-8.79,8.37-8.79a7.48,7.48,0,0,1,5.74,3,9,9,0,0,1,.35-2.56H245a17.58,17.58,0,0,0-.39,4.2V349c0,3.78-2.8,6.9-8.22,6.9-3.75,0-6-1.26-7.46-2.84l1.68-1.64a7.52,7.52,0,0,0,5.78,2.13c3.57,0,5.42-2,5.42-4.55Zm0-2.28V336a7.08,7.08,0,0,0-5.25-2.59c-3,0-5.53,2.49-5.53,6.34s2.42,6.19,5.36,6.19A8,8,0,0,0,241.81,343.43Z"/><path class="cls-1" d="M252.49,323.79a1.76,1.76,0,0,1,1.85,1.68,1.74,1.74,0,0,1-1.85,1.68,1.71,1.71,0,0,1-1.82-1.68A1.74,1.74,0,0,1,252.49,323.79Zm-1.37,24.12V331.5h2.77v16.41Z"/><path class="cls-1" d="M260.43,347.91V335.66a19.67,19.67,0,0,0-.45-4.16h2.55a9.9,9.9,0,0,1,.39,2.52,7.84,7.84,0,0,1,6.05-3c3.61,0,6.34,2.42,6.34,5.81v11.13h-2.8V336.78c0-1.85-1.65-3.36-4-3.36a7.21,7.21,0,0,0-5.32,2.8v11.69Z"/><path class="cls-1" d="M296.8,345.32a11.75,11.75,0,0,1-8,3.08c-5.32,0-8.43-3.85-8.43-8.54A8.6,8.6,0,0,1,289,331c3.88,0,8.22,2.42,8.26,8.26a6.12,6.12,0,0,1,0,.84h-14.1a5.66,5.66,0,0,0,5.91,5.85,8.27,8.27,0,0,0,5.88-2.42Zm-13.44-7.45h10.85c-.07-3.08-2.84-4.55-5.32-4.55A5.61,5.61,0,0,0,283.36,337.87Z"/><path class="cls-1" d="M317.62,345.32a11.73,11.73,0,0,1-8,3.08c-5.32,0-8.44-3.85-8.44-8.54a8.6,8.6,0,0,1,8.68-8.89c3.89,0,8.23,2.42,8.26,8.26a8.15,8.15,0,0,1,0,.84H304c.11,3.22,2.17,5.85,5.92,5.85a8.28,8.28,0,0,0,5.88-2.42Zm-13.44-7.45H315c-.07-3.08-2.83-4.55-5.32-4.55A5.61,5.61,0,0,0,304.18,337.87Z"/><path class="cls-1" d="M323.29,347.91V335.66a17.29,17.29,0,0,0-.49-4.16h2.59a11.52,11.52,0,0,1,.38,2.83c1.13-1.68,2.6-3.36,5-3.36a3.39,3.39,0,0,1,2.49.84l-.91,2.56a4.1,4.1,0,0,0-2.21-.67c-1.78,0-3.08,1.61-4.06,3v11.2Z"/><path class="cls-1" d="M338.48,323.79a1.76,1.76,0,0,1,1.85,1.68,1.74,1.74,0,0,1-1.85,1.68,1.71,1.71,0,0,1-1.82-1.68A1.74,1.74,0,0,1,338.48,323.79Zm-1.37,24.12V331.5h2.77v16.41Z"/><path class="cls-1" d="M346.42,347.91V335.66a19.67,19.67,0,0,0-.45-4.16h2.55a9.48,9.48,0,0,1,.39,2.52,7.84,7.84,0,0,1,6.06-3c3.6,0,6.33,2.42,6.33,5.81v11.13h-2.8V336.78c0-1.85-1.64-3.36-3.95-3.36a7.19,7.19,0,0,0-5.32,2.8v11.69Z"/><path class="cls-1" d="M380.24,345.71a8,8,0,0,1-5.68,2.69c-4.44,0-8.19-3.43-8.19-8.64s3.78-8.79,8.37-8.79a7.48,7.48,0,0,1,5.74,3,9.4,9.4,0,0,1,.35-2.56h2.59a17.56,17.56,0,0,0-.38,4.2V349c0,3.78-2.8,6.9-8.23,6.9-3.75,0-6-1.26-7.46-2.84l1.68-1.64a7.52,7.52,0,0,0,5.78,2.13c3.57,0,5.43-2,5.43-4.55Zm0-2.28V336a7.12,7.12,0,0,0-5.26-2.59c-3,0-5.53,2.49-5.53,6.34s2.42,6.19,5.36,6.19A8,8,0,0,0,380.24,343.43Z"/></svg>