<svg id="Lock_up" data-name="Lock up" xmlns="http://www.w3.org/2000/svg" viewBox="0 0 306.82 245.57"><defs><style>.cls-1{fill:#fff;}.cls-2{fill:#0b2341;}</style></defs><path class="cls-1" d="M86.6,189c0,3.18,0,7.14-4.9,9.35a22.77,22.77,0,0,1-9.1,1.69c-4.41,0-7.86-.85-10.56-2.61-3.44-2.21-3.72-5.06-3.76-9.15V165.2H52.46v22.87c0,4.16,0,9.33,5.7,13.26,3.63,2.53,8.33,3.76,14.38,3.76,5.81,0,10.48-1.13,13.89-3.37,6-3.87,6-9.24,6-13.15V165.2H86.6Z"/><path class="cls-1" d="M251.41,176.72a10.71,10.71,0,0,0-3.49-8.37c-3.38-3-7.55-3.11-10.9-3.15H210.53v39h5.82V188.7h18.42l13,15.39.05.06h7.54l-14.29-16.37C244.22,187.25,251.41,185.76,251.41,176.72Zm-6,.23a6.37,6.37,0,0,1-1.29,4c-2.26,3-6.28,3-8.93,3H216.35v-14h21.17c2.53.05,5.13.32,6.8,3A7.4,7.4,0,0,1,245.45,177Z"/><path class="cls-1" d="M301.29,165.2v27.23c0,.6,0,2.53.28,4.84-1.66-2.08-2.91-3.39-3.84-4.36s-25.82-27.39-26.07-27.66l-.05-.05h-5.84v39h5.53v-26c0-.93,0-3.94-.21-6.22.78,1,2.1,2.53,2.73,3.2l27.38,29,.06.05h5.56v-39Z"/><path class="cls-1" d="M140.29,183.09c4.29-1.64,4.63-6.26,4.63-7.68a9.65,9.65,0,0,0-1.95-6.06c-3-3.83-7.94-4.15-12.7-4.15h-25v39h25c4.24,0,9.52,0,13.08-3a10.26,10.26,0,0,0,3.49-7.95A10.78,10.78,0,0,0,140.29,183.09Zm-4-2.36a10.53,10.53,0,0,1-5.13.85h-20V169.94h19.1c1.85,0,4.38,0,6.27,1.19a5.45,5.45,0,0,1,2.48,4.66A5.58,5.58,0,0,1,136.28,180.73Zm-25.17,5.59H132c2,0,4.64,0,6.62,1.54l.07,0a6.6,6.6,0,0,1,.14,9.65c-2,1.7-4.53,1.84-6.94,1.84H111.11Z"/><path class="cls-1" d="M26.09,165.2h-6L0,204.15H6.45l4.68-9.46H34.75l4.68,9.46h6.62ZM13.56,189.94l9.49-19.19,9.21,19.19Z"/><path class="cls-1" d="M191.84,189c0,3.18,0,7.14-4.9,9.35a22.81,22.81,0,0,1-9.1,1.69c-4.41,0-7.87-.85-10.57-2.61-3.43-2.21-3.71-5.06-3.75-9.15V165.2H157.7v22.87c0,4.16,0,9.33,5.7,13.26,3.62,2.53,8.33,3.76,14.38,3.76,5.81,0,10.48-1.13,13.89-3.37,6-3.87,6-9.24,6-13.15V165.2h-5.82Z"/><g id="AU_PMS" data-name="AU PMS"><path class="cls-1" d="M138.05,49.56h30.71L153.41,22.33Zm6.81-4,8.55-15.16L162,45.58Z"/><path class="cls-1" d="M224.56,35.75V16.34H180.88v8.45L166.91,0h-27l-14,24.79V16.34H82.26V35.75h8.8V75.17H82.68V94.85h8.67c1.6,10,11.27,29.4,62.06,29.4s60.46-19.42,62.06-29.4h8.67V75.17h-8.38V35.75Zm-138.32-4V20.31H122V31.78h-9.86V49.34L97.53,75.17H95V31.78Zm33.51,4-3.68,6.53V35.75Zm33.66,84.52c-39.4,0-55.65-12.22-58-25.42H115c6.86,8.65,24.47,10.93,38.39,10.93s31.53-2.28,38.39-10.93h19.66c-2.4,13.2-18.66,25.42-58.05,25.42m-25.23-45.1,5.29-9.37h39.88l5.29,9.37H167V94.85h19.11c-8.46,6.33-26.14,7-32.7,7s-24.24-.62-32.7-7h19.11V75.17Zm92,4V90.88H171V79.15h14.47l-9.77-17.33H131.14l-9.77,17.33h14.47V90.88H86.66V79.15H99.85L142.23,4h22.35L207,79.15Zm-33.09-43.4h3.68v6.53Zm24.72-4V75.17h-2.5L194.73,49.34V31.78h-9.87V20.31h35.72V31.78Z"/><path class="cls-2" d="M153.41,105.78c-13.92,0-31.53-2.28-38.39-10.93H95.36c2.4,13.2,18.65,25.42,58.05,25.42s55.65-12.22,58.05-25.42H191.8c-6.86,8.65-24.47,10.93-38.39,10.93"/><polygon class="cls-2" points="95.03 75.17 97.53 75.17 112.09 49.34 112.09 31.77 121.95 31.77 121.95 20.31 86.23 20.31 86.23 31.77 95.03 31.77 95.03 75.17"/><polygon class="cls-2" points="184.86 20.31 184.86 31.77 194.72 31.77 194.72 49.34 209.29 75.17 211.79 75.17 211.79 31.77 220.58 31.77 220.58 20.31 184.86 20.31"/><path class="cls-2" d="M135.84,79.15H121.37l9.77-17.33h44.54l9.77,17.33H171V90.88h49.18V79.15H207L164.58,4H142.23L99.85,79.15H86.66V90.88h49.18Zm17.57-56.82,15.35,27.23H138.05Z"/><path class="cls-2" d="M217.14,105.68a3.37,3.37,0,1,0,3.36,3.37,3.36,3.36,0,0,0-3.36-3.37m0,6a2.64,2.64,0,1,1,2.64-2.64,2.64,2.64,0,0,1-2.64,2.64"/><path class="cls-2" d="M218.52,108.27a1.14,1.14,0,0,0-1.14-1.14h-1.62V111h.72v-1.56H217l.72,1.56h.8l-.76-1.63a1.14,1.14,0,0,0,.76-1.07m-1.14.42h-.9v-.84h.9a.42.42,0,0,1,0,.84"/></g><path class="cls-1" d="M55.91,235.91H48v6.84H61.82v2.31H45.38V225.47H61.13v2.31H48v5.82h7.92Z"/><path class="cls-1" d="M83.6,225.47v19.59H81.23L68.78,230h0v15H66.14V225.47h2.37L81,240.5h0v-15Z"/><path class="cls-1" d="M106.07,229.88a10.74,10.74,0,0,0-7-2.61,8,8,0,1,0,.24,16,10.78,10.78,0,0,0,6.33-1.92v-4.65H99.32v-2.31h8.73v8.22a15.09,15.09,0,0,1-8.85,3c-6.15,0-10.86-4.62-10.86-10.32A10.47,10.47,0,0,1,99.08,225a13.8,13.8,0,0,1,8.79,3.3Z"/><path class="cls-1" d="M113.72,245.06V225.47h2.61v19.59Z"/><path class="cls-1" d="M140.3,225.47v19.59h-2.37l-12.45-15h0v15h-2.61V225.47h2.37l12.45,15h0v-15Z"/><path class="cls-1" d="M157.34,235.91h-7.92v6.84h13.83v2.31H146.81V225.47h15.75v2.31H149.42v5.82h7.92Z"/><path class="cls-1" d="M178.1,235.91h-7.92v6.84H184v2.31H167.57V225.47h15.75v2.31H170.18v5.82h7.92Z"/><path class="cls-1" d="M188.33,245.06V225.47h10.8a7.12,7.12,0,0,1,5.49,2,5.5,5.5,0,0,1,1.5,3.84,5.69,5.69,0,0,1-4.56,5.46l4.83,8.31h-3l-4.5-8h-8v8Zm2.61-17.28v7h8.85a3.59,3.59,0,0,0,3.75-3.51,3.33,3.33,0,0,0-.93-2.28,4.56,4.56,0,0,0-3.48-1.2Z"/><path class="cls-1" d="M211.25,245.06V225.47h2.61v19.59Z"/><path class="cls-1" d="M237.83,225.47v19.59h-2.37L223,230h0v15h-2.61V225.47h2.37l12.45,15h0v-15Z"/><path class="cls-1" d="M260.3,229.88a10.74,10.74,0,0,0-7-2.61,8,8,0,1,0,.24,16,10.78,10.78,0,0,0,6.33-1.92v-4.65h-6.36v-2.31h8.73v8.22a15.09,15.09,0,0,1-8.85,3c-6.15,0-10.86-4.62-10.86-10.32A10.47,10.47,0,0,1,253.31,225a13.8,13.8,0,0,1,8.79,3.3Z"/></svg>