<?xml version="1.0" encoding="utf-8"?>
<!-- Generator: Adobe Illustrator 26.2.1, SVG Export Plug-In . SVG Version: 6.00 Build 0)  -->
<svg version="1.1" xmlns="http://www.w3.org/2000/svg" xmlns:xlink="http://www.w3.org/1999/xlink" x="0px" y="0px"
	 viewBox="0 0 382.37 298.5" style="enable-background:new 0 0 382.37 298.5;" xml:space="preserve">
<style type="text/css">
	.st0{fill:#0B2341;}
	.st1{fill:#E86100;}
	.st2{fill:#0C223F;}
	.st3{fill:#FFFFFF;}
	.st4{display:none;}
	.st5{display:inline;}
	.st6{fill:#231F20;}
	.st7{display:inline;fill:none;}
	.st8{display:inline;fill:#E86100;}
	.st9{font-family:'UtopiaStd-Italic';}
	.st10{font-size:28px;}
	.st11{font-family:'SweetSansPro-Regular';}
	.st12{font-size:30px;}
</style>
<g id="Lock_up">
	<g>
		<g>
			<path class="st1" d="M124.73,189c0,3.18,0,7.14-4.9,9.35c-2.33,1.08-5.64,1.69-9.1,1.69c-4.41,0-7.86-0.85-10.56-2.61
				c-3.44-2.21-3.72-5.06-3.76-9.15v-23.1h-5.82v22.88c0,4.15,0,9.32,5.7,13.26c3.62,2.53,8.33,3.76,14.38,3.76
				c5.81,0,10.48-1.13,13.89-3.36c5.99-3.88,5.99-9.24,5.99-13.15v-23.37h-5.82V189z"/>
			<path class="st1" d="M289.54,176.71c0-4.65-2.19-7.24-3.49-8.37c-3.39-3.04-7.55-3.1-10.91-3.15h-26.48v38.95h5.82v-15.45h18.42
				l13.04,15.39l0.05,0.06h7.54l-14.29-16.38C282.34,187.24,289.54,185.75,289.54,176.71z M283.57,176.94
				c0,1.58-0.43,2.93-1.29,4.02c-2.26,2.99-6.27,2.99-8.93,2.99h-18.87v-14.01h21.17c2.53,0.05,5.14,0.32,6.8,2.97
				C283.17,174.01,283.57,175.44,283.57,176.94z"/>
			<path class="st1" d="M339.41,165.19l0,27.24c0,0.59,0.05,2.53,0.28,4.84c-1.67-2.08-2.91-3.39-3.84-4.36
				c-0.87-0.91-25.82-27.39-26.07-27.66l-0.05-0.05h-5.84v38.95h5.53v-26c0-0.93-0.02-3.93-0.21-6.22c0.78,0.97,2.1,2.53,2.74,3.2
				l27.38,28.97l0.05,0.05h5.56v-38.95H339.41z"/>
			<path class="st1" d="M178.42,183.08c4.29-1.63,4.63-6.26,4.63-7.68c0-2.34-0.66-4.38-1.96-6.06c-3.03-3.83-7.93-4.15-12.7-4.15
				h-24.97v38.95h24.97c4.24,0,9.53,0,13.08-2.98c2.22-1.86,3.49-4.75,3.49-7.95C184.96,189.72,183.24,185.03,178.42,183.08z
				 M174.41,180.72c-1.51,0.85-3.43,0.85-5.13,0.85h-20.03v-11.63h19.1c1.85,0,4.38,0,6.27,1.19c1.13,0.77,2.47,2.21,2.47,4.67
				C177.08,177.46,176.38,179.64,174.41,180.72z M149.24,186.32h20.89c1.96,0.02,4.64,0,6.63,1.54l0.06,0.05
				c0.54,0.46,2.17,1.85,2.17,4.87c0,2-0.68,3.61-2.03,4.78c-2.02,1.7-4.53,1.85-6.93,1.85h-20.79V186.32z"/>
			<path class="st1" d="M64.21,165.19h-5.97l-20.11,38.95h6.45l4.68-9.46h23.62l4.68,9.46h6.62L64.21,165.19z M51.68,189.93
				l9.5-19.19l9.21,19.19H51.68z"/>
			<path class="st1" d="M229.96,189c0,3.18,0,7.14-4.9,9.35c-2.33,1.08-5.64,1.69-9.1,1.69c-4.41,0-7.86-0.85-10.56-2.61
				c-3.44-2.21-3.72-5.06-3.76-9.15v-23.1h-5.82v22.88c0,4.15,0,9.32,5.7,13.26c3.62,2.53,8.33,3.76,14.38,3.76
				c5.81,0,10.48-1.13,13.89-3.36c5.99-3.88,5.99-9.24,5.99-13.15v-23.37h-5.82V189z"/>
		</g>
	</g>
	<g>
		<g>
			<path class="st1" d="M159.5,94.21c8.29,6.2,25.61,6.81,32.04,6.81c6.43,0,23.75-0.61,32.04-6.81h-18.72V74.93h11.4l-5.18-9.18
				H172l-5.18,9.18h11.4v19.28H159.5z M169.03,73.64l3.72-6.6h37.57l3.72,6.6h-10.48V95.5h15.05c-9.16,3.94-23.2,4.23-27.08,4.23
				c-3.87,0-17.92-0.29-27.07-4.23h15.05V73.64H169.03z"/>
			<path class="st1" d="M183.16,45.95h16.74l-8.37-14.85L183.16,45.95z M185.37,44.65l6.16-10.93l6.16,10.93H185.37z"/>
			<path class="st1" d="M223.4,35.67l5.36,9.51v-9.51H223.4z M227.47,40.25l-1.86-3.29h1.86V40.25z"/>
			<path class="st1" d="M262.53,37.61V16h-45.37v4.66L205.51,0h-27.96l-11.65,20.66V16h-45.37v21.6h8.62v36.03h-8.2V95.5h8.71
				c2.16,10.43,12.93,28.8,61.87,28.8c48.95,0,59.72-18.37,61.88-28.8h8.71V73.64h-8.21V37.61H262.53z M260.82,74.93v19.28h-8.49
				c-1.57,9.77-11.05,28.8-60.8,28.8s-59.23-19.03-60.8-28.8h-8.49V74.93h8.21V36.32h-8.62V17.29h42.78v8.28l13.7-24.29h26.45
				l13.69,24.29v-8.28h42.79v19.02h-8.62v38.62H260.82z"/>
			<path class="st1" d="M159.67,35.67h-5.36v9.51L159.67,35.67z M155.6,36.96h1.86l-1.86,3.29V36.96z"/>
			<polygon class="st1" points="257.34,21.19 222.35,21.19 222.35,32.42 232.01,32.42 232.01,49.63 246.28,74.93 248.72,74.93 
				248.72,32.42 257.34,32.42 			"/>
			<path class="st1" d="M191.53,104.92c-13.63,0-30.88-2.24-37.61-10.71h-19.26c2.35,12.93,18.27,24.9,56.87,24.9
				c38.59,0,54.52-11.97,56.87-24.9h-19.26C222.42,102.68,205.17,104.92,191.53,104.92z"/>
			<polygon class="st1" points="134.35,74.93 136.79,74.93 151.06,49.63 151.06,32.42 160.72,32.42 160.72,21.19 125.73,21.19 
				125.73,32.42 134.35,32.42 			"/>
			<path class="st1" d="M253.97,104.83c-1.82,0-3.3,1.47-3.3,3.3c0,1.82,1.47,3.29,3.3,3.29c1.82,0,3.29-1.47,3.29-3.29
				C257.26,106.3,255.79,104.83,253.97,104.83z M253.97,110.71c-1.43,0-2.59-1.16-2.59-2.59c0-1.43,1.16-2.59,2.59-2.59
				c1.43,0,2.59,1.16,2.59,2.59C256.56,109.55,255.4,110.71,253.97,110.71z"/>
			<path class="st1" d="M255.32,107.36c0-0.62-0.5-1.12-1.12-1.12h-1.59V110h0.71v-1.53h0.51l0.71,1.53h0.78l-0.74-1.59
				C255.01,108.26,255.32,107.84,255.32,107.36z M254.2,107.77h-0.88v-0.82h0.88c0.23,0,0.41,0.18,0.41,0.41
				C254.61,107.58,254.43,107.77,254.2,107.77z"/>
			<path class="st1" d="M202.48,5.19h-21.89l-41.52,73.64h-12.93v11.49h48.18V78.83h-14.17l9.57-16.97h43.63l9.57,16.97h-14.17
				v11.49h48.18V78.83H244L202.48,5.19z M176.49,49.84l15.04-26.68l15.04,26.68H176.49z"/>
		</g>
	</g>
	<g>
		<path class="st1" d="M103.04,230.53c-1.37-1.23-4.27-2.84-8.47-2.84c-2.94,0-5.95,1.05-5.95,3.92c0,2.94,3.78,3.08,7.49,3.29
			c3.99,0.28,10.43,0.67,10.43,6.79c0,5.32-4.73,7.46-10.22,7.46c-5.81,0-9.52-2.42-12.01-4.69l1.86-2.1
			c1.92,1.79,5.11,4.2,10.22,4.2c3.89,0,7.11-1.4,7.11-4.48c0-3.43-3.5-3.96-7.39-4.24c-4.94-0.32-10.54-0.67-10.54-5.95
			c0-5.22,5-6.79,9.1-6.79c4.73,0,8.44,1.89,10.19,3.33L103.04,230.53z"/>
		<path class="st1" d="M111.44,233.75c1.47-0.91,4.24-2.13,7.56-2.13c3.61,0,7.39,1.22,7.39,4.87v9.1c0,0.88,0.07,2.1,0.52,2.97
			h-2.83c-0.32-0.59-0.46-1.58-0.49-2.31c-1.26,1.15-3.46,2.66-6.83,2.66c-4.03,0-6.55-2.35-6.55-5.64c0-2.98,2.7-5.39,7.56-5.39
			c2.03,0,4.52,0.49,5.81,1.71v-2.34c0-2.31-2.21-3.26-4.69-3.26c-2.7,0-5.29,1.19-6.44,2.03L111.44,233.75z M123.58,243.9v-2.07
			c-0.95-1.05-3.12-1.75-5.36-1.75c-3.71,0-5.18,1.4-5.18,3.19c0,1.82,1.51,3.29,4.27,3.29
			C120.75,246.56,123.27,244.32,123.58,243.9z"/>
		<path class="st1" d="M132.75,248.56v-12.25c0-1.37-0.14-2.73-0.46-4.17h2.55c0.25,0.88,0.35,1.54,0.38,2.48
			c1.26-1.5,2.87-3.01,5.53-3.01c2.55,0,4.52,1.4,5.43,3.33c1.19-1.71,3.04-3.33,5.71-3.33c3.33,0,5.88,2.42,5.88,5.81v11.13h-2.84
			v-11.13c0-1.86-1.43-3.36-3.5-3.36c-2.1,0-3.71,1.47-4.79,2.8v11.69h-2.8v-11.59c-0.17-1.54-1.47-2.91-3.5-2.91
			c-2.14,0-3.75,1.47-4.8,2.8v11.69H132.75z"/>
		<path class="st1" d="M178.67,232.14v12.22c0,1.33,0,2.77,0.28,4.2h-2.56c-0.17-0.77-0.25-1.75-0.25-2.52
			c-1.37,1.51-3.12,3.01-6.02,3.01c-3.61,0-6.37-2.42-6.37-5.78v-11.13h2.84v11.13c0,1.86,1.64,3.33,3.96,3.33
			c2.38,0,4.13-1.44,5.32-2.77v-11.69H178.67z"/>
		<path class="st1" d="M200.41,245.97c-1.79,1.71-4.69,3.08-8.02,3.08c-5.32,0-8.44-3.85-8.44-8.54c0-4.97,3.64-8.89,8.68-8.89
			c3.89,0,8.23,2.42,8.26,8.26c0,0.25,0,0.56-0.04,0.84h-14.11c0.11,3.22,2.17,5.85,5.92,5.85c2.34,0,4.48-0.98,5.88-2.42
			L200.41,245.97z M186.97,238.51h10.85c-0.07-3.08-2.83-4.55-5.32-4.55C189.56,233.96,187.6,235.95,186.97,238.51z"/>
		<path class="st1" d="M206.25,248.56v-24.5h2.8v24.5H206.25z"/>
		<path class="st1" d="M243.28,230.84c-2.03-1.89-5.25-3.04-8.12-3.04c-5.43,0-9.38,4.2-9.38,9.35c0,4.9,3.64,9.31,9.66,9.31
			c2.7,0,5.64-0.84,7.39-2.24v-5.43h-7.42v-2.7h10.19v9.59c-2.76,2.14-6.69,3.47-10.33,3.47c-7.17,0-12.67-5.39-12.67-12.04
			c0-6.65,5.53-12.01,12.53-12.01c3.61,0,7.32,1.37,10.26,3.85L243.28,230.84z"/>
		<path class="st1" d="M253.47,224.44c1.05,0,1.86,0.77,1.86,1.68c0,0.95-0.81,1.68-1.86,1.68s-1.82-0.74-1.82-1.68
			C251.65,225.21,252.42,224.44,253.47,224.44z M252.1,248.56v-16.42h2.77v16.42H252.1z"/>
		<path class="st1" d="M261.41,248.56v-12.25c0-1.33-0.14-2.73-0.46-4.17h2.55c0.25,0.88,0.35,1.57,0.38,2.52
			c1.37-1.5,3.15-3.04,6.06-3.04c3.61,0,6.34,2.42,6.34,5.81v11.13h-2.8v-11.13c0-1.86-1.65-3.36-3.96-3.36
			c-2.42,0-4.13,1.47-5.32,2.8v11.69H261.41z"/>
		<path class="st1" d="M282.62,248.56v-12.25c0-1.33-0.14-2.73-0.46-4.17h2.56c0.25,0.88,0.35,1.57,0.38,2.52
			c1.37-1.5,3.15-3.04,6.06-3.04c3.61,0,6.34,2.42,6.34,5.81v11.13h-2.8v-11.13c0-1.86-1.65-3.36-3.96-3.36
			c-2.42,0-4.13,1.47-5.32,2.8v11.69H282.62z"/>
		<path class="st1" d="M23.52,286.6c-2.49,2.45-6.27,4.55-10.96,4.55C5.18,291.15,0,285.76,0,279.11c0-6.58,5.18-12.01,12.43-12.01
			c4.1,0,7.95,1.58,10.47,3.92l-2.06,2.03c-2.1-2-5.32-3.25-8.33-3.25c-5.46,0-9.31,4.24-9.31,9.35c0,5.15,3.89,9.31,9.42,9.31
			c3.64,0,6.79-1.68,8.89-3.85L23.52,286.6z"/>
		<path class="st1" d="M35.49,273.61c5.15,0,8.82,3.85,8.82,8.68c0,4.9-3.68,8.75-8.82,8.75c-5.11,0-8.79-3.85-8.79-8.75
			C26.7,277.47,30.38,273.61,35.49,273.61z M35.49,288.7c3.57,0,5.95-2.91,5.95-6.41c0-3.4-2.38-6.34-5.95-6.34
			c-3.54,0-5.88,2.94-5.88,6.34C29.61,285.8,31.96,288.7,35.49,288.7z"/>
		<path class="st1" d="M49.77,290.56v-24.5h2.8v24.5H49.77z"/>
		<path class="st1" d="M59.53,290.56v-24.5h2.8v24.5H59.53z"/>
		<path class="st1" d="M84.28,287.97c-1.79,1.71-4.69,3.08-8.02,3.08c-5.32,0-8.44-3.85-8.44-8.54c0-4.97,3.64-8.89,8.68-8.89
			c3.88,0,8.23,2.42,8.26,8.26c0,0.25,0,0.56-0.04,0.84H70.63c0.1,3.22,2.17,5.85,5.92,5.85c2.35,0,4.48-0.98,5.88-2.42
			L84.28,287.97z M70.84,280.51h10.85c-0.07-3.08-2.83-4.55-5.32-4.55C73.43,275.96,71.47,277.95,70.84,280.51z"/>
		<path class="st1" d="M102.55,288.35c-1.64,1.71-3.64,2.7-5.67,2.7c-4.45,0-8.19-3.43-8.19-8.65c0-5.32,3.78-8.79,8.37-8.79
			c2.8,0,4.97,1.92,5.74,3.04c0-0.84,0.11-1.71,0.35-2.55h2.59c-0.35,1.43-0.38,2.87-0.38,4.2v13.3c0,3.78-2.8,6.9-8.23,6.9
			c-3.75,0-5.99-1.26-7.46-2.84l1.68-1.64c1.16,1.19,2.87,2.13,5.78,2.13c3.57,0,5.42-2,5.42-4.55V288.35z M102.55,286.08v-7.42
			c-0.59-0.73-2.49-2.59-5.25-2.59c-3.01,0-5.53,2.49-5.53,6.34c0,3.75,2.42,6.2,5.36,6.2C99.05,288.6,100.97,287.62,102.55,286.08z
			"/>
		<path class="st1" d="M127.05,287.97c-1.79,1.71-4.69,3.08-8.02,3.08c-5.32,0-8.44-3.85-8.44-8.54c0-4.97,3.64-8.89,8.68-8.89
			c3.88,0,8.23,2.42,8.26,8.26c0,0.25,0,0.56-0.04,0.84H113.4c0.1,3.22,2.17,5.85,5.92,5.85c2.35,0,4.48-0.98,5.88-2.42
			L127.05,287.97z M113.61,280.51h10.85c-0.07-3.08-2.83-4.55-5.32-4.55C116.2,275.96,114.24,277.95,113.61,280.51z"/>
		<path class="st1" d="M148.08,273.61c5.15,0,8.82,3.85,8.82,8.68c0,4.9-3.68,8.75-8.82,8.75c-5.11,0-8.79-3.85-8.79-8.75
			C139.3,277.47,142.97,273.61,148.08,273.61z M148.08,288.7c3.57,0,5.95-2.91,5.95-6.41c0-3.4-2.38-6.34-5.95-6.34
			c-3.54,0-5.88,2.94-5.88,6.34C142.2,285.8,144.55,288.7,148.08,288.7z"/>
		<path class="st1" d="M163.27,274.14v-3.36c0-3.82,2.63-5.11,4.87-5.11c1.33,0,3.01,0.42,3.78,1.05l-0.56,2.27
			c-0.56-0.49-1.86-0.84-2.7-0.84c-1.43,0-2.59,0.81-2.59,2.63v3.36h4.83v2.17h-4.83v14.25h-2.8v-14.25h-3.22v-2.17H163.27z"/>
		<path class="st1" d="M195.65,279.88h-9.24v7.98h16.14v2.7h-19.18V267.7h18.38v2.7h-15.33v6.79h9.24V279.88z"/>
		<path class="st1" d="M206.95,290.56v-12.25c0-1.33-0.14-2.73-0.46-4.17h2.55c0.25,0.88,0.35,1.57,0.38,2.52
			c1.37-1.5,3.15-3.04,6.06-3.04c3.61,0,6.34,2.42,6.34,5.81v11.13h-2.8v-11.13c0-1.86-1.65-3.36-3.96-3.36
			c-2.42,0-4.13,1.47-5.32,2.8v11.69H206.95z"/>
		<path class="st1" d="M240.76,288.35c-1.65,1.71-3.64,2.7-5.67,2.7c-4.45,0-8.19-3.43-8.19-8.65c0-5.32,3.78-8.79,8.37-8.79
			c2.8,0,4.97,1.92,5.74,3.04c0-0.84,0.1-1.71,0.35-2.55h2.59c-0.35,1.43-0.39,2.87-0.39,4.2v13.3c0,3.78-2.8,6.9-8.23,6.9
			c-3.75,0-5.99-1.26-7.46-2.84l1.68-1.64c1.16,1.19,2.87,2.13,5.78,2.13c3.57,0,5.43-2,5.43-4.55V288.35z M240.76,286.08v-7.42
			c-0.6-0.73-2.49-2.59-5.25-2.59c-3.01,0-5.53,2.49-5.53,6.34c0,3.75,2.42,6.2,5.36,6.2C237.26,288.6,239.19,287.62,240.76,286.08z
			"/>
		<path class="st1" d="M251.44,266.44c1.05,0,1.85,0.77,1.85,1.68c0,0.95-0.8,1.68-1.85,1.68c-1.05,0-1.82-0.74-1.82-1.68
			C249.62,267.21,250.39,266.44,251.44,266.44z M250.07,290.56v-16.42h2.76v16.42H250.07z"/>
		<path class="st1" d="M259.38,290.56v-12.25c0-1.33-0.14-2.73-0.46-4.17h2.56c0.25,0.88,0.35,1.57,0.38,2.52
			c1.37-1.5,3.15-3.04,6.06-3.04c3.61,0,6.34,2.42,6.34,5.81v11.13h-2.8v-11.13c0-1.86-1.65-3.36-3.96-3.36
			c-2.42,0-4.13,1.47-5.32,2.8v11.69H259.38z"/>
		<path class="st1" d="M295.75,287.97c-1.79,1.71-4.69,3.08-8.02,3.08c-5.32,0-8.44-3.85-8.44-8.54c0-4.97,3.64-8.89,8.68-8.89
			c3.88,0,8.23,2.42,8.26,8.26c0,0.25,0,0.56-0.04,0.84H282.1c0.1,3.22,2.17,5.85,5.92,5.85c2.35,0,4.48-0.98,5.88-2.42
			L295.75,287.97z M282.31,280.51h10.85c-0.07-3.08-2.83-4.55-5.32-4.55C284.9,275.96,282.94,277.95,282.31,280.51z"/>
		<path class="st1" d="M316.57,287.97c-1.79,1.71-4.69,3.08-8.02,3.08c-5.32,0-8.44-3.85-8.44-8.54c0-4.97,3.64-8.89,8.68-8.89
			c3.89,0,8.23,2.42,8.26,8.26c0,0.25,0,0.56-0.04,0.84h-14.11c0.11,3.22,2.17,5.85,5.92,5.85c2.34,0,4.48-0.98,5.88-2.42
			L316.57,287.97z M303.13,280.51h10.85c-0.07-3.08-2.83-4.55-5.32-4.55C305.72,275.96,303.76,277.95,303.13,280.51z"/>
		<path class="st1" d="M322.24,290.56v-12.25c0-1.37-0.14-2.73-0.49-4.17h2.59c0.25,0.94,0.35,1.75,0.38,2.83
			c1.12-1.68,2.59-3.36,5.01-3.36c1.02,0,2,0.28,2.49,0.84l-0.91,2.56c-0.49-0.42-1.58-0.67-2.21-0.67c-1.79,0-3.08,1.61-4.06,3.01
			v11.2H322.24z"/>
		<path class="st1" d="M337.43,266.44c1.05,0,1.86,0.77,1.86,1.68c0,0.95-0.81,1.68-1.86,1.68s-1.82-0.74-1.82-1.68
			C335.61,267.21,336.38,266.44,337.43,266.44z M336.06,290.56v-16.42h2.77v16.42H336.06z"/>
		<path class="st1" d="M345.38,290.56v-12.25c0-1.33-0.14-2.73-0.46-4.17h2.55c0.25,0.88,0.35,1.57,0.38,2.52
			c1.37-1.5,3.15-3.04,6.06-3.04c3.61,0,6.34,2.42,6.34,5.81v11.13h-2.8v-11.13c0-1.86-1.65-3.36-3.96-3.36
			c-2.42,0-4.13,1.47-5.32,2.8v11.69H345.38z"/>
		<path class="st1" d="M379.19,288.35c-1.65,1.71-3.64,2.7-5.67,2.7c-4.45,0-8.19-3.43-8.19-8.65c0-5.32,3.78-8.79,8.37-8.79
			c2.8,0,4.97,1.92,5.74,3.04c0-0.84,0.1-1.71,0.35-2.55h2.59c-0.35,1.43-0.39,2.87-0.39,4.2v13.3c0,3.78-2.8,6.9-8.23,6.9
			c-3.75,0-5.99-1.26-7.46-2.84l1.68-1.64c1.16,1.19,2.87,2.13,5.78,2.13c3.57,0,5.43-2,5.43-4.55V288.35z M379.19,286.08v-7.42
			c-0.6-0.73-2.49-2.59-5.25-2.59c-3.01,0-5.53,2.49-5.53,6.34c0,3.75,2.42,6.2,5.36,6.2C375.68,288.6,377.61,287.62,379.19,286.08z
			"/>
	</g>
</g>
<g id="Layer_6">
</g>
<g id="hybrid" class="st4">
	<g class="st5">
		<g>
			<path class="st1" d="M122.83,215.43c0,3.18,0,7.14-4.9,9.35c-2.33,1.08-5.64,1.69-9.1,1.69c-4.41,0-7.86-0.85-10.56-2.61
				c-3.44-2.21-3.72-5.06-3.76-9.15v-23.1h-5.82v22.88c0,4.15,0,9.32,5.7,13.26c3.62,2.53,8.33,3.76,14.38,3.76
				c5.81,0,10.48-1.13,13.89-3.36c5.99-3.88,5.99-9.24,5.99-13.15v-23.37h-5.82V215.43z"/>
			<path class="st1" d="M287.64,203.14c0-4.65-2.19-7.24-3.49-8.37c-3.39-3.04-7.55-3.1-10.91-3.15h-26.48v38.95h5.82v-15.45H271
				l13.04,15.39l0.05,0.06h7.54l-14.29-16.38C280.44,213.67,287.64,212.18,287.64,203.14z M281.67,203.37
				c0,1.58-0.43,2.93-1.29,4.02c-2.26,2.99-6.27,2.99-8.93,2.99h-18.87v-14.01h21.17c2.53,0.05,5.14,0.32,6.8,2.97
				C281.27,200.44,281.67,201.87,281.67,203.37z"/>
			<path class="st1" d="M337.51,191.62l0,27.24c0,0.59,0.05,2.53,0.28,4.84c-1.67-2.08-2.91-3.39-3.84-4.36
				c-0.87-0.91-25.82-27.39-26.07-27.66l-0.05-0.05H302v38.95h5.53v-26c0-0.93-0.02-3.93-0.21-6.22c0.78,0.97,2.1,2.53,2.74,3.2
				l27.38,28.97l0.05,0.05h5.56v-38.95H337.51z"/>
			<path class="st1" d="M176.52,209.51c4.29-1.63,4.63-6.26,4.63-7.68c0-2.34-0.66-4.38-1.96-6.06c-3.03-3.83-7.93-4.15-12.7-4.15
				h-24.97v38.95h24.97c4.24,0,9.53,0,13.08-2.98c2.22-1.86,3.49-4.75,3.49-7.95C183.06,216.15,181.34,211.46,176.52,209.51z
				 M172.5,207.15C171,208,169.07,208,167.37,208h-20.03v-11.63h19.1c1.85,0,4.38,0,6.27,1.19c1.13,0.77,2.47,2.21,2.47,4.67
				C175.18,203.89,174.48,206.07,172.5,207.15z M147.34,212.75h20.89c1.96,0.02,4.64,0,6.63,1.54l0.06,0.05
				c0.54,0.46,2.17,1.85,2.17,4.87c0,2-0.68,3.61-2.03,4.78c-2.02,1.7-4.53,1.85-6.93,1.85h-20.79V212.75z"/>
			<path class="st1" d="M62.31,191.62h-5.97l-20.11,38.95h6.45l4.68-9.46h23.62l4.68,9.46h6.62L62.31,191.62z M49.78,216.36
				l9.5-19.19l9.21,19.19H49.78z"/>
			<path class="st1" d="M228.06,215.43c0,3.18,0,7.14-4.9,9.35c-2.33,1.08-5.64,1.69-9.1,1.69c-4.41,0-7.86-0.85-10.56-2.61
				c-3.44-2.21-3.72-5.06-3.76-9.15v-23.1h-5.82v22.88c0,4.15,0,9.32,5.7,13.26c3.62,2.53,8.33,3.76,14.38,3.76
				c5.81,0,10.48-1.13,13.89-3.36c5.99-3.88,5.99-9.24,5.99-13.15v-23.37h-5.82V215.43z"/>
		</g>
	</g>
	<g class="st5">
		<g>
			<path class="st1" d="M157.6,120.64c8.29,6.2,25.61,6.81,32.04,6.81c6.43,0,23.75-0.61,32.04-6.81h-18.72v-19.28h11.4l-5.18-9.18
				H170.1l-5.18,9.18h11.4v19.28H157.6z M167.13,100.07l3.72-6.6h37.57l3.72,6.6h-10.48v21.86h15.05
				c-9.16,3.94-23.2,4.23-27.08,4.23c-3.87,0-17.92-0.29-27.07-4.23h15.05v-21.86H167.13z"/>
			<path class="st1" d="M181.26,72.37h16.74l-8.37-14.85L181.26,72.37z M183.47,71.08l6.16-10.93l6.16,10.93H183.47z"/>
			<path class="st1" d="M221.5,62.1l5.36,9.51V62.1H221.5z M225.57,66.68l-1.86-3.29h1.86V66.68z"/>
			<path class="st1" d="M260.63,64.04v-21.6h-45.37v4.66l-11.65-20.66h-27.96l-11.65,20.66v-4.66h-45.37v21.6h8.62v36.03h-8.2v21.86
				h8.71c2.16,10.43,12.93,28.8,61.87,28.8c48.95,0,59.72-18.37,61.88-28.8h8.71v-21.86h-8.21V64.04H260.63z M258.92,101.36v19.28
				h-8.49c-1.57,9.77-11.05,28.8-60.8,28.8s-59.23-19.03-60.8-28.8h-8.49v-19.28h8.21V62.75h-8.62V43.72h42.78v8.28l13.7-24.29
				h26.45l13.69,24.29v-8.28h42.79v19.02h-8.62v38.62H258.92z"/>
			<path class="st1" d="M157.77,62.1h-5.36v9.51L157.77,62.1z M153.7,63.39h1.86l-1.86,3.29V63.39z"/>
			<polygon class="st1" points="255.44,47.62 220.45,47.62 220.45,58.85 230.11,58.85 230.11,76.06 244.38,101.36 246.82,101.36 
				246.82,58.85 255.44,58.85 			"/>
			<path class="st1" d="M189.63,131.35c-13.63,0-30.88-2.24-37.61-10.71h-19.26c2.35,12.93,18.27,24.9,56.87,24.9
				c38.59,0,54.52-11.97,56.87-24.9h-19.26C220.52,129.11,203.27,131.35,189.63,131.35z"/>
			<polygon class="st1" points="132.45,101.36 134.89,101.36 149.16,76.06 149.16,58.85 158.82,58.85 158.82,47.62 123.83,47.62 
				123.83,58.85 132.45,58.85 			"/>
			<path class="st1" d="M252.07,131.26c-1.82,0-3.3,1.47-3.3,3.3c0,1.82,1.47,3.29,3.3,3.29c1.82,0,3.29-1.47,3.29-3.29
				C255.36,132.73,253.89,131.26,252.07,131.26z M252.07,137.14c-1.43,0-2.59-1.16-2.59-2.59c0-1.43,1.16-2.59,2.59-2.59
				c1.43,0,2.59,1.16,2.59,2.59C254.66,135.98,253.5,137.14,252.07,137.14z"/>
			<path class="st1" d="M253.42,133.79c0-0.62-0.5-1.12-1.12-1.12h-1.59v3.77h0.71v-1.53h0.51l0.71,1.53h0.78l-0.74-1.59
				C253.11,134.68,253.42,134.27,253.42,133.79z M252.3,134.2h-0.88v-0.82h0.88c0.23,0,0.41,0.18,0.41,0.41
				C252.71,134.01,252.53,134.2,252.3,134.2z"/>
			<path class="st1" d="M200.58,31.62h-21.89l-41.52,73.64h-12.93v11.49h48.18v-11.49h-14.17l9.57-16.97h43.63l9.57,16.97h-14.17
				v11.49h48.18v-11.49H242.1L200.58,31.62z M174.59,76.27l15.04-26.68l15.04,26.68H174.59z"/>
		</g>
	</g>
	<rect x="-42.81" y="292.66" class="st7" width="464.89" height="28.11"/>
	<text transform="matrix(1 0 0 1 -8.5041 312.3716)" class="st8 st9 st10">Department of Biological Sciences</text>
	<rect x="-42.81" y="250.49" class="st7" width="464.89" height="25.09"/>
	<text transform="matrix(1 0 0 1 65.8405 271.4861)" class="st8 st11 st12">Advancement</text>
</g>
<g id="Caps" class="st4">
	<g class="st5">
		<g>
			<path class="st1" d="M122.83,215.43c0,3.18,0,7.14-4.9,9.35c-2.33,1.08-5.64,1.69-9.1,1.69c-4.41,0-7.86-0.85-10.56-2.61
				c-3.44-2.21-3.72-5.06-3.76-9.15v-23.1h-5.82v22.88c0,4.15,0,9.32,5.7,13.26c3.62,2.53,8.33,3.76,14.38,3.76
				c5.81,0,10.48-1.13,13.89-3.36c5.99-3.88,5.99-9.24,5.99-13.15v-23.37h-5.82V215.43z"/>
			<path class="st1" d="M287.64,203.14c0-4.65-2.19-7.24-3.49-8.37c-3.39-3.04-7.55-3.1-10.91-3.15h-26.48v38.95h5.82v-15.45H271
				l13.04,15.39l0.05,0.06h7.54l-14.29-16.38C280.44,213.67,287.64,212.18,287.64,203.14z M281.67,203.37
				c0,1.58-0.43,2.93-1.29,4.02c-2.26,2.99-6.27,2.99-8.93,2.99h-18.87v-14.01h21.17c2.53,0.05,5.14,0.32,6.8,2.97
				C281.27,200.44,281.67,201.87,281.67,203.37z"/>
			<path class="st1" d="M337.51,191.62l0,27.24c0,0.59,0.05,2.53,0.28,4.84c-1.67-2.08-2.91-3.39-3.84-4.36
				c-0.87-0.91-25.82-27.39-26.07-27.66l-0.05-0.05H302v38.95h5.53v-26c0-0.93-0.02-3.93-0.21-6.22c0.78,0.97,2.1,2.53,2.74,3.2
				l27.38,28.97l0.05,0.05h5.56v-38.95H337.51z"/>
			<path class="st1" d="M176.52,209.51c4.29-1.63,4.63-6.26,4.63-7.68c0-2.34-0.66-4.38-1.96-6.06c-3.03-3.83-7.93-4.15-12.7-4.15
				h-24.97v38.95h24.97c4.24,0,9.53,0,13.08-2.98c2.22-1.86,3.49-4.75,3.49-7.95C183.06,216.15,181.34,211.46,176.52,209.51z
				 M172.5,207.15C171,208,169.07,208,167.37,208h-20.03v-11.63h19.1c1.85,0,4.38,0,6.27,1.19c1.13,0.77,2.47,2.21,2.47,4.67
				C175.18,203.89,174.48,206.07,172.5,207.15z M147.34,212.75h20.89c1.96,0.02,4.64,0,6.63,1.54l0.06,0.05
				c0.54,0.46,2.17,1.85,2.17,4.87c0,2-0.68,3.61-2.03,4.78c-2.02,1.7-4.53,1.85-6.93,1.85h-20.79V212.75z"/>
			<path class="st1" d="M62.31,191.62h-5.97l-20.11,38.95h6.45l4.68-9.46h23.62l4.68,9.46h6.62L62.31,191.62z M49.78,216.36
				l9.5-19.19l9.21,19.19H49.78z"/>
			<path class="st1" d="M228.06,215.43c0,3.18,0,7.14-4.9,9.35c-2.33,1.08-5.64,1.69-9.1,1.69c-4.41,0-7.86-0.85-10.56-2.61
				c-3.44-2.21-3.72-5.06-3.76-9.15v-23.1h-5.82v22.88c0,4.15,0,9.32,5.7,13.26c3.62,2.53,8.33,3.76,14.38,3.76
				c5.81,0,10.48-1.13,13.89-3.36c5.99-3.88,5.99-9.24,5.99-13.15v-23.37h-5.82V215.43z"/>
		</g>
	</g>
	<g class="st5">
		<g>
			<path class="st1" d="M157.6,120.64c8.29,6.2,25.61,6.81,32.04,6.81c6.43,0,23.75-0.61,32.04-6.81h-18.72v-19.28h11.4l-5.18-9.18
				H170.1l-5.18,9.18h11.4v19.28H157.6z M167.13,100.07l3.72-6.6h37.57l3.72,6.6h-10.48v21.86h15.05
				c-9.16,3.94-23.2,4.23-27.08,4.23c-3.87,0-17.92-0.29-27.07-4.23h15.05v-21.86H167.13z"/>
			<path class="st1" d="M181.26,72.37h16.74l-8.37-14.85L181.26,72.37z M183.47,71.08l6.16-10.93l6.16,10.93H183.47z"/>
			<path class="st1" d="M221.5,62.1l5.36,9.51V62.1H221.5z M225.57,66.68l-1.86-3.29h1.86V66.68z"/>
			<path class="st1" d="M260.63,64.04v-21.6h-45.37v4.66l-11.65-20.66h-27.96l-11.65,20.66v-4.66h-45.37v21.6h8.62v36.03h-8.2v21.86
				h8.71c2.16,10.43,12.93,28.8,61.87,28.8c48.95,0,59.72-18.37,61.88-28.8h8.71v-21.86h-8.21V64.04H260.63z M258.92,101.36v19.28
				h-8.49c-1.57,9.77-11.05,28.8-60.8,28.8s-59.23-19.03-60.8-28.8h-8.49v-19.28h8.21V62.75h-8.62V43.72h42.78v8.28l13.7-24.29
				h26.45l13.69,24.29v-8.28h42.79v19.02h-8.62v38.62H258.92z"/>
			<path class="st1" d="M157.77,62.1h-5.36v9.51L157.77,62.1z M153.7,63.39h1.86l-1.86,3.29V63.39z"/>
			<polygon class="st1" points="255.44,47.62 220.45,47.62 220.45,58.85 230.11,58.85 230.11,76.06 244.38,101.36 246.82,101.36 
				246.82,58.85 255.44,58.85 			"/>
			<path class="st1" d="M189.63,131.35c-13.63,0-30.88-2.24-37.61-10.71h-19.26c2.35,12.93,18.27,24.9,56.87,24.9
				c38.59,0,54.52-11.97,56.87-24.9h-19.26C220.52,129.11,203.27,131.35,189.63,131.35z"/>
			<polygon class="st1" points="132.45,101.36 134.89,101.36 149.16,76.06 149.16,58.85 158.82,58.85 158.82,47.62 123.83,47.62 
				123.83,58.85 132.45,58.85 			"/>
			<path class="st1" d="M252.07,131.26c-1.82,0-3.3,1.47-3.3,3.3c0,1.82,1.47,3.29,3.3,3.29c1.82,0,3.29-1.47,3.29-3.29
				C255.36,132.73,253.89,131.26,252.07,131.26z M252.07,137.14c-1.43,0-2.59-1.16-2.59-2.59c0-1.43,1.16-2.59,2.59-2.59
				c1.43,0,2.59,1.16,2.59,2.59C254.66,135.98,253.5,137.14,252.07,137.14z"/>
			<path class="st1" d="M253.42,133.79c0-0.62-0.5-1.12-1.12-1.12h-1.59v3.77h0.71v-1.53h0.51l0.71,1.53h0.78l-0.74-1.59
				C253.11,134.68,253.42,134.27,253.42,133.79z M252.3,134.2h-0.88v-0.82h0.88c0.23,0,0.41,0.18,0.41,0.41
				C252.71,134.01,252.53,134.2,252.3,134.2z"/>
			<path class="st1" d="M200.58,31.62h-21.89l-41.52,73.64h-12.93v11.49h48.18v-11.49h-14.17l9.57-16.97h43.63l9.57,16.97h-14.17
				v11.49h48.18v-11.49H242.1L200.58,31.62z M174.59,76.27l15.04-26.68l15.04,26.68H174.59z"/>
		</g>
	</g>
	<rect x="-42.81" y="292.66" class="st7" width="464.89" height="28.11"/>
	<text transform="matrix(1 0 0 1 -8.5041 312.3716)" class="st8 st9 st10">Department of Biological Sciences</text>
	<rect x="-42.81" y="250.49" class="st7" width="464.89" height="25.09"/>
	<text transform="matrix(1 0 0 1 65.8405 271.4861)" class="st8 st11 st12">Advancement</text>
</g>
<g id="hybrid_copy" class="st4">
	<g class="st5">
		<g>
			<path class="st1" d="M122.83,215.43c0,3.18,0,7.14-4.9,9.35c-2.33,1.08-5.64,1.69-9.1,1.69c-4.41,0-7.86-0.85-10.56-2.61
				c-3.44-2.21-3.72-5.06-3.76-9.15v-23.1h-5.82v22.88c0,4.15,0,9.32,5.7,13.26c3.62,2.53,8.33,3.76,14.38,3.76
				c5.81,0,10.48-1.13,13.89-3.36c5.99-3.88,5.99-9.24,5.99-13.15v-23.37h-5.82V215.43z"/>
			<path class="st1" d="M287.64,203.14c0-4.65-2.19-7.24-3.49-8.37c-3.39-3.04-7.55-3.1-10.91-3.15h-26.48v38.95h5.82v-15.45H271
				l13.04,15.39l0.05,0.06h7.54l-14.29-16.38C280.44,213.67,287.64,212.18,287.64,203.14z M281.67,203.37
				c0,1.58-0.43,2.93-1.29,4.02c-2.26,2.99-6.27,2.99-8.93,2.99h-18.87v-14.01h21.17c2.53,0.05,5.14,0.32,6.8,2.97
				C281.27,200.44,281.67,201.87,281.67,203.37z"/>
			<path class="st1" d="M337.51,191.62l0,27.24c0,0.59,0.05,2.53,0.28,4.84c-1.67-2.08-2.91-3.39-3.84-4.36
				c-0.87-0.91-25.82-27.39-26.07-27.66l-0.05-0.05H302v38.95h5.53v-26c0-0.93-0.02-3.93-0.21-6.22c0.78,0.97,2.1,2.53,2.74,3.2
				l27.38,28.97l0.05,0.05h5.56v-38.95H337.51z"/>
			<path class="st1" d="M176.52,209.51c4.29-1.63,4.63-6.26,4.63-7.68c0-2.34-0.66-4.38-1.96-6.06c-3.03-3.83-7.93-4.15-12.7-4.15
				h-24.97v38.95h24.97c4.24,0,9.53,0,13.08-2.98c2.22-1.86,3.49-4.75,3.49-7.95C183.06,216.15,181.34,211.46,176.52,209.51z
				 M172.5,207.15C171,208,169.07,208,167.37,208h-20.03v-11.63h19.1c1.85,0,4.38,0,6.27,1.19c1.13,0.77,2.47,2.21,2.47,4.67
				C175.18,203.89,174.48,206.07,172.5,207.15z M147.34,212.75h20.89c1.96,0.02,4.64,0,6.63,1.54l0.06,0.05
				c0.54,0.46,2.17,1.85,2.17,4.87c0,2-0.68,3.61-2.03,4.78c-2.02,1.7-4.53,1.85-6.93,1.85h-20.79V212.75z"/>
			<path class="st1" d="M62.31,191.62h-5.97l-20.11,38.95h6.45l4.68-9.46h23.62l4.68,9.46h6.62L62.31,191.62z M49.78,216.36
				l9.5-19.19l9.21,19.19H49.78z"/>
			<path class="st1" d="M228.06,215.43c0,3.18,0,7.14-4.9,9.35c-2.33,1.08-5.64,1.69-9.1,1.69c-4.41,0-7.86-0.85-10.56-2.61
				c-3.44-2.21-3.72-5.06-3.76-9.15v-23.1h-5.82v22.88c0,4.15,0,9.32,5.7,13.26c3.62,2.53,8.33,3.76,14.38,3.76
				c5.81,0,10.48-1.13,13.89-3.36c5.99-3.88,5.99-9.24,5.99-13.15v-23.37h-5.82V215.43z"/>
		</g>
	</g>
	<g class="st5">
		<g>
			<path class="st1" d="M157.6,120.64c8.29,6.2,25.61,6.81,32.04,6.81c6.43,0,23.75-0.61,32.04-6.81h-18.72v-19.28h11.4l-5.18-9.18
				H170.1l-5.18,9.18h11.4v19.28H157.6z M167.13,100.07l3.72-6.6h37.57l3.72,6.6h-10.48v21.86h15.05
				c-9.16,3.94-23.2,4.23-27.08,4.23c-3.87,0-17.92-0.29-27.07-4.23h15.05v-21.86H167.13z"/>
			<path class="st1" d="M181.26,72.37h16.74l-8.37-14.85L181.26,72.37z M183.47,71.08l6.16-10.93l6.16,10.93H183.47z"/>
			<path class="st1" d="M221.5,62.1l5.36,9.51V62.1H221.5z M225.57,66.68l-1.86-3.29h1.86V66.68z"/>
			<path class="st1" d="M260.63,64.04v-21.6h-45.37v4.66l-11.65-20.66h-27.96l-11.65,20.66v-4.66h-45.37v21.6h8.62v36.03h-8.2v21.86
				h8.71c2.16,10.43,12.93,28.8,61.87,28.8c48.95,0,59.72-18.37,61.88-28.8h8.71v-21.86h-8.21V64.04H260.63z M258.92,101.36v19.28
				h-8.49c-1.57,9.77-11.05,28.8-60.8,28.8s-59.23-19.03-60.8-28.8h-8.49v-19.28h8.21V62.75h-8.62V43.72h42.78v8.28l13.7-24.29
				h26.45l13.69,24.29v-8.28h42.79v19.02h-8.62v38.62H258.92z"/>
			<path class="st1" d="M157.77,62.1h-5.36v9.51L157.77,62.1z M153.7,63.39h1.86l-1.86,3.29V63.39z"/>
			<polygon class="st1" points="255.44,47.62 220.45,47.62 220.45,58.85 230.11,58.85 230.11,76.06 244.38,101.36 246.82,101.36 
				246.82,58.85 255.44,58.85 			"/>
			<path class="st1" d="M189.63,131.35c-13.63,0-30.88-2.24-37.61-10.71h-19.26c2.35,12.93,18.27,24.9,56.87,24.9
				c38.59,0,54.52-11.97,56.87-24.9h-19.26C220.52,129.11,203.27,131.35,189.63,131.35z"/>
			<polygon class="st1" points="132.45,101.36 134.89,101.36 149.16,76.06 149.16,58.85 158.82,58.85 158.82,47.62 123.83,47.62 
				123.83,58.85 132.45,58.85 			"/>
			<path class="st1" d="M252.07,131.26c-1.82,0-3.3,1.47-3.3,3.3c0,1.82,1.47,3.29,3.3,3.29c1.82,0,3.29-1.47,3.29-3.29
				C255.36,132.73,253.89,131.26,252.07,131.26z M252.07,137.14c-1.43,0-2.59-1.16-2.59-2.59c0-1.43,1.16-2.59,2.59-2.59
				c1.43,0,2.59,1.16,2.59,2.59C254.66,135.98,253.5,137.14,252.07,137.14z"/>
			<path class="st1" d="M253.42,133.79c0-0.62-0.5-1.12-1.12-1.12h-1.59v3.77h0.71v-1.53h0.51l0.71,1.53h0.78l-0.74-1.59
				C253.11,134.68,253.42,134.27,253.42,133.79z M252.3,134.2h-0.88v-0.82h0.88c0.23,0,0.41,0.18,0.41,0.41
				C252.71,134.01,252.53,134.2,252.3,134.2z"/>
			<path class="st1" d="M200.58,31.62h-21.89l-41.52,73.64h-12.93v11.49h48.18v-11.49h-14.17l9.57-16.97h43.63l9.57,16.97h-14.17
				v11.49h48.18v-11.49H242.1L200.58,31.62z M174.59,76.27l15.04-26.68l15.04,26.68H174.59z"/>
		</g>
	</g>
	<rect x="-42.81" y="292.66" class="st7" width="464.89" height="28.11"/>
	<text transform="matrix(1 0 0 1 -8.5041 312.3716)" class="st8 st9 st10">Department of Biological Sciences</text>
	<rect x="-42.81" y="250.49" class="st7" width="464.89" height="25.09"/>
	<text transform="matrix(1 0 0 1 65.8405 271.4861)" class="st8 st11 st12">Advancement</text>
</g>
<g id="Caps_copy" class="st4">
	<g class="st5">
		<g>
			<path class="st1" d="M122.83,215.43c0,3.18,0,7.14-4.9,9.35c-2.33,1.08-5.64,1.69-9.1,1.69c-4.41,0-7.86-0.85-10.56-2.61
				c-3.44-2.21-3.72-5.06-3.76-9.15v-23.1h-5.82v22.88c0,4.15,0,9.32,5.7,13.26c3.62,2.53,8.33,3.76,14.38,3.76
				c5.81,0,10.48-1.13,13.89-3.36c5.99-3.88,5.99-9.24,5.99-13.15v-23.37h-5.82V215.43z"/>
			<path class="st1" d="M287.64,203.14c0-4.65-2.19-7.24-3.49-8.37c-3.39-3.04-7.55-3.1-10.91-3.15h-26.48v38.95h5.82v-15.45H271
				l13.04,15.39l0.05,0.06h7.54l-14.29-16.38C280.44,213.67,287.64,212.18,287.64,203.14z M281.67,203.37
				c0,1.58-0.43,2.93-1.29,4.02c-2.26,2.99-6.27,2.99-8.93,2.99h-18.87v-14.01h21.17c2.53,0.05,5.14,0.32,6.8,2.97
				C281.27,200.44,281.67,201.87,281.67,203.37z"/>
			<path class="st1" d="M337.51,191.62l0,27.24c0,0.59,0.05,2.53,0.28,4.84c-1.67-2.08-2.91-3.39-3.84-4.36
				c-0.87-0.91-25.82-27.39-26.07-27.66l-0.05-0.05H302v38.95h5.53v-26c0-0.93-0.02-3.93-0.21-6.22c0.78,0.97,2.1,2.53,2.74,3.2
				l27.38,28.97l0.05,0.05h5.56v-38.95H337.51z"/>
			<path class="st1" d="M176.52,209.51c4.29-1.63,4.63-6.26,4.63-7.68c0-2.34-0.66-4.38-1.96-6.06c-3.03-3.83-7.93-4.15-12.7-4.15
				h-24.97v38.95h24.97c4.24,0,9.53,0,13.08-2.98c2.22-1.86,3.49-4.75,3.49-7.95C183.06,216.15,181.34,211.46,176.52,209.51z
				 M172.5,207.15C171,208,169.07,208,167.37,208h-20.03v-11.63h19.1c1.85,0,4.38,0,6.27,1.19c1.13,0.77,2.47,2.21,2.47,4.67
				C175.18,203.89,174.48,206.07,172.5,207.15z M147.34,212.75h20.89c1.96,0.02,4.64,0,6.63,1.54l0.06,0.05
				c0.54,0.46,2.17,1.85,2.17,4.87c0,2-0.68,3.61-2.03,4.78c-2.02,1.7-4.53,1.85-6.93,1.85h-20.79V212.75z"/>
			<path class="st1" d="M62.31,191.62h-5.97l-20.11,38.95h6.45l4.68-9.46h23.62l4.68,9.46h6.62L62.31,191.62z M49.78,216.36
				l9.5-19.19l9.21,19.19H49.78z"/>
			<path class="st1" d="M228.06,215.43c0,3.18,0,7.14-4.9,9.35c-2.33,1.08-5.64,1.69-9.1,1.69c-4.41,0-7.86-0.85-10.56-2.61
				c-3.44-2.21-3.72-5.06-3.76-9.15v-23.1h-5.82v22.88c0,4.15,0,9.32,5.7,13.26c3.62,2.53,8.33,3.76,14.38,3.76
				c5.81,0,10.48-1.13,13.89-3.36c5.99-3.88,5.99-9.24,5.99-13.15v-23.37h-5.82V215.43z"/>
		</g>
	</g>
	<g class="st5">
		<g>
			<path class="st1" d="M157.6,120.64c8.29,6.2,25.61,6.81,32.04,6.81c6.43,0,23.75-0.61,32.04-6.81h-18.72v-19.28h11.4l-5.18-9.18
				H170.1l-5.18,9.18h11.4v19.28H157.6z M167.13,100.07l3.72-6.6h37.57l3.72,6.6h-10.48v21.86h15.05
				c-9.16,3.94-23.2,4.23-27.08,4.23c-3.87,0-17.92-0.29-27.07-4.23h15.05v-21.86H167.13z"/>
			<path class="st1" d="M181.26,72.37h16.74l-8.37-14.85L181.26,72.37z M183.47,71.08l6.16-10.93l6.16,10.93H183.47z"/>
			<path class="st1" d="M221.5,62.1l5.36,9.51V62.1H221.5z M225.57,66.68l-1.86-3.29h1.86V66.68z"/>
			<path class="st1" d="M260.63,64.04v-21.6h-45.37v4.66l-11.65-20.66h-27.96l-11.65,20.66v-4.66h-45.37v21.6h8.62v36.03h-8.2v21.86
				h8.71c2.16,10.43,12.93,28.8,61.87,28.8c48.95,0,59.72-18.37,61.88-28.8h8.71v-21.86h-8.21V64.04H260.63z M258.92,101.36v19.28
				h-8.49c-1.57,9.77-11.05,28.8-60.8,28.8s-59.23-19.03-60.8-28.8h-8.49v-19.28h8.21V62.75h-8.62V43.72h42.78v8.28l13.7-24.29
				h26.45l13.69,24.29v-8.28h42.79v19.02h-8.62v38.62H258.92z"/>
			<path class="st1" d="M157.77,62.1h-5.36v9.51L157.77,62.1z M153.7,63.39h1.86l-1.86,3.29V63.39z"/>
			<polygon class="st1" points="255.44,47.62 220.45,47.62 220.45,58.85 230.11,58.85 230.11,76.06 244.38,101.36 246.82,101.36 
				246.82,58.85 255.44,58.85 			"/>
			<path class="st1" d="M189.63,131.35c-13.63,0-30.88-2.24-37.61-10.71h-19.26c2.35,12.93,18.27,24.9,56.87,24.9
				c38.59,0,54.52-11.97,56.87-24.9h-19.26C220.52,129.11,203.27,131.35,189.63,131.35z"/>
			<polygon class="st1" points="132.45,101.36 134.89,101.36 149.16,76.06 149.16,58.85 158.82,58.85 158.82,47.62 123.83,47.62 
				123.83,58.85 132.45,58.85 			"/>
			<path class="st1" d="M252.07,131.26c-1.82,0-3.3,1.47-3.3,3.3c0,1.82,1.47,3.29,3.3,3.29c1.82,0,3.29-1.47,3.29-3.29
				C255.36,132.73,253.89,131.26,252.07,131.26z M252.07,137.14c-1.43,0-2.59-1.16-2.59-2.59c0-1.43,1.16-2.59,2.59-2.59
				c1.43,0,2.59,1.16,2.59,2.59C254.66,135.98,253.5,137.14,252.07,137.14z"/>
			<path class="st1" d="M253.42,133.79c0-0.62-0.5-1.12-1.12-1.12h-1.59v3.77h0.71v-1.53h0.51l0.71,1.53h0.78l-0.74-1.59
				C253.11,134.68,253.42,134.27,253.42,133.79z M252.3,134.2h-0.88v-0.82h0.88c0.23,0,0.41,0.18,0.41,0.41
				C252.71,134.01,252.53,134.2,252.3,134.2z"/>
			<path class="st1" d="M200.58,31.62h-21.89l-41.52,73.64h-12.93v11.49h48.18v-11.49h-14.17l9.57-16.97h43.63l9.57,16.97h-14.17
				v11.49h48.18v-11.49H242.1L200.58,31.62z M174.59,76.27l15.04-26.68l15.04,26.68H174.59z"/>
		</g>
	</g>
	<rect x="-42.81" y="292.66" class="st7" width="464.89" height="28.11"/>
	<text transform="matrix(1 0 0 1 -8.5041 312.3716)" class="st8 st9 st10">Department of Biological Sciences</text>
	<rect x="-42.81" y="250.49" class="st7" width="464.89" height="25.09"/>
	<text transform="matrix(1 0 0 1 65.8405 271.4861)" class="st8 st11 st12">Advancement</text>
</g>
</svg>
