<svg id="Lockup" xmlns="http://www.w3.org/2000/svg" viewBox="0 0 927.97 138.05"><defs><style>.cls-1{fill:#fff;}.cls-2{fill:#0b2341;}</style></defs><rect class="cls-1" x="599.31" y="41.54" width="5.9" height="37.95"/><path class="cls-1" d="M651.89,41.54,638.81,69.88a13.07,13.07,0,0,0-1.13,2.91,22.18,22.18,0,0,0-1.45-3.49L623.15,41.54h-6.6l18.23,37.95h5.75l17.9-37.95Z"/><polygon class="cls-1" points="675.25 62.32 703.65 62.32 703.65 57.28 675.25 57.28 675.25 46.79 704.44 46.79 704.44 41.54 669.34 41.54 669.34 79.49 705.76 79.49 705.76 74.23 675.25 74.23 675.25 62.32"/><polygon class="cls-1" points="844.02 46.63 859.25 46.63 859.25 79.49 865.15 79.49 865.15 46.63 880.44 46.63 880.44 41.54 844.02 41.54 844.02 46.63"/><path class="cls-1" d="M920.3,41.54,906.94,58.2a8.68,8.68,0,0,0-1.16,1.68,10.25,10.25,0,0,0-1.28-2l-13-16.39h-7.62l18.95,23.21V79.49h5.9V64.86L928,41.54Z"/><path class="cls-1" d="M238.62,64.72c0,3.22.11,6.87-4.61,9a21.76,21.76,0,0,1-8.78,1.64c-4.28,0-7.61-.83-10.2-2.53-3.3-2.11-3.46-4.74-3.51-8.8V41.54h-5.91V63.81c0,4,0,9.08,5.57,12.92,3.51,2.46,8.09,3.66,14,3.66,5.66,0,10.2-1.1,13.51-3.27,5.84-3.79,5.84-9,5.84-12.83V41.54h-5.9Z"/><path class="cls-1" d="M403.2,52.81a10.5,10.5,0,0,0-3.41-8.2c-3.28-3-7.33-3-10.63-3.07H363.39V79.49h5.9v-15h17.65l12.72,15h7.52L393.29,63.57C396.33,63,403.2,61.52,403.2,52.81Zm-5.95.21A6.12,6.12,0,0,1,396,56.87c-2.09,2.78-5.85,2.78-8.59,2.78H369.29V46.47h20.34c2.43.05,4.93.11,6.55,2.68A7.14,7.14,0,0,1,397.25,53Z"/><path class="cls-1" d="M452.78,41.54V68c.05,1.88.06,2.52.25,4.46a49.93,49.93,0,0,0-3.56-4L424.1,41.54h-5.77V79.49h5.52V54.18a57.34,57.34,0,0,0-.2-5.79c.83,1,1.32,1.6,2.51,2.92l26.63,28.18h5.51V41.54Z"/><path class="cls-1" d="M292.64,59c4-1.65,4.37-6,4.37-7.46a9.49,9.49,0,0,0-1.92-5.93c-3-3.74-7.74-4.05-12.38-4.05H258.4V79.49h24.31c4.13,0,9.26,0,12.73-2.92a10,10,0,0,0,3.42-7.77A10.38,10.38,0,0,0,292.64,59Zm.27,9.4A5.8,5.8,0,0,1,291,73c-1.93,1.62-4.35,1.76-6.68,1.76h-20V62.17h20c1.92,0,4.54,0,6.54,1.54A5.75,5.75,0,0,1,292.91,68.38Zm-28.6-10.95V46.32h18.34c1.89,0,4.25,0,6,1.12a5.15,5.15,0,0,1,2.36,4.46,5.32,5.32,0,0,1-2.55,4.71,10.09,10.09,0,0,1-4.94.82Z"/><path class="cls-1" d="M173.48,41.54,153.89,79.49h6.43l4.56-9.23h22.78l4.56,9.23h6.59L179.37,41.54Zm11.69,24H167.31l9.07-18.32Z"/><path class="cls-1" d="M577.25,41.54V68c0,1.88.06,2.52.25,4.46a51.94,51.94,0,0,0-3.56-4L548.57,41.54h-5.78V79.49h5.53V54.18a57.34,57.34,0,0,0-.2-5.79c.83,1,1.32,1.6,2.51,2.92l26.63,28.18h5.51V41.54Z"/><path class="cls-1" d="M760.29,52.81a10.53,10.53,0,0,0-3.4-8.2c-3.29-3-7.33-3-10.63-3.07H720.49V79.49h5.9v-15H744l12.72,15h7.52L750.39,63.57C753.42,63,760.29,61.52,760.29,52.81Zm-5.94.21a6.12,6.12,0,0,1-1.24,3.85c-2.09,2.78-5.86,2.78-8.59,2.78H726.39V46.47h20.34c2.43.05,4.92.11,6.55,2.68A7.14,7.14,0,0,1,754.35,53Z"/><path class="cls-1" d="M343.6,64.72c0,3.22.11,6.87-4.61,9a21.76,21.76,0,0,1-8.78,1.64c-4.27,0-7.61-.83-10.2-2.53-3.29-2.11-3.45-4.74-3.51-8.8V41.54h-5.9V63.81c0,4,0,9.08,5.56,12.92,3.52,2.46,8.1,3.66,14,3.66,5.65,0,10.2-1.1,13.5-3.27,5.85-3.79,5.85-9,5.85-12.83V41.54H343.6Z"/><path class="cls-1" d="M523,64.72c0,3.22.11,6.87-4.61,9a21.76,21.76,0,0,1-8.78,1.64c-4.27,0-7.61-.83-10.2-2.53-3.3-2.11-3.46-4.74-3.51-8.8V41.54H490V63.81c0,4,0,9.08,5.57,12.92,3.51,2.46,8.09,3.66,14,3.66,5.65,0,10.19-1.1,13.5-3.27,5.84-3.79,5.84-9,5.84-12.83V41.54H523Z"/><rect class="cls-1" x="826.92" y="41.54" width="5.9" height="37.95"/><path class="cls-1" d="M792.56,56.73c-4.63-.43-7.69-.6-9.79-1.34A4.1,4.1,0,0,1,780,51.56c0-4.17,5.1-5.9,12-5.9s11.18,2.2,13.59,5.12l5.4-2.19c-3.6-5.75-11.11-8-19.1-8-11.72,0-17.81,4.43-17.81,11.21a8.39,8.39,0,0,0,2.74,6.48c2.93,2.66,6.83,3,15.54,3.72,8.3.66,13,1.46,13,6s-4.69,7.22-12.35,7.22-13-2-16.44-6l-5.45,2.26c2.69,4.23,8.54,8.92,21.52,8.92S811.27,75,811.27,67.93c0-4.78-2.64-8-7.53-9.62C801,57.39,797,57.14,792.56,56.73Z"/><g id="AU_PMS" data-name="AU PMS"><path class="cls-1" d="M46.94,41.69H72.77L59.85,18.78Zm5.72-3.35,7.19-12.75L67,38.34Z"/><path class="cls-1" d="M119.7,30.07V13.74H83v7.11L71.2,0H48.5L36.74,20.85V13.74H0V30.07H7.4V63.23h-7V79.79H7.65c1.35,8.39,9.48,24.73,52.2,24.73s50.86-16.34,52.2-24.73h7.3V63.23h-7V30.07ZM3.35,26.73V17.09h30v9.64H25.1V41.5L12.84,63.23H10.75V26.73Zm28.19,3.34-3.1,5.5v-5.5Zm28.31,71.1C26.71,101.17,13,90.89,11,79.79H27.56C33.33,87.06,48.14,89,59.85,89s26.52-1.92,32.29-9.19h16.54c-2,11.1-15.69,21.38-48.83,21.38M38.63,63.23l4.44-7.88H76.63l4.44,7.88H71.29V79.79H87.36c-7.12,5.32-22,5.85-27.51,5.85s-20.39-.53-27.51-5.85H48.42V63.23ZM116,66.58v9.86H74.63V66.58H86.8L78.58,52H41.12L32.9,66.58H45.07v9.86H3.7V66.58H14.8L50.45,3.35h18.8L104.9,66.58ZM88.16,30.07h3.1v5.5ZM109,26.73v36.5h-2.1L94.6,41.5V26.73H86.31V17.09h30.05v9.64Z"/><path class="cls-2" d="M59.85,89c-11.71,0-26.52-1.92-32.29-9.19H11c2,11.1,15.69,21.38,48.83,21.38s46.81-10.28,48.83-21.38H92.14C86.37,87.06,71.56,89,59.85,89"/><polygon class="cls-2" points="10.75 63.23 12.84 63.23 25.1 41.5 25.1 26.73 33.39 26.73 33.39 17.09 3.35 17.09 3.35 26.73 10.75 26.73 10.75 63.23"/><polygon class="cls-2" points="86.31 17.09 86.31 26.73 94.61 26.73 94.61 41.5 106.86 63.23 108.96 63.23 108.96 26.73 116.36 26.73 116.36 17.09 86.31 17.09"/><path class="cls-2" d="M45.07,66.58H32.9L41.12,52H78.58L86.8,66.58H74.63v9.86H116V66.58H104.9L69.25,3.35H50.45L14.8,66.58H3.7v9.86H45.07Zm14.78-47.8L72.77,41.69H46.94Z"/><path class="cls-2" d="M113.46,88.9a2.83,2.83,0,1,0,2.83,2.83,2.83,2.83,0,0,0-2.83-2.83m0,5a2.22,2.22,0,1,1,2.22-2.22A2.21,2.21,0,0,1,113.46,94"/><path class="cls-2" d="M114.62,91.07a1,1,0,0,0-1-1H112.3v3.24h.6V92h.44l.61,1.32h.67L114,92a1,1,0,0,0,.64-.91m-1,.35h-.76v-.7h.76a.35.35,0,0,1,.35.35.34.34,0,0,1-.35.35"/></g><path class="cls-1" d="M170.94,112.07a12.85,12.85,0,0,0-8.47-2.83c-2.94,0-5.95,1.05-5.95,3.92s3.78,3.08,7.49,3.29c4,.28,10.43.66,10.43,6.79,0,5.32-4.72,7.46-10.22,7.46a17,17,0,0,1-12-4.69l1.85-2.11a14.44,14.44,0,0,0,10.22,4.21c3.89,0,7.11-1.4,7.11-4.48,0-3.44-3.5-4-7.39-4.24-4.93-.32-10.53-.67-10.53-6s5-6.79,9.1-6.79A16.75,16.75,0,0,1,172.76,110Z"/><path class="cls-1" d="M179.34,115.29a14.88,14.88,0,0,1,7.56-2.13c3.61,0,7.39,1.22,7.39,4.86v9.11a6.92,6.92,0,0,0,.52,3H192a6,6,0,0,1-.49-2.31,9.84,9.84,0,0,1-6.83,2.66c-4,0-6.54-2.34-6.54-5.64,0-3,2.69-5.39,7.56-5.39,2,0,4.51.49,5.81,1.72v-2.35c0-2.31-2.21-3.25-4.69-3.25a12,12,0,0,0-6.44,2Zm12.15,10.16v-2.07c-1-1-3.12-1.75-5.36-1.75-3.71,0-5.18,1.4-5.18,3.18s1.51,3.3,4.27,3.3A9.16,9.16,0,0,0,191.49,125.45Z"/><path class="cls-1" d="M200.66,130.1V117.85a19,19,0,0,0-.46-4.17h2.56a9.73,9.73,0,0,1,.38,2.49c1.26-1.51,2.87-3,5.53-3a5.86,5.86,0,0,1,5.43,3.32,6.94,6.94,0,0,1,5.7-3.32,5.68,5.68,0,0,1,5.88,5.81V130.1h-2.83V119a3.35,3.35,0,0,0-3.5-3.36c-2.1,0-3.71,1.47-4.8,2.8V130.1h-2.8V118.51a3.34,3.34,0,0,0-3.5-2.9c-2.13,0-3.74,1.47-4.79,2.8V130.1Z"/><path class="cls-1" d="M246.58,113.68V125.9a21.7,21.7,0,0,0,.28,4.2H244.3a12.65,12.65,0,0,1-.24-2.52,7.76,7.76,0,0,1-6,3c-3.61,0-6.38-2.41-6.38-5.78V113.68h2.84v11.13c0,1.86,1.64,3.33,4,3.33a7.23,7.23,0,0,0,5.32-2.76v-11.7Z"/><path class="cls-1" d="M268.31,127.51a11.73,11.73,0,0,1-8,3.08c-5.33,0-8.44-3.85-8.44-8.54a8.6,8.6,0,0,1,8.68-8.89c3.89,0,8.23,2.41,8.26,8.26a8.24,8.24,0,0,1,0,.84H254.66a5.66,5.66,0,0,0,5.92,5.85,8.28,8.28,0,0,0,5.88-2.42Zm-13.44-7.46h10.85c-.07-3.08-2.83-4.55-5.32-4.55A5.62,5.62,0,0,0,254.87,120.05Z"/><path class="cls-1" d="M274.15,130.1V105.6H277v24.5Z"/><path class="cls-1" d="M311.19,112.39a12.56,12.56,0,0,0-8.13-3,9.33,9.33,0,1,0,.28,18.66,12.58,12.58,0,0,0,7.39-2.24v-5.43h-7.42v-2.69H313.5v9.59a17.6,17.6,0,0,1-10.33,3.47c-7.18,0-12.67-5.4-12.67-12a12.21,12.21,0,0,1,12.53-12,16.07,16.07,0,0,1,10.26,3.85Z"/><path class="cls-1" d="M321.37,106a1.76,1.76,0,0,1,1.85,1.68,1.74,1.74,0,0,1-1.85,1.68,1.71,1.71,0,0,1-1.82-1.68A1.74,1.74,0,0,1,321.37,106ZM320,130.1V113.68h2.77V130.1Z"/><path class="cls-1" d="M329.31,130.1V117.85a19.83,19.83,0,0,0-.45-4.17h2.55a10,10,0,0,1,.39,2.52,7.86,7.86,0,0,1,6.05-3c3.61,0,6.34,2.41,6.34,5.81V130.1h-2.8V119c0-1.86-1.65-3.36-4-3.36a7.21,7.21,0,0,0-5.32,2.8V130.1Z"/><path class="cls-1" d="M350.52,130.1V117.85a19.83,19.83,0,0,0-.45-4.17h2.55a10,10,0,0,1,.39,2.52,7.86,7.86,0,0,1,6.05-3c3.61,0,6.34,2.41,6.34,5.81V130.1h-2.8V119c0-1.86-1.65-3.36-4-3.36a7.21,7.21,0,0,0-5.32,2.8V130.1Z"/><path class="cls-1" d="M402,126.14a15.63,15.63,0,0,1-11,4.56c-7.38,0-12.56-5.4-12.56-12a12,12,0,0,1,12.42-12,15.61,15.61,0,0,1,10.47,3.92l-2.07,2a12.57,12.57,0,0,0-8.33-3.26,9.33,9.33,0,1,0,.11,18.66,12.49,12.49,0,0,0,8.89-3.85Z"/><path class="cls-1" d="M414,113.16a8.72,8.72,0,1,1-8.79,8.68A8.56,8.56,0,0,1,414,113.16Zm0,15.09c3.57,0,5.95-2.91,5.95-6.41A6,6,0,0,0,414,115.5c-3.54,0-5.88,2.94-5.88,6.34S410.44,128.25,414,128.25Z"/><path class="cls-1" d="M428.26,130.1V105.6h2.8v24.5Z"/><path class="cls-1" d="M438,130.1V105.6h2.8v24.5Z"/><path class="cls-1" d="M462.77,127.51a11.75,11.75,0,0,1-8,3.08c-5.32,0-8.43-3.85-8.43-8.54a8.6,8.6,0,0,1,8.68-8.89c3.88,0,8.22,2.41,8.26,8.26a6.19,6.19,0,0,1,0,.84h-14.1a5.66,5.66,0,0,0,5.91,5.85,8.27,8.27,0,0,0,5.88-2.42Zm-13.44-7.46h10.85c-.07-3.08-2.84-4.55-5.32-4.55A5.62,5.62,0,0,0,449.33,120.05Z"/><path class="cls-1" d="M481,127.9a8,8,0,0,1-5.67,2.69c-4.45,0-8.19-3.43-8.19-8.65s3.78-8.78,8.36-8.78a7.47,7.47,0,0,1,5.74,3,9.33,9.33,0,0,1,.35-2.55h2.59a17.51,17.51,0,0,0-.38,4.2v13.3c0,3.78-2.8,6.9-8.23,6.9-3.74,0-6-1.26-7.45-2.84l1.68-1.64a7.49,7.49,0,0,0,5.77,2.13c3.57,0,5.43-2,5.43-4.55Zm0-2.28V118.2a7.08,7.08,0,0,0-5.25-2.59c-3,0-5.53,2.48-5.53,6.33s2.41,6.2,5.35,6.2A8,8,0,0,0,481,125.62Z"/><path class="cls-1" d="M505.54,127.51a11.75,11.75,0,0,1-8,3.08c-5.32,0-8.44-3.85-8.44-8.54a8.61,8.61,0,0,1,8.69-8.89c3.88,0,8.22,2.41,8.26,8.26a6.19,6.19,0,0,1,0,.84h-14.1a5.66,5.66,0,0,0,5.91,5.85,8.27,8.27,0,0,0,5.88-2.42Zm-13.44-7.46H503c-.07-3.08-2.84-4.55-5.32-4.55A5.62,5.62,0,0,0,492.1,120.05Z"/><path class="cls-1" d="M526.57,113.16a8.72,8.72,0,1,1-8.79,8.68A8.56,8.56,0,0,1,526.57,113.16Zm0,15.09c3.57,0,5.95-2.91,5.95-6.41a6,6,0,0,0-5.95-6.34c-3.54,0-5.88,2.94-5.88,6.34S523,128.25,526.57,128.25Z"/><path class="cls-1" d="M541.76,113.68v-3.36c0-3.81,2.63-5.11,4.87-5.11a6.89,6.89,0,0,1,3.78,1.05l-.56,2.28a4.93,4.93,0,0,0-2.7-.84,2.4,2.4,0,0,0-2.59,2.62v3.36h4.83v2.17h-4.83V130.1h-2.8V115.85h-3.22v-2.17Z"/><path class="cls-1" d="M574.84,119.42h-9.25v8h16.14v2.69H562.55V107.24h18.38v2.7H565.59v6.79h9.25Z"/><path class="cls-1" d="M586.49,130.1V117.85a19.22,19.22,0,0,0-.46-4.17h2.56a10,10,0,0,1,.38,2.52,7.88,7.88,0,0,1,6.06-3c3.6,0,6.34,2.41,6.34,5.81V130.1h-2.81V119c0-1.86-1.64-3.36-3.95-3.36a7.19,7.19,0,0,0-5.32,2.8V130.1Z"/><path class="cls-1" d="M620.3,127.9a8,8,0,0,1-5.67,2.69c-4.45,0-8.19-3.43-8.19-8.65s3.78-8.78,8.36-8.78a7.47,7.47,0,0,1,5.74,3,9.33,9.33,0,0,1,.35-2.55h2.59a17.51,17.51,0,0,0-.38,4.2v13.3c0,3.78-2.8,6.9-8.23,6.9-3.74,0-6-1.26-7.45-2.84l1.68-1.64a7.49,7.49,0,0,0,5.77,2.13c3.57,0,5.43-2,5.43-4.55Zm0-2.28V118.2a7.08,7.08,0,0,0-5.25-2.59c-3,0-5.53,2.48-5.53,6.33s2.41,6.2,5.35,6.2A8,8,0,0,0,620.3,125.62Z"/><path class="cls-1" d="M631,106a1.77,1.77,0,0,1,1.86,1.68,1.75,1.75,0,0,1-1.86,1.68,1.71,1.71,0,0,1-1.82-1.68A1.74,1.74,0,0,1,631,106Zm-1.36,24.12V113.68h2.76V130.1Z"/><path class="cls-1" d="M638.92,130.1V117.85a19.22,19.22,0,0,0-.46-4.17H641a10,10,0,0,1,.38,2.52,7.88,7.88,0,0,1,6.06-3c3.6,0,6.33,2.41,6.33,5.81V130.1H651V119c0-1.86-1.64-3.36-4-3.36a7.19,7.19,0,0,0-5.32,2.8V130.1Z"/><path class="cls-1" d="M675.28,127.51a11.73,11.73,0,0,1-8,3.08c-5.32,0-8.44-3.85-8.44-8.54a8.6,8.6,0,0,1,8.68-8.89c3.89,0,8.23,2.41,8.26,8.26a8.24,8.24,0,0,1,0,.84H661.63c.11,3.22,2.17,5.85,5.92,5.85a8.28,8.28,0,0,0,5.88-2.42Zm-13.44-7.46h10.85c-.07-3.08-2.83-4.55-5.32-4.55A5.62,5.62,0,0,0,661.84,120.05Z"/><path class="cls-1" d="M696.11,127.51a11.75,11.75,0,0,1-8,3.08c-5.32,0-8.43-3.85-8.43-8.54a8.6,8.6,0,0,1,8.68-8.89c3.88,0,8.22,2.41,8.26,8.26a6.19,6.19,0,0,1,0,.84h-14.1a5.66,5.66,0,0,0,5.91,5.85,8.27,8.27,0,0,0,5.88-2.42Zm-13.44-7.46h10.85c-.07-3.08-2.84-4.55-5.32-4.55A5.62,5.62,0,0,0,682.67,120.05Z"/><path class="cls-1" d="M701.78,130.1V117.85a17.37,17.37,0,0,0-.49-4.17h2.59a12.1,12.1,0,0,1,.38,2.84c1.12-1.68,2.59-3.36,5-3.36a3.38,3.38,0,0,1,2.48.84l-.91,2.55a4.06,4.06,0,0,0-2.2-.66c-1.79,0-3.08,1.61-4.06,3v11.2Z"/><path class="cls-1" d="M717,106a1.76,1.76,0,0,1,1.85,1.68,1.74,1.74,0,0,1-1.85,1.68,1.71,1.71,0,0,1-1.82-1.68A1.74,1.74,0,0,1,717,106ZM715.6,130.1V113.68h2.77V130.1Z"/><path class="cls-1" d="M724.91,130.1V117.85a19.83,19.83,0,0,0-.45-4.17H727a10,10,0,0,1,.39,2.52,7.86,7.86,0,0,1,6.05-3c3.61,0,6.34,2.41,6.34,5.81V130.1H737V119c0-1.86-1.65-3.36-4-3.36a7.21,7.21,0,0,0-5.32,2.8V130.1Z"/><path class="cls-1" d="M758.72,127.9a8,8,0,0,1-5.67,2.69c-4.44,0-8.19-3.43-8.19-8.65s3.78-8.78,8.37-8.78a7.47,7.47,0,0,1,5.74,3,9,9,0,0,1,.35-2.55h2.59a17.54,17.54,0,0,0-.39,4.2v13.3c0,3.78-2.8,6.9-8.22,6.9-3.75,0-6-1.26-7.46-2.84l1.68-1.64a7.52,7.52,0,0,0,5.78,2.13c3.57,0,5.42-2,5.42-4.55Zm0-2.28V118.2a7,7,0,0,0-5.25-2.59c-3,0-5.53,2.48-5.53,6.33s2.42,6.2,5.36,6.2A8,8,0,0,0,758.72,125.62Z"/></svg>