<?xml version="1.0" encoding="utf-8"?>
<!-- Generator: Adobe Illustrator 26.2.1, SVG Export Plug-In . SVG Version: 6.00 Build 0)  -->
<svg version="1.1" xmlns="http://www.w3.org/2000/svg" xmlns:xlink="http://www.w3.org/1999/xlink" x="0px" y="0px"
	 viewBox="0 0 535.72 178.03" style="enable-background:new 0 0 535.72 178.03;" xml:space="preserve">
<style type="text/css">
	.st0{fill:#E86100;}
	.st1{fill:#0B2341;}
	.st2{fill:#FFFFFF;}
	.st3{fill:#231F20;}
	.st4{display:none;}
	.st5{display:inline;}
	.st6{display:inline;fill:none;}
	.st7{display:inline;fill:#231F20;}
	.st8{font-family:'UtopiaStd-Italic';}
	.st9{font-size:28px;}
	.st10{font-family:'SweetSansPro-Regular';}
	.st11{font-size:30px;}
</style>
<g id="lowercase">
	<g>
		<g>
			<path d="M33.42,80.83c7.11,5.32,21.97,5.84,27.49,5.84c5.51,0,20.37-0.52,27.49-5.84H72.34V64.29h9.78l-4.44-7.88H44.15
				l-4.44,7.88h9.78v16.54H33.42z M41.6,63.18l3.19-5.66h32.23l3.19,5.66h-8.99v18.76h12.91c-7.86,3.38-19.9,3.63-23.23,3.63
				c-3.32,0-15.37-0.25-23.23-3.63h12.91V63.18H41.6z"/>
			<path d="M53.73,39.42h14.36l-7.18-12.74L53.73,39.42z M55.62,38.31l5.29-9.38l5.29,9.38H55.62z"/>
			<path d="M88.25,30.6l4.6,8.15V30.6H88.25z M91.74,34.54l-1.59-2.83h1.59V34.54z"/>
			<path d="M121.82,32.26V13.73H82.89v3.99L72.9,0H48.92l-9.99,17.72v-3.99H0v18.53h7.39v30.91H0.35v18.76h7.47
				c1.85,8.95,11.09,24.71,53.09,24.71c41.99,0,51.23-15.76,53.09-24.71h7.47V63.18h-7.04V32.26H121.82z M120.36,64.29v16.54h-7.28
				c-1.35,8.38-9.48,24.71-52.16,24.71S10.1,89.21,8.75,80.83H1.46V64.29H8.5V31.16h-7.4V14.84h36.71v7.11L49.56,1.11h22.69
				L84,21.95v-7.11h36.71v16.32h-7.39v33.13H120.36z"/>
			<path d="M33.57,30.6h-4.6v8.16L33.57,30.6z M30.08,31.71h1.6l-1.6,2.83V31.71z"/>
			<polygon points="117.37,18.18 87.35,18.18 87.35,27.81 95.64,27.81 95.64,42.58 107.88,64.29 109.97,64.29 109.97,27.81 
				117.37,27.81 			"/>
			<path d="M60.91,90.02c-11.7,0-26.5-1.92-32.26-9.19H12.12c2.01,11.09,15.68,21.37,48.79,21.37c33.11,0,46.78-10.27,48.79-21.37
				H93.17C87.41,88.1,72.61,90.02,60.91,90.02z"/>
			<polygon points="11.85,64.29 13.94,64.29 26.18,42.58 26.18,27.81 34.47,27.81 34.47,18.18 4.45,18.18 4.45,27.81 11.85,27.81 
							"/>
			<path d="M114.48,89.94c-1.56,0-2.83,1.27-2.83,2.83c0,1.56,1.26,2.83,2.83,2.83c1.56,0,2.83-1.27,2.83-2.83
				C117.3,91.2,116.04,89.94,114.48,89.94z M114.48,94.98c-1.23,0-2.22-0.99-2.22-2.22c0-1.23,0.99-2.22,2.22-2.22
				c1.23,0,2.22,0.99,2.22,2.22C116.7,93.99,115.7,94.98,114.48,94.98z"/>
			<path d="M115.64,92.11c0-0.53-0.43-0.96-0.96-0.96h-1.36v3.23h0.61v-1.31h0.44l0.61,1.31h0.67L115,93.01
				C115.37,92.88,115.64,92.52,115.64,92.11z M114.68,92.46h-0.76v-0.7h0.76c0.19,0,0.35,0.16,0.35,0.35
				C115.03,92.3,114.87,92.46,114.68,92.46z"/>
			<path d="M70.3,4.45H51.52L15.89,67.63H4.8v9.86h41.34v-9.86H33.98l8.21-14.56h37.43l8.21,14.56H75.68v9.86h41.34v-9.86h-11.09
				L70.3,4.45z M48.01,42.76l12.9-22.89l12.91,22.89H48.01z"/>
		</g>
	</g>
	<g>
		<path d="M374.45,34.81h6.34v26.87c0,4.49,0,10.64-6.84,15.07c-3.92,2.56-9.3,3.86-15.98,3.86c-6.97,0-12.38-1.41-16.55-4.32
			c-6.52-4.5-6.52-10.42-6.52-15.19v-26.3h6.34v26.56c0.04,4.81,0.38,8.15,4.44,10.77c3.16,2.06,7.2,3.06,12.34,3.06
			c4.03,0,7.91-0.72,10.63-1.98c5.79-2.61,5.79-7.27,5.79-11.01V34.81z"/>
		<path d="M252.55,34.81h6.34v26.87c0,4.49,0,10.64-6.85,15.07c-3.92,2.56-9.29,3.86-15.98,3.86c-6.97,0-12.38-1.41-16.55-4.32
			c-6.52-4.5-6.52-10.42-6.52-15.19v-26.3h6.34v26.56c0.04,4.81,0.38,8.15,4.44,10.77c3.16,2.06,7.2,3.06,12.34,3.06
			c4.03,0,7.91-0.72,10.63-1.98c5.79-2.61,5.79-7.27,5.79-11.01V34.81z"/>
		<path d="M402.29,56.54V39.91h24.87c2.82,0.06,6.04,0.32,8.04,3.52c0.86,1.31,1.34,2.99,1.34,4.8c0,1.87-0.51,3.47-1.54,4.78
			c-2.59,3.45-7.16,3.54-10.5,3.54H402.29z M430.95,60.62c3.38-0.56,12.12-2.06,12.12-12.67c0-5.3-2.49-8.26-3.98-9.55
			c-3.84-3.45-8.61-3.54-12.5-3.59h-30.48v44.72h6.26v-17.9h21.72l15.17,17.9h8.2L430.95,60.62z"/>
		<path d="M506.93,34.81v44.72h-6.15l-31.72-33.56c-0.87-0.92-2.85-3.28-3.58-4.23c0.28,2.54,0.31,6.28,0.31,7.87v29.92h-6V34.81
			h6.47c0,0,29.19,30.98,30.2,32.04c1.23,1.3,2.78,2.93,4.87,5.58c-0.33-3.02-0.4-5.59-0.4-6.27c0-1.73,0-31.35,0-31.35H506.93z"/>
		<path d="M312.99,72.25c-2.38,2-5.34,2.19-8.16,2.19h-24.36V58.88h24.36c2.33,0,5.51-0.04,7.91,1.82l0.09,0.06
			c0.64,0.54,2.57,2.21,2.57,5.79C315.41,68.94,314.6,70.86,312.99,72.25 M280.48,39.9h22.39c2.29,0,5.15,0.02,7.37,1.41
			c1.35,0.92,2.96,2.63,2.96,5.57c0,1.99-0.84,4.6-3.21,5.89c-1.78,1.02-4.05,1.02-6.04,1.02h-23.47V39.9z M313.96,55.33
			c5.31-1.66,5.75-7.15,5.75-8.89c0-2.67-0.75-4.98-2.22-6.9c-3.45-4.36-9.08-4.72-14.56-4.72h-28.72v44.72h28.72
			c4.88,0,10.96,0,15.02-3.42c2.52-2.12,3.98-5.41,3.98-9.04C321.93,62.85,319.81,57.41,313.96,55.33"/>
		<path d="M167.78,63.47l11.33-22.89l10.99,22.89H167.78z M182.5,34.81h-6.67l-23.09,44.72h7.01l5.42-10.97h27.62l5.42,10.97h7.21
			L182.5,34.81z"/>
	</g>
	<g>
		<path d="M171.69,110.06c-1.37-1.23-4.27-2.84-8.47-2.84c-2.94,0-5.95,1.05-5.95,3.92c0,2.94,3.78,3.08,7.49,3.29
			c3.99,0.28,10.43,0.67,10.43,6.79c0,5.32-4.73,7.46-10.22,7.46c-5.81,0-9.52-2.42-12.01-4.69l1.86-2.1
			c1.92,1.79,5.11,4.2,10.22,4.2c3.89,0,7.11-1.4,7.11-4.48c0-3.43-3.5-3.96-7.39-4.24c-4.94-0.32-10.54-0.67-10.54-5.95
			c0-5.22,5-6.79,9.1-6.79c4.73,0,8.44,1.89,10.19,3.33L171.69,110.06z"/>
		<path d="M180.09,113.28c1.47-0.91,4.24-2.14,7.56-2.14c3.61,0,7.39,1.23,7.39,4.87v9.1c0,0.88,0.07,2.1,0.52,2.98h-2.83
			c-0.32-0.59-0.46-1.58-0.49-2.31c-1.26,1.15-3.46,2.66-6.83,2.66c-4.03,0-6.55-2.35-6.55-5.64c0-2.97,2.7-5.39,7.56-5.39
			c2.03,0,4.52,0.49,5.81,1.72v-2.34c0-2.31-2.21-3.26-4.69-3.26c-2.7,0-5.29,1.19-6.44,2.03L180.09,113.28z M192.23,123.43v-2.07
			c-0.95-1.05-3.12-1.75-5.36-1.75c-3.71,0-5.18,1.4-5.18,3.18c0,1.82,1.51,3.29,4.27,3.29
			C189.4,126.09,191.92,123.85,192.23,123.43z"/>
		<path d="M201.4,128.09v-12.25c0-1.37-0.14-2.73-0.46-4.17h2.55c0.25,0.88,0.35,1.54,0.38,2.49c1.26-1.5,2.87-3.01,5.53-3.01
			c2.55,0,4.52,1.4,5.43,3.33c1.19-1.71,3.04-3.33,5.71-3.33c3.33,0,5.88,2.42,5.88,5.81v11.13h-2.84v-11.13
			c0-1.85-1.43-3.36-3.5-3.36c-2.1,0-3.71,1.47-4.79,2.8v11.69h-2.8V116.5c-0.17-1.54-1.47-2.9-3.5-2.9c-2.14,0-3.75,1.47-4.8,2.8
			v11.69H201.4z"/>
		<path d="M247.32,111.67v12.22c0,1.33,0,2.77,0.28,4.2h-2.56c-0.17-0.77-0.25-1.75-0.25-2.52c-1.37,1.51-3.12,3.01-6.02,3.01
			c-3.61,0-6.37-2.42-6.37-5.78v-11.13h2.84v11.13c0,1.86,1.64,3.33,3.96,3.33c2.38,0,4.13-1.44,5.32-2.77v-11.69H247.32z"/>
		<path d="M269.06,125.5c-1.79,1.72-4.69,3.08-8.02,3.08c-5.32,0-8.44-3.85-8.44-8.54c0-4.97,3.64-8.89,8.68-8.89
			c3.89,0,8.23,2.42,8.26,8.26c0,0.24,0,0.56-0.04,0.84h-14.11c0.11,3.22,2.17,5.85,5.92,5.85c2.34,0,4.48-0.98,5.88-2.42
			L269.06,125.5z M255.62,118.04h10.85c-0.07-3.08-2.83-4.55-5.32-4.55C258.21,113.49,256.25,115.48,255.62,118.04z"/>
		<path d="M274.9,128.09v-24.5h2.8v24.5H274.9z"/>
		<path d="M311.93,110.37c-2.03-1.89-5.25-3.04-8.12-3.04c-5.43,0-9.38,4.2-9.38,9.35c0,4.9,3.64,9.31,9.66,9.31
			c2.7,0,5.64-0.84,7.39-2.24v-5.43h-7.42v-2.7h10.19v9.59c-2.76,2.13-6.69,3.46-10.33,3.46c-7.17,0-12.67-5.39-12.67-12.04
			s5.53-12.01,12.53-12.01c3.61,0,7.32,1.37,10.26,3.85L311.93,110.37z"/>
		<path d="M322.12,103.97c1.05,0,1.86,0.77,1.86,1.68c0,0.95-0.81,1.68-1.86,1.68s-1.82-0.74-1.82-1.68
			C320.3,104.74,321.07,103.97,322.12,103.97z M320.75,128.09v-16.42h2.77v16.42H320.75z"/>
		<path d="M330.06,128.09v-12.25c0-1.33-0.14-2.73-0.46-4.17h2.55c0.25,0.88,0.35,1.58,0.38,2.52c1.37-1.5,3.15-3.05,6.06-3.05
			c3.61,0,6.34,2.42,6.34,5.81v11.13h-2.8v-11.13c0-1.85-1.65-3.36-3.96-3.36c-2.42,0-4.13,1.47-5.32,2.8v11.69H330.06z"/>
		<path d="M351.27,128.09v-12.25c0-1.33-0.14-2.73-0.46-4.17h2.56c0.25,0.88,0.35,1.58,0.38,2.52c1.37-1.5,3.15-3.05,6.06-3.05
			c3.61,0,6.34,2.42,6.34,5.81v11.13h-2.8v-11.13c0-1.85-1.65-3.36-3.96-3.36c-2.42,0-4.13,1.47-5.32,2.8v11.69H351.27z"/>
		<path d="M176.87,166.13c-2.49,2.45-6.27,4.55-10.96,4.55c-7.39,0-12.57-5.39-12.57-12.04c0-6.58,5.18-12.01,12.43-12.01
			c4.1,0,7.95,1.57,10.47,3.92l-2.06,2.03c-2.1-2-5.32-3.25-8.33-3.25c-5.46,0-9.31,4.24-9.31,9.35c0,5.15,3.89,9.31,9.42,9.31
			c3.64,0,6.79-1.68,8.89-3.85L176.87,166.13z"/>
		<path d="M188.84,153.14c5.15,0,8.82,3.85,8.82,8.68c0,4.9-3.68,8.75-8.82,8.75c-5.11,0-8.79-3.85-8.79-8.75
			C180.05,157,183.73,153.14,188.84,153.14z M188.84,168.23c3.57,0,5.95-2.91,5.95-6.41c0-3.4-2.38-6.34-5.95-6.34
			c-3.54,0-5.88,2.94-5.88,6.34C182.96,165.33,185.3,168.23,188.84,168.23z"/>
		<path d="M203.12,170.09v-24.5h2.8v24.5H203.12z"/>
		<path d="M212.88,170.09v-24.5h2.8v24.5H212.88z"/>
		<path d="M237.63,167.5c-1.79,1.72-4.69,3.08-8.02,3.08c-5.32,0-8.44-3.85-8.44-8.54c0-4.97,3.64-8.89,8.68-8.89
			c3.88,0,8.23,2.42,8.26,8.26c0,0.24,0,0.56-0.04,0.84h-14.11c0.1,3.22,2.17,5.85,5.92,5.85c2.35,0,4.48-0.98,5.88-2.42
			L237.63,167.5z M224.19,160.04h10.85c-0.07-3.08-2.83-4.55-5.32-4.55C226.78,155.49,224.82,157.48,224.19,160.04z"/>
		<path d="M255.9,167.88c-1.64,1.71-3.64,2.7-5.67,2.7c-4.45,0-8.19-3.43-8.19-8.65c0-5.32,3.78-8.79,8.37-8.79
			c2.8,0,4.97,1.93,5.74,3.05c0-0.84,0.11-1.72,0.35-2.56h2.59c-0.35,1.44-0.38,2.87-0.38,4.2v13.3c0,3.78-2.8,6.9-8.23,6.9
			c-3.75,0-5.99-1.26-7.46-2.84l1.68-1.64c1.16,1.19,2.87,2.13,5.78,2.13c3.57,0,5.42-2,5.42-4.55V167.88z M255.9,165.61v-7.42
			c-0.59-0.73-2.49-2.59-5.25-2.59c-3.01,0-5.53,2.48-5.53,6.34c0,3.74,2.42,6.2,5.36,6.2C252.4,168.13,254.32,167.15,255.9,165.61z
			"/>
		<path d="M280.4,167.5c-1.79,1.72-4.69,3.08-8.02,3.08c-5.32,0-8.44-3.85-8.44-8.54c0-4.97,3.64-8.89,8.68-8.89
			c3.88,0,8.23,2.42,8.26,8.26c0,0.24,0,0.56-0.04,0.84h-14.11c0.1,3.22,2.17,5.85,5.92,5.85c2.35,0,4.48-0.98,5.88-2.42
			L280.4,167.5z M266.96,160.04h10.85c-0.07-3.08-2.83-4.55-5.32-4.55C269.55,155.49,267.59,157.48,266.96,160.04z"/>
		<path d="M301.43,153.14c5.15,0,8.82,3.85,8.82,8.68c0,4.9-3.68,8.75-8.82,8.75c-5.11,0-8.79-3.85-8.79-8.75
			C292.65,157,296.32,153.14,301.43,153.14z M301.43,168.23c3.57,0,5.95-2.91,5.95-6.41c0-3.4-2.38-6.34-5.95-6.34
			c-3.54,0-5.88,2.94-5.88,6.34C295.55,165.33,297.9,168.23,301.43,168.23z"/>
		<path d="M316.62,153.67v-3.36c0-3.82,2.63-5.11,4.87-5.11c1.33,0,3.01,0.42,3.78,1.05l-0.56,2.27c-0.56-0.49-1.86-0.84-2.7-0.84
			c-1.43,0-2.59,0.81-2.59,2.63v3.36h4.83v2.17h-4.83v14.25h-2.8v-14.25h-3.22v-2.17H316.62z"/>
		<path d="M349,159.41h-9.24v7.98h16.14v2.7h-19.18v-22.86h18.38v2.7h-15.33v6.79H349V159.41z"/>
		<path d="M360.3,170.09v-12.25c0-1.33-0.14-2.73-0.46-4.17h2.55c0.25,0.88,0.35,1.58,0.38,2.52c1.37-1.5,3.15-3.05,6.06-3.05
			c3.61,0,6.34,2.42,6.34,5.81v11.13h-2.8v-11.13c0-1.85-1.65-3.36-3.96-3.36c-2.42,0-4.13,1.47-5.32,2.8v11.69H360.3z"/>
		<path d="M394.11,167.88c-1.65,1.71-3.64,2.7-5.67,2.7c-4.45,0-8.19-3.43-8.19-8.65c0-5.32,3.78-8.79,8.37-8.79
			c2.8,0,4.97,1.93,5.74,3.05c0-0.84,0.1-1.72,0.35-2.56h2.59c-0.35,1.44-0.39,2.87-0.39,4.2v13.3c0,3.78-2.8,6.9-8.23,6.9
			c-3.75,0-5.99-1.26-7.46-2.84l1.68-1.64c1.16,1.19,2.87,2.13,5.78,2.13c3.57,0,5.43-2,5.43-4.55V167.88z M394.11,165.61v-7.42
			c-0.6-0.73-2.49-2.59-5.25-2.59c-3.01,0-5.53,2.48-5.53,6.34c0,3.74,2.42,6.2,5.36,6.2C390.61,168.13,392.54,167.15,394.11,165.61
			z"/>
		<path d="M404.79,145.97c1.05,0,1.85,0.77,1.85,1.68c0,0.95-0.8,1.68-1.85,1.68c-1.05,0-1.82-0.74-1.82-1.68
			C402.97,146.74,403.73,145.97,404.79,145.97z M403.42,170.09v-16.42h2.76v16.42H403.42z"/>
		<path d="M412.73,170.09v-12.25c0-1.33-0.14-2.73-0.46-4.17h2.56c0.25,0.88,0.35,1.58,0.38,2.52c1.37-1.5,3.15-3.05,6.06-3.05
			c3.61,0,6.34,2.42,6.34,5.81v11.13h-2.8v-11.13c0-1.85-1.65-3.36-3.96-3.36c-2.42,0-4.13,1.47-5.32,2.8v11.69H412.73z"/>
		<path d="M449.1,167.5c-1.79,1.72-4.69,3.08-8.02,3.08c-5.32,0-8.44-3.85-8.44-8.54c0-4.97,3.64-8.89,8.68-8.89
			c3.88,0,8.23,2.42,8.26,8.26c0,0.24,0,0.56-0.04,0.84h-14.11c0.1,3.22,2.17,5.85,5.92,5.85c2.35,0,4.48-0.98,5.88-2.42
			L449.1,167.5z M435.65,160.04h10.85c-0.07-3.08-2.83-4.55-5.32-4.55C438.24,155.49,436.28,157.48,435.65,160.04z"/>
		<path d="M469.92,167.5c-1.79,1.72-4.69,3.08-8.02,3.08c-5.32,0-8.44-3.85-8.44-8.54c0-4.97,3.64-8.89,8.68-8.89
			c3.89,0,8.23,2.42,8.26,8.26c0,0.24,0,0.56-0.04,0.84h-14.11c0.11,3.22,2.17,5.85,5.92,5.85c2.34,0,4.48-0.98,5.88-2.42
			L469.92,167.5z M456.48,160.04h10.85c-0.07-3.08-2.83-4.55-5.32-4.55C459.07,155.49,457.11,157.48,456.48,160.04z"/>
		<path d="M475.59,170.09v-12.25c0-1.37-0.14-2.73-0.49-4.17h2.59c0.25,0.95,0.35,1.75,0.38,2.84c1.12-1.68,2.59-3.36,5.01-3.36
			c1.02,0,2,0.28,2.49,0.84l-0.91,2.56c-0.49-0.42-1.58-0.67-2.21-0.67c-1.79,0-3.08,1.61-4.06,3.01v11.2H475.59z"/>
		<path d="M490.78,145.97c1.05,0,1.86,0.77,1.86,1.68c0,0.95-0.81,1.68-1.86,1.68s-1.82-0.74-1.82-1.68
			C488.96,146.74,489.73,145.97,490.78,145.97z M489.41,170.09v-16.42h2.77v16.42H489.41z"/>
		<path d="M498.72,170.09v-12.25c0-1.33-0.14-2.73-0.46-4.17h2.55c0.25,0.88,0.35,1.58,0.38,2.52c1.37-1.5,3.15-3.05,6.06-3.05
			c3.61,0,6.34,2.42,6.34,5.81v11.13h-2.8v-11.13c0-1.85-1.65-3.36-3.96-3.36c-2.42,0-4.13,1.47-5.32,2.8v11.69H498.72z"/>
		<path d="M532.53,167.88c-1.65,1.71-3.64,2.7-5.67,2.7c-4.45,0-8.19-3.43-8.19-8.65c0-5.32,3.78-8.79,8.37-8.79
			c2.8,0,4.97,1.93,5.74,3.05c0-0.84,0.1-1.72,0.35-2.56h2.59c-0.35,1.44-0.39,2.87-0.39,4.2v13.3c0,3.78-2.8,6.9-8.23,6.9
			c-3.75,0-5.99-1.26-7.46-2.84l1.68-1.64c1.16,1.19,2.87,2.13,5.78,2.13c3.57,0,5.43-2,5.43-4.55V167.88z M532.53,165.61v-7.42
			c-0.6-0.73-2.49-2.59-5.25-2.59c-3.01,0-5.53,2.48-5.53,6.34c0,3.74,2.42,6.2,5.36,6.2C529.03,168.13,530.96,167.15,532.53,165.61
			z"/>
	</g>
</g>
<g id="hybrid" class="st4">
	<g class="st5">
		<g>
			<path class="st3" d="M-24.52,106.03c7.11,5.32,21.97,5.84,27.49,5.84c5.51,0,20.37-0.52,27.49-5.84H14.39V89.49h9.78l-4.44-7.88
				H-13.8l-4.44,7.88h9.78v16.54H-24.52z M-16.34,88.38l3.19-5.66h32.23l3.19,5.66h-8.99v18.76h12.91
				c-7.86,3.38-19.9,3.63-23.23,3.63c-3.32,0-15.37-0.25-23.23-3.63h12.91V88.38H-16.34z"/>
			<path class="st3" d="M-4.22,64.62h14.36L2.96,51.88L-4.22,64.62z M-2.32,63.51l5.29-9.38l5.29,9.38H-2.32z"/>
			<path class="st3" d="M30.3,55.8l4.6,8.15V55.8H30.3z M33.79,59.73l-1.59-2.83h1.59V59.73z"/>
			<path class="st3" d="M63.87,57.46V38.93H24.95v3.99L14.96,25.2H-9.03l-9.99,17.72v-3.99h-38.92v18.53h7.39v30.91h-7.04v18.76
				h7.47c1.85,8.95,11.09,24.71,53.09,24.71c41.99,0,51.23-15.76,53.09-24.71h7.47V88.38h-7.04V57.46H63.87z M62.41,89.49v16.54
				h-7.28c-1.35,8.38-9.48,24.71-52.16,24.71s-50.81-16.33-52.16-24.71h-7.28V89.49h7.04V56.36h-7.4V40.04h36.71v7.11l11.75-20.84
				h22.69l11.75,20.84v-7.11h36.71v16.32h-7.39v33.13H62.41z"/>
			<polygon class="st3" points="59.42,43.38 29.4,43.38 29.4,53.01 37.69,53.01 37.69,67.77 49.93,89.49 52.03,89.49 52.03,53.01 
				59.42,53.01 			"/>
			<path class="st3" d="M2.96,115.21c-11.7,0-26.5-1.92-32.26-9.19h-16.52c2.01,11.09,15.68,21.37,48.79,21.37
				c33.11,0,46.78-10.27,48.79-21.37H35.23C29.46,113.29,14.66,115.21,2.96,115.21z"/>
			<path class="st3" d="M56.53,115.13c-1.56,0-2.83,1.27-2.83,2.83c0,1.56,1.26,2.83,2.83,2.83c1.56,0,2.83-1.27,2.83-2.83
				C59.36,116.4,58.09,115.13,56.53,115.13z M56.53,120.18c-1.23,0-2.22-0.99-2.22-2.22c0-1.23,0.99-2.22,2.22-2.22
				c1.23,0,2.22,0.99,2.22,2.22C58.75,119.19,57.76,120.18,56.53,120.18z"/>
			<path class="st3" d="M57.69,117.31c0-0.53-0.43-0.96-0.96-0.96h-1.36v3.23h0.61v-1.31h0.44l0.61,1.31h0.67l-0.64-1.37
				C57.42,118.08,57.69,117.72,57.69,117.31z M56.73,117.66h-0.76v-0.7h0.76c0.19,0,0.35,0.16,0.35,0.35
				C57.08,117.5,56.92,117.66,56.73,117.66z"/>
			<path class="st3" d="M12.36,29.65H-6.43l-35.62,63.18h-11.09v9.86h41.34v-9.86h-12.16l8.21-14.56h37.43l8.21,14.56H17.73v9.86
				h41.34v-9.86H47.98L12.36,29.65z M-9.94,67.96l12.9-22.89l12.91,22.89H-9.94z"/>
		</g>
	</g>
	<rect x="93.07" y="165.56" class="st6" width="518.19" height="35.47"/>
	<text transform="matrix(1 0 0 1 93.0743 185.2735)" class="st7 st8 st9">Department of Biological Sciences</text>
	<g class="st5">
		<path class="st3" d="M316.51,60.01h6.34v26.87c0,4.49,0,10.64-6.84,15.07c-3.92,2.56-9.3,3.86-15.98,3.86
			c-6.97,0-12.38-1.41-16.55-4.32c-6.52-4.5-6.52-10.42-6.52-15.19v-26.3h6.34v26.56c0.04,4.81,0.38,8.15,4.44,10.77
			c3.16,2.06,7.2,3.06,12.34,3.06c4.03,0,7.91-0.72,10.63-1.98c5.79-2.61,5.79-7.27,5.79-11.01V60.01z"/>
		<path class="st3" d="M194.61,60.01h6.34v26.87c0,4.49,0,10.64-6.85,15.07c-3.92,2.56-9.29,3.86-15.98,3.86
			c-6.97,0-12.38-1.41-16.55-4.32c-6.52-4.5-6.52-10.42-6.52-15.19v-26.3h6.34v26.56c0.04,4.81,0.38,8.15,4.44,10.77
			c3.16,2.06,7.2,3.06,12.34,3.06c4.03,0,7.91-0.72,10.63-1.98c5.79-2.61,5.79-7.27,5.79-11.01V60.01z"/>
		<path class="st3" d="M344.35,81.74V65.1h24.87c2.82,0.06,6.04,0.32,8.04,3.52c0.86,1.31,1.34,2.99,1.34,4.8
			c0,1.87-0.51,3.47-1.54,4.78c-2.59,3.45-7.16,3.54-10.5,3.54H344.35z M373,85.82c3.38-0.56,12.12-2.06,12.12-12.67
			c0-5.3-2.49-8.26-3.98-9.55c-3.84-3.45-8.61-3.54-12.5-3.59h-30.48v44.72h6.26v-17.9h21.72l15.17,17.9h8.2L373,85.82z"/>
		<path class="st3" d="M448.98,60.01v44.72h-6.15l-31.72-33.56c-0.87-0.92-2.85-3.28-3.58-4.23c0.28,2.54,0.31,6.28,0.31,7.87v29.92
			h-6V60.01h6.47c0,0,29.19,30.98,30.2,32.04c1.23,1.3,2.78,2.93,4.87,5.58c-0.33-3.02-0.4-5.59-0.4-6.27c0-1.73,0-31.35,0-31.35
			H448.98z"/>
		<path class="st3" d="M255.04,97.44c-2.38,2-5.34,2.19-8.16,2.19h-24.36V84.08h24.36c2.33,0,5.51-0.04,7.91,1.82l0.09,0.06
			c0.64,0.54,2.57,2.21,2.57,5.79C257.46,94.13,256.66,96.05,255.04,97.44 M222.53,65.1h22.39c2.29,0,5.15,0.02,7.37,1.41
			c1.35,0.92,2.96,2.63,2.96,5.57c0,1.99-0.84,4.6-3.21,5.89c-1.78,1.02-4.05,1.02-6.04,1.02h-23.47V65.1z M256.01,80.52
			c5.31-1.66,5.75-7.15,5.75-8.89c0-2.67-0.75-4.98-2.22-6.9c-3.45-4.36-9.08-4.72-14.56-4.72h-28.72v44.72h28.72
			c4.88,0,10.96,0,15.02-3.42c2.52-2.12,3.98-5.41,3.98-9.04C263.99,88.05,261.87,82.61,256.01,80.52"/>
		<path class="st3" d="M109.83,88.66l11.33-22.89l10.99,22.89H109.83z M124.55,60.01h-6.67l-23.09,44.72h7.01l5.42-10.97h27.62
			l5.42,10.97h7.21L124.55,60.01z"/>
	</g>
	<rect x="93.23" y="128.78" class="st6" width="715.58" height="35.47"/>
	<text transform="matrix(1 0 0 1 93.2328 149.7847)" class="st7 st10 st11">Advancement</text>
</g>
<g id="caps_copy" class="st4">
	<g class="st5">
		<g>
			<path class="st3" d="M-24.52,106.03c7.11,5.32,21.97,5.84,27.49,5.84c5.51,0,20.37-0.52,27.49-5.84H14.39V89.49h9.78l-4.44-7.88
				H-13.8l-4.44,7.88h9.78v16.54H-24.52z M-16.34,88.38l3.19-5.66h32.23l3.19,5.66h-8.99v18.76h12.91
				c-7.86,3.38-19.9,3.63-23.23,3.63c-3.32,0-15.37-0.25-23.23-3.63h12.91V88.38H-16.34z"/>
			<path class="st3" d="M-4.22,64.62h14.36L2.96,51.88L-4.22,64.62z M-2.32,63.51l5.29-9.38l5.29,9.38H-2.32z"/>
			<path class="st3" d="M30.3,55.8l4.6,8.15V55.8H30.3z M33.79,59.73l-1.59-2.83h1.59V59.73z"/>
			<path class="st3" d="M63.87,57.46V38.93H24.95v3.99L14.96,25.2H-9.03l-9.99,17.72v-3.99h-38.92v18.53h7.39v30.91h-7.04v18.76
				h7.47c1.85,8.95,11.09,24.71,53.09,24.71c41.99,0,51.23-15.76,53.09-24.71h7.47V88.38h-7.04V57.46H63.87z M62.41,89.49v16.54
				h-7.28c-1.35,8.38-9.48,24.71-52.16,24.71s-50.81-16.33-52.16-24.71h-7.28V89.49h7.04V56.36h-7.4V40.04h36.71v7.11l11.75-20.84
				h22.69l11.75,20.84v-7.11h36.71v16.32h-7.39v33.13H62.41z"/>
			<polygon class="st3" points="59.42,43.38 29.4,43.38 29.4,53.01 37.69,53.01 37.69,67.77 49.93,89.49 52.03,89.49 52.03,53.01 
				59.42,53.01 			"/>
			<path class="st3" d="M2.96,115.21c-11.7,0-26.5-1.92-32.26-9.19h-16.52c2.01,11.09,15.68,21.37,48.79,21.37
				c33.11,0,46.78-10.27,48.79-21.37H35.23C29.46,113.29,14.66,115.21,2.96,115.21z"/>
			<path class="st3" d="M56.53,115.13c-1.56,0-2.83,1.27-2.83,2.83c0,1.56,1.26,2.83,2.83,2.83c1.56,0,2.83-1.27,2.83-2.83
				C59.36,116.4,58.09,115.13,56.53,115.13z M56.53,120.18c-1.23,0-2.22-0.99-2.22-2.22c0-1.23,0.99-2.22,2.22-2.22
				c1.23,0,2.22,0.99,2.22,2.22C58.75,119.19,57.76,120.18,56.53,120.18z"/>
			<path class="st3" d="M57.69,117.31c0-0.53-0.43-0.96-0.96-0.96h-1.36v3.23h0.61v-1.31h0.44l0.61,1.31h0.67l-0.64-1.37
				C57.42,118.08,57.69,117.72,57.69,117.31z M56.73,117.66h-0.76v-0.7h0.76c0.19,0,0.35,0.16,0.35,0.35
				C57.08,117.5,56.92,117.66,56.73,117.66z"/>
			<path class="st3" d="M12.36,29.65H-6.43l-35.62,63.18h-11.09v9.86h41.34v-9.86h-12.16l8.21-14.56h37.43l8.21,14.56H17.73v9.86
				h41.34v-9.86H47.98L12.36,29.65z M-9.94,67.96l12.9-22.89l12.91,22.89H-9.94z"/>
		</g>
	</g>
	<rect x="93.07" y="165.56" class="st6" width="518.19" height="35.47"/>
	<text transform="matrix(1 0 0 1 93.0743 185.2735)" class="st7 st8 st9">Department of Biological Sciences</text>
	<g class="st5">
		<path class="st3" d="M316.51,60.01h6.34v26.87c0,4.49,0,10.64-6.84,15.07c-3.92,2.56-9.3,3.86-15.98,3.86
			c-6.97,0-12.38-1.41-16.55-4.32c-6.52-4.5-6.52-10.42-6.52-15.19v-26.3h6.34v26.56c0.04,4.81,0.38,8.15,4.44,10.77
			c3.16,2.06,7.2,3.06,12.34,3.06c4.03,0,7.91-0.72,10.63-1.98c5.79-2.61,5.79-7.27,5.79-11.01V60.01z"/>
		<path class="st3" d="M194.61,60.01h6.34v26.87c0,4.49,0,10.64-6.85,15.07c-3.92,2.56-9.29,3.86-15.98,3.86
			c-6.97,0-12.38-1.41-16.55-4.32c-6.52-4.5-6.52-10.42-6.52-15.19v-26.3h6.34v26.56c0.04,4.81,0.38,8.15,4.44,10.77
			c3.16,2.06,7.2,3.06,12.34,3.06c4.03,0,7.91-0.72,10.63-1.98c5.79-2.61,5.79-7.27,5.79-11.01V60.01z"/>
		<path class="st3" d="M344.35,81.74V65.1h24.87c2.82,0.06,6.04,0.32,8.04,3.52c0.86,1.31,1.34,2.99,1.34,4.8
			c0,1.87-0.51,3.47-1.54,4.78c-2.59,3.45-7.16,3.54-10.5,3.54H344.35z M373,85.82c3.38-0.56,12.12-2.06,12.12-12.67
			c0-5.3-2.49-8.26-3.98-9.55c-3.84-3.45-8.61-3.54-12.5-3.59h-30.48v44.72h6.26v-17.9h21.72l15.17,17.9h8.2L373,85.82z"/>
		<path class="st3" d="M448.98,60.01v44.72h-6.15l-31.72-33.56c-0.87-0.92-2.85-3.28-3.58-4.23c0.28,2.54,0.31,6.28,0.31,7.87v29.92
			h-6V60.01h6.47c0,0,29.19,30.98,30.2,32.04c1.23,1.3,2.78,2.93,4.87,5.58c-0.33-3.02-0.4-5.59-0.4-6.27c0-1.73,0-31.35,0-31.35
			H448.98z"/>
		<path class="st3" d="M255.04,97.44c-2.38,2-5.34,2.19-8.16,2.19h-24.36V84.08h24.36c2.33,0,5.51-0.04,7.91,1.82l0.09,0.06
			c0.64,0.54,2.57,2.21,2.57,5.79C257.46,94.13,256.66,96.05,255.04,97.44 M222.53,65.1h22.39c2.29,0,5.15,0.02,7.37,1.41
			c1.35,0.92,2.96,2.63,2.96,5.57c0,1.99-0.84,4.6-3.21,5.89c-1.78,1.02-4.05,1.02-6.04,1.02h-23.47V65.1z M256.01,80.52
			c5.31-1.66,5.75-7.15,5.75-8.89c0-2.67-0.75-4.98-2.22-6.9c-3.45-4.36-9.08-4.72-14.56-4.72h-28.72v44.72h28.72
			c4.88,0,10.96,0,15.02-3.42c2.52-2.12,3.98-5.41,3.98-9.04C263.99,88.05,261.87,82.61,256.01,80.52"/>
		<path class="st3" d="M109.83,88.66l11.33-22.89l10.99,22.89H109.83z M124.55,60.01h-6.67l-23.09,44.72h7.01l5.42-10.97h27.62
			l5.42,10.97h7.21L124.55,60.01z"/>
	</g>
	<rect x="93.23" y="128.78" class="st6" width="715.58" height="35.47"/>
	<text transform="matrix(1 0 0 1 93.2328 149.7847)" class="st7 st10 st11">Advancement</text>
</g>
<g id="lowercase_copy" class="st4">
	<g class="st5">
		<g>
			<path class="st3" d="M-24.52,106.03c7.11,5.32,21.97,5.84,27.49,5.84c5.51,0,20.37-0.52,27.49-5.84H14.39V89.49h9.78l-4.44-7.88
				H-13.8l-4.44,7.88h9.78v16.54H-24.52z M-16.34,88.38l3.19-5.66h32.23l3.19,5.66h-8.99v18.76h12.91
				c-7.86,3.38-19.9,3.63-23.23,3.63c-3.32,0-15.37-0.25-23.23-3.63h12.91V88.38H-16.34z"/>
			<path class="st3" d="M-4.22,64.62h14.36L2.96,51.88L-4.22,64.62z M-2.32,63.51l5.29-9.38l5.29,9.38H-2.32z"/>
			<path class="st3" d="M30.3,55.8l4.6,8.15V55.8H30.3z M33.79,59.73l-1.59-2.83h1.59V59.73z"/>
			<path class="st3" d="M63.87,57.46V38.93H24.95v3.99L14.96,25.2H-9.03l-9.99,17.72v-3.99h-38.92v18.53h7.39v30.91h-7.04v18.76
				h7.47c1.85,8.95,11.09,24.71,53.09,24.71c41.99,0,51.23-15.76,53.09-24.71h7.47V88.38h-7.04V57.46H63.87z M62.41,89.49v16.54
				h-7.28c-1.35,8.38-9.48,24.71-52.16,24.71s-50.81-16.33-52.16-24.71h-7.28V89.49h7.04V56.36h-7.4V40.04h36.71v7.11l11.75-20.84
				h22.69l11.75,20.84v-7.11h36.71v16.32h-7.39v33.13H62.41z"/>
			<polygon class="st3" points="59.42,43.38 29.4,43.38 29.4,53.01 37.69,53.01 37.69,67.77 49.93,89.49 52.03,89.49 52.03,53.01 
				59.42,53.01 			"/>
			<path class="st3" d="M2.96,115.21c-11.7,0-26.5-1.92-32.26-9.19h-16.52c2.01,11.09,15.68,21.37,48.79,21.37
				c33.11,0,46.78-10.27,48.79-21.37H35.23C29.46,113.29,14.66,115.21,2.96,115.21z"/>
			<path class="st3" d="M56.53,115.13c-1.56,0-2.83,1.27-2.83,2.83c0,1.56,1.26,2.83,2.83,2.83c1.56,0,2.83-1.27,2.83-2.83
				C59.36,116.4,58.09,115.13,56.53,115.13z M56.53,120.18c-1.23,0-2.22-0.99-2.22-2.22c0-1.23,0.99-2.22,2.22-2.22
				c1.23,0,2.22,0.99,2.22,2.22C58.75,119.19,57.76,120.18,56.53,120.18z"/>
			<path class="st3" d="M57.69,117.31c0-0.53-0.43-0.96-0.96-0.96h-1.36v3.23h0.61v-1.31h0.44l0.61,1.31h0.67l-0.64-1.37
				C57.42,118.08,57.69,117.72,57.69,117.31z M56.73,117.66h-0.76v-0.7h0.76c0.19,0,0.35,0.16,0.35,0.35
				C57.08,117.5,56.92,117.66,56.73,117.66z"/>
			<path class="st3" d="M12.36,29.65H-6.43l-35.62,63.18h-11.09v9.86h41.34v-9.86h-12.16l8.21-14.56h37.43l8.21,14.56H17.73v9.86
				h41.34v-9.86H47.98L12.36,29.65z M-9.94,67.96l12.9-22.89l12.91,22.89H-9.94z"/>
		</g>
	</g>
	<rect x="93.07" y="165.56" class="st6" width="518.19" height="35.47"/>
	<text transform="matrix(1 0 0 1 93.0743 185.2735)" class="st7 st8 st9">Department of Biological Sciences</text>
	<g class="st5">
		<path class="st3" d="M316.51,60.01h6.34v26.87c0,4.49,0,10.64-6.84,15.07c-3.92,2.56-9.3,3.86-15.98,3.86
			c-6.97,0-12.38-1.41-16.55-4.32c-6.52-4.5-6.52-10.42-6.52-15.19v-26.3h6.34v26.56c0.04,4.81,0.38,8.15,4.44,10.77
			c3.16,2.06,7.2,3.06,12.34,3.06c4.03,0,7.91-0.72,10.63-1.98c5.79-2.61,5.79-7.27,5.79-11.01V60.01z"/>
		<path class="st3" d="M194.61,60.01h6.34v26.87c0,4.49,0,10.64-6.85,15.07c-3.92,2.56-9.29,3.86-15.98,3.86
			c-6.97,0-12.38-1.41-16.55-4.32c-6.52-4.5-6.52-10.42-6.52-15.19v-26.3h6.34v26.56c0.04,4.81,0.38,8.15,4.44,10.77
			c3.16,2.06,7.2,3.06,12.34,3.06c4.03,0,7.91-0.72,10.63-1.98c5.79-2.61,5.79-7.27,5.79-11.01V60.01z"/>
		<path class="st3" d="M344.35,81.74V65.1h24.87c2.82,0.06,6.04,0.32,8.04,3.52c0.86,1.31,1.34,2.99,1.34,4.8
			c0,1.87-0.51,3.47-1.54,4.78c-2.59,3.45-7.16,3.54-10.5,3.54H344.35z M373,85.82c3.38-0.56,12.12-2.06,12.12-12.67
			c0-5.3-2.49-8.26-3.98-9.55c-3.84-3.45-8.61-3.54-12.5-3.59h-30.48v44.72h6.26v-17.9h21.72l15.17,17.9h8.2L373,85.82z"/>
		<path class="st3" d="M448.98,60.01v44.72h-6.15l-31.72-33.56c-0.87-0.92-2.85-3.28-3.58-4.23c0.28,2.54,0.31,6.28,0.31,7.87v29.92
			h-6V60.01h6.47c0,0,29.19,30.98,30.2,32.04c1.23,1.3,2.78,2.93,4.87,5.58c-0.33-3.02-0.4-5.59-0.4-6.27c0-1.73,0-31.35,0-31.35
			H448.98z"/>
		<path class="st3" d="M255.04,97.44c-2.38,2-5.34,2.19-8.16,2.19h-24.36V84.08h24.36c2.33,0,5.51-0.04,7.91,1.82l0.09,0.06
			c0.64,0.54,2.57,2.21,2.57,5.79C257.46,94.13,256.66,96.05,255.04,97.44 M222.53,65.1h22.39c2.29,0,5.15,0.02,7.37,1.41
			c1.35,0.92,2.96,2.63,2.96,5.57c0,1.99-0.84,4.6-3.21,5.89c-1.78,1.02-4.05,1.02-6.04,1.02h-23.47V65.1z M256.01,80.52
			c5.31-1.66,5.75-7.15,5.75-8.89c0-2.67-0.75-4.98-2.22-6.9c-3.45-4.36-9.08-4.72-14.56-4.72h-28.72v44.72h28.72
			c4.88,0,10.96,0,15.02-3.42c2.52-2.12,3.98-5.41,3.98-9.04C263.99,88.05,261.87,82.61,256.01,80.52"/>
		<path class="st3" d="M109.83,88.66l11.33-22.89l10.99,22.89H109.83z M124.55,60.01h-6.67l-23.09,44.72h7.01l5.42-10.97h27.62
			l5.42,10.97h7.21L124.55,60.01z"/>
	</g>
	<rect x="93.23" y="128.78" class="st6" width="715.58" height="35.47"/>
	<text transform="matrix(1 0 0 1 93.2328 149.7847)" class="st7 st10 st11">Advancement</text>
</g>
<g id="hybrid_copy" class="st4">
	<g class="st5">
		<g>
			<path class="st3" d="M-24.52,106.03c7.11,5.32,21.97,5.84,27.49,5.84c5.51,0,20.37-0.52,27.49-5.84H14.39V89.49h9.78l-4.44-7.88
				H-13.8l-4.44,7.88h9.78v16.54H-24.52z M-16.34,88.38l3.19-5.66h32.23l3.19,5.66h-8.99v18.76h12.91
				c-7.86,3.38-19.9,3.63-23.23,3.63c-3.32,0-15.37-0.25-23.23-3.63h12.91V88.38H-16.34z"/>
			<path class="st3" d="M-4.22,64.62h14.36L2.96,51.88L-4.22,64.62z M-2.32,63.51l5.29-9.38l5.29,9.38H-2.32z"/>
			<path class="st3" d="M30.3,55.8l4.6,8.15V55.8H30.3z M33.79,59.73l-1.59-2.83h1.59V59.73z"/>
			<path class="st3" d="M63.87,57.46V38.93H24.95v3.99L14.96,25.2H-9.03l-9.99,17.72v-3.99h-38.92v18.53h7.39v30.91h-7.04v18.76
				h7.47c1.85,8.95,11.09,24.71,53.09,24.71c41.99,0,51.23-15.76,53.09-24.71h7.47V88.38h-7.04V57.46H63.87z M62.41,89.49v16.54
				h-7.28c-1.35,8.38-9.48,24.71-52.16,24.71s-50.81-16.33-52.16-24.71h-7.28V89.49h7.04V56.36h-7.4V40.04h36.71v7.11l11.75-20.84
				h22.69l11.75,20.84v-7.11h36.71v16.32h-7.39v33.13H62.41z"/>
			<polygon class="st3" points="59.42,43.38 29.4,43.38 29.4,53.01 37.69,53.01 37.69,67.77 49.93,89.49 52.03,89.49 52.03,53.01 
				59.42,53.01 			"/>
			<path class="st3" d="M2.96,115.21c-11.7,0-26.5-1.92-32.26-9.19h-16.52c2.01,11.09,15.68,21.37,48.79,21.37
				c33.11,0,46.78-10.27,48.79-21.37H35.23C29.46,113.29,14.66,115.21,2.96,115.21z"/>
			<path class="st3" d="M56.53,115.13c-1.56,0-2.83,1.27-2.83,2.83c0,1.56,1.26,2.83,2.83,2.83c1.56,0,2.83-1.27,2.83-2.83
				C59.36,116.4,58.09,115.13,56.53,115.13z M56.53,120.18c-1.23,0-2.22-0.99-2.22-2.22c0-1.23,0.99-2.22,2.22-2.22
				c1.23,0,2.22,0.99,2.22,2.22C58.75,119.19,57.76,120.18,56.53,120.18z"/>
			<path class="st3" d="M57.69,117.31c0-0.53-0.43-0.96-0.96-0.96h-1.36v3.23h0.61v-1.31h0.44l0.61,1.31h0.67l-0.64-1.37
				C57.42,118.08,57.69,117.72,57.69,117.31z M56.73,117.66h-0.76v-0.7h0.76c0.19,0,0.35,0.16,0.35,0.35
				C57.08,117.5,56.92,117.66,56.73,117.66z"/>
			<path class="st3" d="M12.36,29.65H-6.43l-35.62,63.18h-11.09v9.86h41.34v-9.86h-12.16l8.21-14.56h37.43l8.21,14.56H17.73v9.86
				h41.34v-9.86H47.98L12.36,29.65z M-9.94,67.96l12.9-22.89l12.91,22.89H-9.94z"/>
		</g>
	</g>
	<rect x="93.07" y="165.56" class="st6" width="518.19" height="35.47"/>
	<text transform="matrix(1 0 0 1 93.0743 185.2735)" class="st7 st8 st9">Department of Biological Sciences</text>
	<g class="st5">
		<path class="st3" d="M316.51,60.01h6.34v26.87c0,4.49,0,10.64-6.84,15.07c-3.92,2.56-9.3,3.86-15.98,3.86
			c-6.97,0-12.38-1.41-16.55-4.32c-6.52-4.5-6.52-10.42-6.52-15.19v-26.3h6.34v26.56c0.04,4.81,0.38,8.15,4.44,10.77
			c3.16,2.06,7.2,3.06,12.34,3.06c4.03,0,7.91-0.72,10.63-1.98c5.79-2.61,5.79-7.27,5.79-11.01V60.01z"/>
		<path class="st3" d="M194.61,60.01h6.34v26.87c0,4.49,0,10.64-6.85,15.07c-3.92,2.56-9.29,3.86-15.98,3.86
			c-6.97,0-12.38-1.41-16.55-4.32c-6.52-4.5-6.52-10.42-6.52-15.19v-26.3h6.34v26.56c0.04,4.81,0.38,8.15,4.44,10.77
			c3.16,2.06,7.2,3.06,12.34,3.06c4.03,0,7.91-0.72,10.63-1.98c5.79-2.61,5.79-7.27,5.79-11.01V60.01z"/>
		<path class="st3" d="M344.35,81.74V65.1h24.87c2.82,0.06,6.04,0.32,8.04,3.52c0.86,1.31,1.34,2.99,1.34,4.8
			c0,1.87-0.51,3.47-1.54,4.78c-2.59,3.45-7.16,3.54-10.5,3.54H344.35z M373,85.82c3.38-0.56,12.12-2.06,12.12-12.67
			c0-5.3-2.49-8.26-3.98-9.55c-3.84-3.45-8.61-3.54-12.5-3.59h-30.48v44.72h6.26v-17.9h21.72l15.17,17.9h8.2L373,85.82z"/>
		<path class="st3" d="M448.98,60.01v44.72h-6.15l-31.72-33.56c-0.87-0.92-2.85-3.28-3.58-4.23c0.28,2.54,0.31,6.28,0.31,7.87v29.92
			h-6V60.01h6.47c0,0,29.19,30.98,30.2,32.04c1.23,1.3,2.78,2.93,4.87,5.58c-0.33-3.02-0.4-5.59-0.4-6.27c0-1.73,0-31.35,0-31.35
			H448.98z"/>
		<path class="st3" d="M255.04,97.44c-2.38,2-5.34,2.19-8.16,2.19h-24.36V84.08h24.36c2.33,0,5.51-0.04,7.91,1.82l0.09,0.06
			c0.64,0.54,2.57,2.21,2.57,5.79C257.46,94.13,256.66,96.05,255.04,97.44 M222.53,65.1h22.39c2.29,0,5.15,0.02,7.37,1.41
			c1.35,0.92,2.96,2.63,2.96,5.57c0,1.99-0.84,4.6-3.21,5.89c-1.78,1.02-4.05,1.02-6.04,1.02h-23.47V65.1z M256.01,80.52
			c5.31-1.66,5.75-7.15,5.75-8.89c0-2.67-0.75-4.98-2.22-6.9c-3.45-4.36-9.08-4.72-14.56-4.72h-28.72v44.72h28.72
			c4.88,0,10.96,0,15.02-3.42c2.52-2.12,3.98-5.41,3.98-9.04C263.99,88.05,261.87,82.61,256.01,80.52"/>
		<path class="st3" d="M109.83,88.66l11.33-22.89l10.99,22.89H109.83z M124.55,60.01h-6.67l-23.09,44.72h7.01l5.42-10.97h27.62
			l5.42,10.97h7.21L124.55,60.01z"/>
	</g>
	<rect x="93.23" y="128.78" class="st6" width="715.58" height="35.47"/>
	<text transform="matrix(1 0 0 1 93.2328 149.7847)" class="st7 st10 st11">Advancement</text>
</g>
<g id="caps_copy_2" class="st4">
	<g class="st5">
		<g>
			<path class="st3" d="M-24.52,106.03c7.11,5.32,21.97,5.84,27.49,5.84c5.51,0,20.37-0.52,27.49-5.84H14.39V89.49h9.78l-4.44-7.88
				H-13.8l-4.44,7.88h9.78v16.54H-24.52z M-16.34,88.38l3.19-5.66h32.23l3.19,5.66h-8.99v18.76h12.91
				c-7.86,3.38-19.9,3.63-23.23,3.63c-3.32,0-15.37-0.25-23.23-3.63h12.91V88.38H-16.34z"/>
			<path class="st3" d="M-4.22,64.62h14.36L2.96,51.88L-4.22,64.62z M-2.32,63.51l5.29-9.38l5.29,9.38H-2.32z"/>
			<path class="st3" d="M30.3,55.8l4.6,8.15V55.8H30.3z M33.79,59.73l-1.59-2.83h1.59V59.73z"/>
			<path class="st3" d="M63.87,57.46V38.93H24.95v3.99L14.96,25.2H-9.03l-9.99,17.72v-3.99h-38.92v18.53h7.39v30.91h-7.04v18.76
				h7.47c1.85,8.95,11.09,24.71,53.09,24.71c41.99,0,51.23-15.76,53.09-24.71h7.47V88.38h-7.04V57.46H63.87z M62.41,89.49v16.54
				h-7.28c-1.35,8.38-9.48,24.71-52.16,24.71s-50.81-16.33-52.16-24.71h-7.28V89.49h7.04V56.36h-7.4V40.04h36.71v7.11l11.75-20.84
				h22.69l11.75,20.84v-7.11h36.71v16.32h-7.39v33.13H62.41z"/>
			<polygon class="st3" points="59.42,43.38 29.4,43.38 29.4,53.01 37.69,53.01 37.69,67.77 49.93,89.49 52.03,89.49 52.03,53.01 
				59.42,53.01 			"/>
			<path class="st3" d="M2.96,115.21c-11.7,0-26.5-1.92-32.26-9.19h-16.52c2.01,11.09,15.68,21.37,48.79,21.37
				c33.11,0,46.78-10.27,48.79-21.37H35.23C29.46,113.29,14.66,115.21,2.96,115.21z"/>
			<path class="st3" d="M56.53,115.13c-1.56,0-2.83,1.27-2.83,2.83c0,1.56,1.26,2.83,2.83,2.83c1.56,0,2.83-1.27,2.83-2.83
				C59.36,116.4,58.09,115.13,56.53,115.13z M56.53,120.18c-1.23,0-2.22-0.99-2.22-2.22c0-1.23,0.99-2.22,2.22-2.22
				c1.23,0,2.22,0.99,2.22,2.22C58.75,119.19,57.76,120.18,56.53,120.18z"/>
			<path class="st3" d="M57.69,117.31c0-0.53-0.43-0.96-0.96-0.96h-1.36v3.23h0.61v-1.31h0.44l0.61,1.31h0.67l-0.64-1.37
				C57.42,118.08,57.69,117.72,57.69,117.31z M56.73,117.66h-0.76v-0.7h0.76c0.19,0,0.35,0.16,0.35,0.35
				C57.08,117.5,56.92,117.66,56.73,117.66z"/>
			<path class="st3" d="M12.36,29.65H-6.43l-35.62,63.18h-11.09v9.86h41.34v-9.86h-12.16l8.21-14.56h37.43l8.21,14.56H17.73v9.86
				h41.34v-9.86H47.98L12.36,29.65z M-9.94,67.96l12.9-22.89l12.91,22.89H-9.94z"/>
		</g>
	</g>
	<rect x="93.07" y="165.56" class="st6" width="518.19" height="35.47"/>
	<text transform="matrix(1 0 0 1 93.0743 185.2735)" class="st7 st8 st9">Department of Biological Sciences</text>
	<g class="st5">
		<path class="st3" d="M316.51,60.01h6.34v26.87c0,4.49,0,10.64-6.84,15.07c-3.92,2.56-9.3,3.86-15.98,3.86
			c-6.97,0-12.38-1.41-16.55-4.32c-6.52-4.5-6.52-10.42-6.52-15.19v-26.3h6.34v26.56c0.04,4.81,0.38,8.15,4.44,10.77
			c3.16,2.06,7.2,3.06,12.34,3.06c4.03,0,7.91-0.72,10.63-1.98c5.79-2.61,5.79-7.27,5.79-11.01V60.01z"/>
		<path class="st3" d="M194.61,60.01h6.34v26.87c0,4.49,0,10.64-6.85,15.07c-3.92,2.56-9.29,3.86-15.98,3.86
			c-6.97,0-12.38-1.41-16.55-4.32c-6.52-4.5-6.52-10.42-6.52-15.19v-26.3h6.34v26.56c0.04,4.81,0.38,8.15,4.44,10.77
			c3.16,2.06,7.2,3.06,12.34,3.06c4.03,0,7.91-0.72,10.63-1.98c5.79-2.61,5.79-7.27,5.79-11.01V60.01z"/>
		<path class="st3" d="M344.35,81.74V65.1h24.87c2.82,0.06,6.04,0.32,8.04,3.52c0.86,1.31,1.34,2.99,1.34,4.8
			c0,1.87-0.51,3.47-1.54,4.78c-2.59,3.45-7.16,3.54-10.5,3.54H344.35z M373,85.82c3.38-0.56,12.12-2.06,12.12-12.67
			c0-5.3-2.49-8.26-3.98-9.55c-3.84-3.45-8.61-3.54-12.5-3.59h-30.48v44.72h6.26v-17.9h21.72l15.17,17.9h8.2L373,85.82z"/>
		<path class="st3" d="M448.98,60.01v44.72h-6.15l-31.72-33.56c-0.87-0.92-2.85-3.28-3.58-4.23c0.28,2.54,0.31,6.28,0.31,7.87v29.92
			h-6V60.01h6.47c0,0,29.19,30.98,30.2,32.04c1.23,1.3,2.78,2.93,4.87,5.58c-0.33-3.02-0.4-5.59-0.4-6.27c0-1.73,0-31.35,0-31.35
			H448.98z"/>
		<path class="st3" d="M255.04,97.44c-2.38,2-5.34,2.19-8.16,2.19h-24.36V84.08h24.36c2.33,0,5.51-0.04,7.91,1.82l0.09,0.06
			c0.64,0.54,2.57,2.21,2.57,5.79C257.46,94.13,256.66,96.05,255.04,97.44 M222.53,65.1h22.39c2.29,0,5.15,0.02,7.37,1.41
			c1.35,0.92,2.96,2.63,2.96,5.57c0,1.99-0.84,4.6-3.21,5.89c-1.78,1.02-4.05,1.02-6.04,1.02h-23.47V65.1z M256.01,80.52
			c5.31-1.66,5.75-7.15,5.75-8.89c0-2.67-0.75-4.98-2.22-6.9c-3.45-4.36-9.08-4.72-14.56-4.72h-28.72v44.72h28.72
			c4.88,0,10.96,0,15.02-3.42c2.52-2.12,3.98-5.41,3.98-9.04C263.99,88.05,261.87,82.61,256.01,80.52"/>
		<path class="st3" d="M109.83,88.66l11.33-22.89l10.99,22.89H109.83z M124.55,60.01h-6.67l-23.09,44.72h7.01l5.42-10.97h27.62
			l5.42,10.97h7.21L124.55,60.01z"/>
	</g>
	<rect x="93.23" y="128.78" class="st6" width="715.58" height="35.47"/>
	<text transform="matrix(1 0 0 1 93.2328 149.7847)" class="st7 st10 st11">Advancement</text>
</g>
</svg>
