<svg id="Formal_Lockup" data-name="Formal Lockup" xmlns="http://www.w3.org/2000/svg" viewBox="0 0 383.42 355.86"><path d="M159.67,94.21c8.29,6.2,25.61,6.81,32,6.81s23.75-.61,32-6.81H205V74.93h11.39l-5.17-9.18H172.17L167,74.93h11.4V94.21Zm9.54-20.57,3.72-6.6h37.56l3.72,6.6H203.74V95.5h15c-9.16,3.94-23.2,4.23-27.08,4.23s-17.92-.29-27.07-4.23h15V73.64Z"/><path d="M183.34,46h16.74L191.71,31.1Zm2.21-1.3,6.16-10.92,6.16,10.92Z"/><path d="M223.58,35.67l5.36,9.5v-9.5Zm4.07,4.58L225.79,37h1.86Z"/><path d="M262.7,37.61V16H217.34v4.66L205.69,0h-28L166.09,20.66V16H120.72V37.61h8.61v36h-8.2V95.5h8.7c2.16,10.44,12.94,28.8,61.88,28.8s59.72-18.36,61.88-28.8h8.7V73.64h-8.2v-36ZM261,74.93V94.21h-8.49c-1.57,9.77-11,28.8-60.8,28.8s-59.23-19-60.8-28.8h-8.49V74.93h8.21V36.32H122v-19h42.78v8.29l13.7-24.29h26.44l13.7,24.29V17.29h42.78v19H252.8V74.93Z"/><path d="M159.84,35.67h-5.35v9.51ZM155.78,37h1.86l-1.86,3.3Z"/><polygon points="257.52 21.19 222.53 21.19 222.53 32.42 232.19 32.42 232.19 49.63 246.46 74.93 248.9 74.93 248.9 32.42 257.52 32.42 257.52 21.19"/><path d="M191.71,104.92c-13.63,0-30.89-2.24-37.61-10.71H134.84c2.35,12.94,18.28,24.91,56.87,24.91s54.52-12,56.87-24.91H229.32C222.6,102.68,205.34,104.92,191.71,104.92Z"/><polygon points="134.52 74.93 136.97 74.93 151.23 49.63 151.23 32.42 160.9 32.42 160.9 21.19 125.9 21.19 125.9 32.42 134.52 32.42 134.52 74.93"/><path d="M254.15,104.83a3.3,3.3,0,1,0,3.29,3.29A3.29,3.29,0,0,0,254.15,104.83Zm0,5.88a2.59,2.59,0,1,1,2.58-2.59A2.59,2.59,0,0,1,254.15,110.71Z"/><path d="M255.5,107.36a1.12,1.12,0,0,0-1.12-1.12h-1.59V110h.71v-1.53h.5l.72,1.53h.78l-.75-1.59A1.11,1.11,0,0,0,255.5,107.36Zm-1.12.41h-.88V107h.88a.41.41,0,0,1,.41.41A.41.41,0,0,1,254.38,107.77Z"/><path d="M202.66,5.19h-21.9L139.24,78.83H126.32V90.32H174.5V78.83H160.33l9.56-17h43.63l9.58,17H208.92V90.32H257.1V78.83H244.18Zm-26,44.65,15-26.68,15,26.68Z"/><path d="M124.14,189.21c0,3.22.11,6.88-4.62,9a21.78,21.78,0,0,1-8.79,1.64c-4.28,0-7.62-.83-10.21-2.52-3.3-2.13-3.46-4.75-3.52-8.82V166H91.09v22.3c0,4,0,9.1,5.57,12.94,3.52,2.46,8.11,3.66,14,3.66,5.66,0,10.21-1.1,13.52-3.28,5.85-3.79,5.85-9,5.85-12.84V166h-5.91Z"/><path d="M288.94,177.28a10.5,10.5,0,0,0-3.41-8.2c-3.29-3-7.34-3-10.65-3.08h-25.8v38H255V189h17.68l12.73,15h7.53L279,188.06C282.06,187.53,288.94,186,288.94,177.28Zm-6,.21a6.13,6.13,0,0,1-1.23,3.86c-2.1,2.78-5.87,2.78-8.61,2.78H255V170.94h20.37c2.43,0,4.93.1,6.55,2.68A7.05,7.05,0,0,1,283,177.49Z"/><path d="M338.59,166v26.51c.05,1.89.06,2.53.25,4.47-1.44-1.77-1.9-2.28-3.56-4L309.88,166h-5.79v38h5.53V178.66a57.43,57.43,0,0,0-.2-5.8c.83,1,1.33,1.6,2.51,2.92L338.6,204h5.52V166Z"/><path d="M178.24,183.46c4-1.65,4.37-6,4.37-7.46a9.5,9.5,0,0,0-1.92-5.94c-3-3.75-7.75-4.06-12.4-4.06H144v38h24.34c4.13,0,9.28,0,12.75-2.92a10,10,0,0,0,3.43-7.78A10.42,10.42,0,0,0,178.24,183.46Zm.26,9.41a5.77,5.77,0,0,1-1.94,4.58c-1.93,1.62-4.36,1.76-6.68,1.76h-20V186.65h20c1.92,0,4.54,0,6.55,1.55A5.75,5.75,0,0,1,178.5,192.87Zm-28.63-11V170.78h18.36c1.9,0,4.25,0,6.05,1.13a5.14,5.14,0,0,1,2.37,4.46,5.31,5.31,0,0,1-2.56,4.72,10.15,10.15,0,0,1-5,.82Z"/><path d="M58.92,166,39.3,204h6.44l4.56-9.24H73.12L77.68,204h6.6L64.81,166Zm11.7,24H52.74l9.08-18.34Z"/><path d="M229.27,189.21c0,3.22.11,6.88-4.62,9a21.81,21.81,0,0,1-8.79,1.64c-4.28,0-7.62-.83-10.21-2.52-3.31-2.13-3.47-4.75-3.52-8.82V166h-5.91v22.3c0,4,0,9.1,5.57,12.94,3.52,2.46,8.1,3.66,14,3.66,5.66,0,10.21-1.1,13.52-3.28,5.85-3.79,5.85-9,5.85-12.84V166h-5.91Z"/><rect x="138.5" y="227.06" width="2.86" height="15.69"/><path d="M164,227.06l-6.34,11.72a5.21,5.21,0,0,0-.55,1.2,8.09,8.09,0,0,0-.7-1.44l-6.35-11.48h-3.2l8.84,15.69h2.79l8.69-15.69Z"/><polygon points="175.34 235.66 189.12 235.66 189.12 233.57 175.34 233.57 175.34 229.24 189.5 229.24 189.5 227.06 172.47 227.06 172.47 242.75 190.14 242.75 190.14 240.58 175.34 240.58 175.34 235.66"/><polygon points="257.23 229.17 264.62 229.17 264.62 242.75 267.48 242.75 267.48 229.17 274.9 229.17 274.9 227.06 257.23 227.06 257.23 229.17"/><path d="M294.24,227.06,287.76,234a4.07,4.07,0,0,0-.57.7,3.88,3.88,0,0,0-.62-.81l-6.33-6.78h-3.69l9.19,9.6v6.09h2.87V236.7l9.35-9.64Z"/><path d="M127.79,227.06V238a16.88,16.88,0,0,0,.12,1.85,19.73,19.73,0,0,0-1.73-1.67l-12.3-11.13h-2.81v15.69h2.69V232.29a20.57,20.57,0,0,0-.1-2.39c.4.42.64.66,1.21,1.2l12.93,11.65h2.67V227.06Z"/><path d="M216.61,231.72a4.06,4.06,0,0,0-1.66-3.38c-1.59-1.23-3.55-1.26-5.16-1.28h-12.5v15.69h2.86v-6.2h8.57l6.17,6.2h3.65l-6.74-6.58C213.27,236,216.61,235.33,216.61,231.72Zm-2.89.09a2.26,2.26,0,0,1-.6,1.59c-1,1.15-2.84,1.15-4.17,1.15h-8.8V229.1H210c1.18,0,2.39.05,3.18,1.11A2.64,2.64,0,0,1,213.72,231.81Z"/><path d="M101.47,236.65c0,1.33.06,2.84-2.23,3.71A12.23,12.23,0,0,1,95,241a10,10,0,0,1-5-1c-1.6-.88-1.68-2-1.71-3.64v-9.3H85.46v9.21c0,1.67,0,3.76,2.7,5.34A13,13,0,0,0,95,243.13a13.47,13.47,0,0,0,6.55-1.36c2.84-1.56,2.84-3.72,2.84-5.3v-9.41h-2.87Z"/><rect x="248.93" y="227.06" width="2.86" height="15.69"/><path d="M232.26,233.34a26.25,26.25,0,0,1-4.75-.55,1.74,1.74,0,0,1-1.35-1.58c0-1.73,2.48-2.44,5.82-2.44s5.42.91,6.59,2.12l2.62-.91c-1.75-2.38-5.39-3.3-9.26-3.3-5.69,0-8.65,1.83-8.65,4.64a3.25,3.25,0,0,0,1.33,2.67c1.42,1.1,3.32,1.26,7.54,1.54,4,.27,6.33.6,6.33,2.47s-2.28,3-6,3-6.3-.83-8-2.47l-2.64.94c1.3,1.75,4.14,3.68,10.44,3.68s9-2.25,9-5.16c0-2-1.28-3.31-3.65-4A32.26,32.26,0,0,0,232.26,233.34Z"/><path d="M103.57,287.89a12.85,12.85,0,0,0-8.48-2.84c-2.94,0-6,1.05-6,3.92s3.78,3.08,7.49,3.29c4,.28,10.44.67,10.44,6.79,0,5.32-4.73,7.46-10.23,7.46a17,17,0,0,1-12-4.69l1.85-2.1a14.48,14.48,0,0,0,10.23,4.2c3.88,0,7.1-1.4,7.1-4.48,0-3.43-3.5-4-7.39-4.24-4.93-.31-10.53-.66-10.53-5.95s5-6.79,9.1-6.79a16.71,16.71,0,0,1,10.19,3.33Z"/><path d="M112,291.11a14.87,14.87,0,0,1,7.56-2.14c3.61,0,7.39,1.23,7.39,4.87v9.1a6.78,6.78,0,0,0,.53,3H124.6a6.35,6.35,0,0,1-.49-2.31,9.84,9.84,0,0,1-6.83,2.66c-4,0-6.54-2.34-6.54-5.63,0-3,2.69-5.39,7.56-5.39,2,0,4.52.49,5.81,1.71v-2.34c0-2.31-2.2-3.26-4.69-3.26a12,12,0,0,0-6.44,2Zm12.15,10.15v-2.07c-.94-1.05-3.11-1.75-5.36-1.75-3.71,0-5.18,1.4-5.18,3.19s1.51,3.29,4.27,3.29A9.16,9.16,0,0,0,124.11,301.26Z"/><path d="M133.28,305.91V293.66a18.86,18.86,0,0,0-.46-4.16h2.56a9.66,9.66,0,0,1,.38,2.48c1.26-1.5,2.87-3,5.53-3a5.85,5.85,0,0,1,5.43,3.33,6.93,6.93,0,0,1,5.71-3.33,5.69,5.69,0,0,1,5.88,5.81v11.13h-2.84V294.78a3.35,3.35,0,0,0-3.5-3.36c-2.1,0-3.71,1.47-4.8,2.8v11.69h-2.79V294.33a3.36,3.36,0,0,0-3.51-2.91c-2.13,0-3.74,1.47-4.79,2.8v11.69Z"/><path d="M179.2,289.5v12.21a21.7,21.7,0,0,0,.28,4.2h-2.56a12.65,12.65,0,0,1-.24-2.52,7.76,7.76,0,0,1-6,3c-3.61,0-6.37-2.41-6.37-5.77V289.5h2.83v11.13c0,1.85,1.65,3.32,4,3.32a7.23,7.23,0,0,0,5.32-2.76V289.5Z"/><path d="M200.93,303.32a11.73,11.73,0,0,1-8,3.08c-5.32,0-8.44-3.85-8.44-8.54a8.6,8.6,0,0,1,8.68-8.89c3.89,0,8.23,2.42,8.26,8.26a8.15,8.15,0,0,1,0,.84H187.28c.11,3.22,2.17,5.85,5.92,5.85a8.28,8.28,0,0,0,5.88-2.42Zm-13.44-7.45h10.85c-.07-3.08-2.83-4.55-5.32-4.55A5.61,5.61,0,0,0,187.49,295.87Z"/><path d="M206.78,305.91v-24.5h2.8v24.5Z"/><path d="M243.81,288.2a12.52,12.52,0,0,0-8.12-3,9.33,9.33,0,1,0,.28,18.65,12.57,12.57,0,0,0,7.38-2.24v-5.42h-7.42v-2.7h10.19V303a17.6,17.6,0,0,1-10.33,3.47c-7.17,0-12.67-5.39-12.67-12a12.22,12.22,0,0,1,12.53-12,16.13,16.13,0,0,1,10.26,3.85Z"/><path d="M254,281.8a1.69,1.69,0,1,1,0,3.36,1.69,1.69,0,1,1,0-3.36Zm-1.36,24.11V289.5h2.76v16.41Z"/><path d="M261.94,305.91V293.66a19.06,19.06,0,0,0-.46-4.16H264a9.9,9.9,0,0,1,.38,2.52,7.86,7.86,0,0,1,6.06-3c3.6,0,6.33,2.42,6.33,5.81v11.13H274V294.78c0-1.85-1.64-3.36-3.95-3.36a7.19,7.19,0,0,0-5.32,2.8v11.69Z"/><path d="M283.15,305.91V293.66a19.06,19.06,0,0,0-.46-4.16h2.56a9.9,9.9,0,0,1,.38,2.52,7.86,7.86,0,0,1,6.06-3c3.6,0,6.33,2.42,6.33,5.81v11.13h-2.8V294.78c0-1.85-1.64-3.36-4-3.36a7.19,7.19,0,0,0-5.32,2.8v11.69Z"/><path d="M23.52,344a15.58,15.58,0,0,1-10.95,4.55c-7.39,0-12.57-5.39-12.57-12a12,12,0,0,1,12.43-12,15.66,15.66,0,0,1,10.46,3.92l-2.06,2a12.61,12.61,0,0,0-8.33-3.25,9.33,9.33,0,1,0,.1,18.65A12.49,12.49,0,0,0,21.49,342Z"/><path d="M35.49,331a8.72,8.72,0,1,1,0,17.43,8.72,8.72,0,1,1,0-17.43Zm0,15.09c3.57,0,5.95-2.91,5.95-6.41a6,6,0,0,0-5.95-6.33c-3.53,0-5.88,2.94-5.88,6.33S32,346.06,35.49,346.06Z"/><path d="M49.77,347.91v-24.5h2.8v24.5Z"/><path d="M59.53,347.91v-24.5h2.8v24.5Z"/><path d="M84.28,345.32a11.73,11.73,0,0,1-8,3.08c-5.32,0-8.43-3.85-8.43-8.54A8.6,8.6,0,0,1,76.51,331c3.89,0,8.23,2.42,8.26,8.26a8.15,8.15,0,0,1,0,.84H70.63a5.66,5.66,0,0,0,5.91,5.85,8.29,8.29,0,0,0,5.89-2.42Zm-13.44-7.45H81.69c-.07-3.08-2.83-4.55-5.32-4.55A5.61,5.61,0,0,0,70.84,337.87Z"/><path d="M102.55,345.71a8,8,0,0,1-5.67,2.69c-4.45,0-8.19-3.43-8.19-8.64S92.47,331,97.05,331a7.48,7.48,0,0,1,5.74,3,9.4,9.4,0,0,1,.35-2.56h2.6a17.08,17.08,0,0,0-.39,4.2V349c0,3.78-2.8,6.9-8.23,6.9-3.74,0-6-1.26-7.45-2.84l1.68-1.64a7.49,7.49,0,0,0,5.77,2.13c3.57,0,5.43-2,5.43-4.55Zm0-2.28V336a7.12,7.12,0,0,0-5.25-2.59c-3,0-5.53,2.49-5.53,6.34S94.18,346,97.12,346A8,8,0,0,0,102.55,343.43Z"/><path d="M127.05,345.32a11.75,11.75,0,0,1-8,3.08c-5.32,0-8.43-3.85-8.43-8.54a8.6,8.6,0,0,1,8.68-8.89c3.89,0,8.22,2.42,8.26,8.26a6.12,6.12,0,0,1,0,.84H113.4a5.66,5.66,0,0,0,5.91,5.85,8.31,8.31,0,0,0,5.89-2.42Zm-13.44-7.45h10.85c-.07-3.08-2.84-4.55-5.32-4.55A5.61,5.61,0,0,0,113.61,337.87Z"/><path d="M148.08,331a8.72,8.72,0,1,1-8.78,8.68A8.56,8.56,0,0,1,148.08,331Zm0,15.09c3.57,0,5.95-2.91,5.95-6.41a6,6,0,0,0-5.95-6.33c-3.53,0-5.88,2.94-5.88,6.33S144.55,346.06,148.08,346.06Z"/><path d="M163.27,331.5v-3.36c0-3.82,2.63-5.12,4.87-5.12a6.81,6.81,0,0,1,3.78,1.06l-.56,2.27a4.93,4.93,0,0,0-2.7-.84,2.4,2.4,0,0,0-2.59,2.63v3.36h4.83v2.17h-4.83v14.24h-2.8V333.67h-3.22V331.5Z"/><path d="M196.35,337.24h-9.24v8h16.13v2.69H184.06V325.05h18.38v2.7H187.11v6.79h9.24Z"/><path d="M208,347.91V335.66a19.67,19.67,0,0,0-.45-4.16h2.55a9.9,9.9,0,0,1,.39,2.52,7.84,7.84,0,0,1,6-3c3.61,0,6.34,2.42,6.34,5.81v11.13h-2.8V336.78c0-1.85-1.65-3.36-4-3.36a7.21,7.21,0,0,0-5.32,2.8v11.69Z"/><path d="M241.81,345.71a8,8,0,0,1-5.67,2.69c-4.44,0-8.19-3.43-8.19-8.64s3.78-8.79,8.37-8.79a7.48,7.48,0,0,1,5.74,3,9,9,0,0,1,.35-2.56H245a17.58,17.58,0,0,0-.39,4.2V349c0,3.78-2.8,6.9-8.22,6.9-3.75,0-6-1.26-7.46-2.84l1.68-1.64a7.52,7.52,0,0,0,5.78,2.13c3.57,0,5.42-2,5.42-4.55Zm0-2.28V336a7.08,7.08,0,0,0-5.25-2.59c-3,0-5.53,2.49-5.53,6.34s2.42,6.19,5.36,6.19A8,8,0,0,0,241.81,343.43Z"/><path d="M252.49,323.8a1.69,1.69,0,1,1,0,3.36,1.69,1.69,0,1,1,0-3.36Zm-1.37,24.11V331.5h2.77v16.41Z"/><path d="M260.43,347.91V335.66a19.67,19.67,0,0,0-.45-4.16h2.55a9.9,9.9,0,0,1,.39,2.52,7.84,7.84,0,0,1,6.05-3c3.61,0,6.34,2.42,6.34,5.81v11.13h-2.8V336.78c0-1.85-1.65-3.36-4-3.36a7.21,7.21,0,0,0-5.32,2.8v11.69Z"/><path d="M296.8,345.32a11.75,11.75,0,0,1-8,3.08c-5.32,0-8.44-3.85-8.44-8.54A8.61,8.61,0,0,1,289,331c3.88,0,8.22,2.42,8.26,8.26a6.12,6.12,0,0,1,0,.84h-14.1a5.66,5.66,0,0,0,5.91,5.85,8.27,8.27,0,0,0,5.88-2.42Zm-13.44-7.45h10.85c-.07-3.08-2.84-4.55-5.32-4.55A5.61,5.61,0,0,0,283.36,337.87Z"/><path d="M317.62,345.32a11.73,11.73,0,0,1-8,3.08c-5.32,0-8.44-3.85-8.44-8.54a8.6,8.6,0,0,1,8.68-8.89c3.89,0,8.23,2.42,8.26,8.26a8.15,8.15,0,0,1,0,.84H304c.11,3.22,2.17,5.85,5.92,5.85a8.28,8.28,0,0,0,5.88-2.42Zm-13.44-7.45H315c-.07-3.08-2.83-4.55-5.32-4.55A5.61,5.61,0,0,0,304.18,337.87Z"/><path d="M323.29,347.91V335.66a17.29,17.29,0,0,0-.49-4.16h2.59a12,12,0,0,1,.38,2.83c1.12-1.68,2.6-3.36,5-3.36a3.39,3.39,0,0,1,2.49.84l-.91,2.56a4.1,4.1,0,0,0-2.21-.67c-1.78,0-3.08,1.61-4.06,3v11.2Z"/><path d="M338.48,323.8a1.69,1.69,0,1,1,0,3.36,1.69,1.69,0,1,1,0-3.36Zm-1.37,24.11V331.5h2.77v16.41Z"/><path d="M346.42,347.91V335.66a19.67,19.67,0,0,0-.45-4.16h2.55a9.48,9.48,0,0,1,.39,2.52,7.84,7.84,0,0,1,6-3c3.61,0,6.34,2.42,6.34,5.81v11.13h-2.8V336.78c0-1.85-1.64-3.36-4-3.36a7.23,7.23,0,0,0-5.32,2.8v11.69Z"/><path d="M380.24,345.71a8,8,0,0,1-5.68,2.69c-4.44,0-8.19-3.43-8.19-8.64s3.78-8.79,8.37-8.79a7.48,7.48,0,0,1,5.74,3,9,9,0,0,1,.35-2.56h2.59a17.56,17.56,0,0,0-.38,4.2V349c0,3.78-2.8,6.9-8.23,6.9-3.75,0-6-1.26-7.46-2.84l1.68-1.64a7.52,7.52,0,0,0,5.78,2.13c3.57,0,5.43-2,5.43-4.55Zm0-2.28V336a7.12,7.12,0,0,0-5.26-2.59c-3,0-5.53,2.49-5.53,6.34s2.42,6.19,5.36,6.19A8,8,0,0,0,380.24,343.43Z"/></svg>