<svg id="Informal_Horizontal" data-name="Informal Horizontal" xmlns="http://www.w3.org/2000/svg" viewBox="0 0 506.93 125.1"><defs><style>.cls-1{fill:#e86100;}</style></defs><path class="cls-1" d="M33.42,80.83c7.12,5.32,22,5.84,27.49,5.84s20.37-.52,27.49-5.84H72.34V64.29h9.77l-4.44-7.88H44.15L39.7,64.29h9.78V80.83ZM41.6,63.18l3.19-5.66H77l3.2,5.66h-9V81.94H84.14c-7.86,3.38-19.91,3.63-23.23,3.63s-15.37-.25-23.23-3.63H50.59V63.18Z"/><path class="cls-1" d="M53.73,39.42H68.09L60.91,26.68Zm1.89-1.11,5.29-9.37,5.29,9.37Z"/><path class="cls-1" d="M88.25,30.6l4.6,8.16V30.6Zm3.49,3.94-1.59-2.83h1.59Z"/><path class="cls-1" d="M121.82,32.26V13.73H82.89v4L72.9,0h-24l-10,17.72v-4H0V32.26H7.39V63.18h-7V81.94H7.82c1.86,9,11.1,24.71,53.09,24.71S112.14,90.89,114,81.94h7.47V63.18h-7V32.26Zm-1.46,32V80.83h-7.29c-1.35,8.38-9.47,24.71-52.16,24.71S10.1,89.21,8.75,80.83H1.46V64.29h7V31.16H1.11V14.84h36.7V22L49.56,1.11H72.25L84,22V14.84h36.71V31.16h-7.39V64.29Z"/><path class="cls-1" d="M33.57,30.6H29v8.16Zm-3.49,1.11h1.59l-1.59,2.83Z"/><polygon class="cls-1" points="117.37 18.18 87.35 18.18 87.35 27.82 95.64 27.82 95.64 42.58 107.88 64.29 109.97 64.29 109.97 27.82 117.37 27.82 117.37 18.18"/><path class="cls-1" d="M60.91,90c-11.7,0-26.5-1.92-32.27-9.19H12.12c2,11.1,15.68,21.37,48.79,21.37s46.78-10.27,48.79-21.37H93.17C87.41,88.1,72.61,90,60.91,90Z"/><polygon class="cls-1" points="11.85 64.29 13.94 64.29 26.18 42.58 26.18 27.82 34.47 27.82 34.47 18.18 4.45 18.18 4.45 27.82 11.85 27.82 11.85 64.29"/><path class="cls-1" d="M114.48,89.94a2.83,2.83,0,1,0,2.82,2.82A2.82,2.82,0,0,0,114.48,89.94Zm0,5a2.22,2.22,0,1,1,2.22-2.22A2.22,2.22,0,0,1,114.48,95Z"/><path class="cls-1" d="M115.64,92.11a1,1,0,0,0-1-1h-1.37v3.23h.61V93.07h.43l.62,1.31h.67L115,93A1,1,0,0,0,115.64,92.11Zm-1,.35h-.76v-.71h.76a.36.36,0,0,1,0,.71Z"/><path class="cls-1" d="M70.3,4.45H51.52L15.89,67.63H4.8v9.86H46.14V67.63H34l8.21-14.56H79.62l8.22,14.56H75.68v9.86H117V67.63H105.92ZM48,42.76l12.9-22.89,12.9,22.89Z"/><path class="cls-1" d="M374.45,34.82h6.34V61.69c0,4.49,0,10.64-6.84,15.07-3.92,2.57-9.3,3.87-16,3.87-7,0-12.39-1.42-16.55-4.32-6.52-4.5-6.52-10.43-6.52-15.19V34.82h6.34V61.37c.05,4.81.38,8.16,4.45,10.77,3.15,2.06,7.19,3.06,12.34,3.06a26.5,26.5,0,0,0,10.63-2c5.79-2.61,5.79-7.27,5.79-11Z"/><path class="cls-1" d="M252.55,34.82h6.34V61.69c0,4.49,0,10.64-6.85,15.07-3.91,2.57-9.29,3.87-16,3.87-7,0-12.39-1.42-16.55-4.32C213,71.81,213,65.88,213,61.12V34.82h6.33V61.37c0,4.81.38,8.16,4.45,10.77C227,74.2,231,75.2,236.13,75.2a26.5,26.5,0,0,0,10.63-2c5.79-2.61,5.79-7.27,5.79-11Z"/><path class="cls-1" d="M402.29,56.55V39.91h24.88c2.82.06,6,.33,8,3.53a8.67,8.67,0,0,1,1.34,4.79A7.51,7.51,0,0,1,435,53c-2.59,3.44-7.16,3.54-10.5,3.54ZM431,60.63c3.38-.56,12.11-2.06,12.11-12.67a12.26,12.26,0,0,0-4-9.55c-3.85-3.45-8.61-3.54-12.5-3.59H396.11V79.54h6.26V61.64h21.71l15.17,17.9h8.2Z"/><path class="cls-1" d="M506.93,34.82V79.54h-6.16L469.05,46c-.87-.92-2.85-3.28-3.58-4.23.28,2.55.31,6.29.31,7.87V79.54h-6V34.82h6.47s29.19,31,30.21,32a72.44,72.44,0,0,1,4.86,5.58c-.33-3-.39-5.6-.39-6.27,0-1.73,0-31.35,0-31.35Z"/><path class="cls-1" d="M313,72.25c-2.38,2-5.34,2.2-8.16,2.2H280.48V58.89h24.35c2.33,0,5.51,0,7.91,1.82l.09.06A7.84,7.84,0,0,1,313,72.25M280.48,39.91h22.39c2.3,0,5.15,0,7.37,1.41a6.5,6.5,0,0,1,3,5.57A6.63,6.63,0,0,1,310,52.78c-1.78,1-4.05,1-6,1H280.48ZM314,55.33c5.31-1.66,5.75-7.15,5.75-8.88a11.08,11.08,0,0,0-2.22-6.91c-3.45-4.36-9.09-4.72-14.56-4.72H274.21V79.54h28.72c4.88,0,11,0,15-3.41a11.69,11.69,0,0,0,4-9,12.2,12.2,0,0,0-8-11.75"/><path class="cls-1" d="M167.78,63.47,179.1,40.58l11,22.89ZM182.5,34.82h-6.68L152.73,79.54h7l5.42-11h27.62l5.43,11h7.2Z"/><path class="cls-1" d="M163.34,115.44h-7.92v6.84h13.83v2.31H152.81V105h15.75v2.31H155.42v5.82h7.92Z"/><path class="cls-1" d="M191,105v19.59h-2.37l-12.45-15h0v15h-2.61V105h2.37l12.44,15h0V105Z"/><path class="cls-1" d="M213.5,109.41a10.76,10.76,0,0,0-7-2.61,8,8,0,1,0,.24,16,10.77,10.77,0,0,0,6.32-1.92v-4.65h-6.35v-2.31h8.72v8.22a15.06,15.06,0,0,1-8.85,3c-6.14,0-10.85-4.62-10.85-10.32a10.46,10.46,0,0,1,10.73-10.29,13.8,13.8,0,0,1,8.79,3.3Z"/><path class="cls-1" d="M221.15,124.59V105h2.6v19.59Z"/><path class="cls-1" d="M247.72,105v19.59h-2.37l-12.45-15h0v15h-2.61V105h2.37l12.45,15h0V105Z"/><path class="cls-1" d="M264.76,115.44h-7.92v6.84h13.83v2.31H254.23V105H270v2.31H256.84v5.82h7.92Z"/><path class="cls-1" d="M285.52,115.44H277.6v6.84h13.83v2.31H275V105h15.75v2.31H277.6v5.82h7.92Z"/><path class="cls-1" d="M295.75,124.59V105h10.8a7.12,7.12,0,0,1,5.49,2,5.5,5.5,0,0,1,1.5,3.84,5.69,5.69,0,0,1-4.56,5.46l4.83,8.31h-3l-4.5-8h-8v8Zm2.61-17.28v7h8.85a3.59,3.59,0,0,0,3.75-3.51,3.33,3.33,0,0,0-.93-2.28,4.56,4.56,0,0,0-3.48-1.2Z"/><path class="cls-1" d="M318.67,124.59V105h2.61v19.59Z"/><path class="cls-1" d="M345.25,105v19.59h-2.37l-12.45-15h0v15h-2.61V105h2.37l12.45,15h0V105Z"/><path class="cls-1" d="M367.72,109.41a10.74,10.74,0,0,0-7-2.61,8,8,0,1,0,.24,16,10.78,10.78,0,0,0,6.33-1.92v-4.65H361v-2.31h8.73v8.22a15.09,15.09,0,0,1-8.85,3c-6.15,0-10.86-4.62-10.86-10.32a10.47,10.47,0,0,1,10.74-10.29,13.8,13.8,0,0,1,8.79,3.3Z"/></svg>